%TF.GenerationSoftware,KiCad,Pcbnew,9.0.8-1.fc43*%
%TF.CreationDate,2026-04-05T21:21:21+02:00*%
%TF.ProjectId,oregano_routed,6f726567-616e-46f5-9f72-6f757465642e,v1.0.0*%
%TF.SameCoordinates,Original*%
%TF.FileFunction,Legend,Bot*%
%TF.FilePolarity,Positive*%
%FSLAX46Y46*%
G04 Gerber Fmt 4.6, Leading zero omitted, Abs format (unit mm)*
G04 Created by KiCad (PCBNEW 9.0.8-1.fc43) date 2026-04-05 21:21:21*
%MOMM*%
%LPD*%
G01*
G04 APERTURE LIST*
%ADD10C,0.000000*%
%ADD11C,0.200000*%
%ADD12C,0.150000*%
%ADD13C,0.100000*%
%ADD14C,0.120000*%
G04 APERTURE END LIST*
D10*
G36*
X116236703Y-100643295D02*
G01*
X111107316Y-100643295D01*
X111107316Y-99784502D01*
X115314408Y-99784502D01*
X115314408Y-91247943D01*
X116236703Y-91247943D01*
X116236703Y-100643295D01*
G37*
G36*
X108243425Y-93434944D02*
G01*
X108315732Y-93510396D01*
X108381140Y-93585181D01*
X108439955Y-93659774D01*
X108492487Y-93734650D01*
X108539044Y-93810285D01*
X108579934Y-93887153D01*
X108615466Y-93965729D01*
X108645948Y-94046490D01*
X108671689Y-94129909D01*
X108692997Y-94216462D01*
X108710181Y-94306624D01*
X108723549Y-94400869D01*
X108733409Y-94499675D01*
X108740070Y-94603514D01*
X108743840Y-94712862D01*
X108745029Y-94828196D01*
X108745029Y-100643295D01*
X107871021Y-100643295D01*
X107871021Y-97435884D01*
X103259774Y-97435884D01*
X103259774Y-100643295D01*
X102385767Y-100643515D01*
X102385772Y-96675207D01*
X103259774Y-96675207D01*
X107871024Y-96675208D01*
X107871024Y-94925210D01*
X107870424Y-94781845D01*
X107868997Y-94715877D01*
X107866219Y-94653116D01*
X107861638Y-94593109D01*
X107854805Y-94535404D01*
X107845268Y-94479549D01*
X107832577Y-94425092D01*
X107816282Y-94371580D01*
X107795932Y-94318563D01*
X107771077Y-94265586D01*
X107741265Y-94212199D01*
X107706047Y-94157948D01*
X107664971Y-94102383D01*
X107617588Y-94045050D01*
X107563447Y-93985497D01*
X105670573Y-92025597D01*
X105427818Y-92025597D01*
X103566913Y-93985497D01*
X103515465Y-94045014D01*
X103470092Y-94102319D01*
X103430413Y-94157866D01*
X103396047Y-94212106D01*
X103366615Y-94265488D01*
X103341737Y-94318466D01*
X103321032Y-94371489D01*
X103304121Y-94425009D01*
X103290623Y-94479478D01*
X103280158Y-94535346D01*
X103272346Y-94593065D01*
X103266806Y-94653085D01*
X103263160Y-94715859D01*
X103261025Y-94781836D01*
X103259774Y-94925210D01*
X103259774Y-96675207D01*
X102385772Y-96675207D01*
X102385774Y-94925210D01*
X102385774Y-94829518D01*
X102386962Y-94714185D01*
X102390733Y-94604836D01*
X102397394Y-94500997D01*
X102407254Y-94402192D01*
X102420622Y-94307946D01*
X102437805Y-94217784D01*
X102459114Y-94131231D01*
X102484854Y-94047812D01*
X102515337Y-93967052D01*
X102550869Y-93888475D01*
X102591759Y-93811607D01*
X102638316Y-93735973D01*
X102690848Y-93661096D01*
X102749664Y-93586503D01*
X102815072Y-93511718D01*
X102887380Y-93436266D01*
X105007133Y-91248163D01*
X106123672Y-91248163D01*
X108243425Y-93434944D01*
G37*
G36*
X98250000Y-91250000D02*
G01*
X98351849Y-91257425D01*
X98451714Y-91269673D01*
X98549503Y-91286640D01*
X98645125Y-91308222D01*
X98738488Y-91334316D01*
X98829500Y-91364818D01*
X98918069Y-91399623D01*
X99004102Y-91438629D01*
X99087509Y-91481731D01*
X99168196Y-91528825D01*
X99246073Y-91579807D01*
X99321047Y-91634574D01*
X99393027Y-91693022D01*
X99461919Y-91755047D01*
X99527634Y-91820545D01*
X99590077Y-91889412D01*
X99649159Y-91961545D01*
X99704786Y-92036840D01*
X99756866Y-92115192D01*
X99805309Y-92196498D01*
X99850021Y-92280654D01*
X99890912Y-92367557D01*
X99927888Y-92457102D01*
X99960859Y-92549186D01*
X99989731Y-92643704D01*
X100014414Y-92740553D01*
X100034816Y-92839630D01*
X100050843Y-92940829D01*
X100062406Y-93044048D01*
X100069410Y-93149183D01*
X100071766Y-93256130D01*
X100071766Y-98602034D01*
X100069410Y-98709073D01*
X100062406Y-98814479D01*
X100050843Y-98918135D01*
X100034816Y-99019927D01*
X100014414Y-99119737D01*
X99989731Y-99217451D01*
X99960859Y-99312952D01*
X99927888Y-99406126D01*
X99890912Y-99496856D01*
X99850021Y-99585027D01*
X99805309Y-99670522D01*
X99756866Y-99753227D01*
X99704786Y-99833025D01*
X99649159Y-99909802D01*
X99590077Y-99983440D01*
X99527634Y-100053825D01*
X99461919Y-100120840D01*
X99393027Y-100184370D01*
X99321047Y-100244300D01*
X99246073Y-100300513D01*
X99168196Y-100352894D01*
X99087509Y-100401328D01*
X99004102Y-100445697D01*
X98918069Y-100485888D01*
X98829500Y-100521783D01*
X98738488Y-100553268D01*
X98645125Y-100580227D01*
X98549503Y-100602543D01*
X98451714Y-100620102D01*
X98351849Y-100632787D01*
X98250000Y-100640483D01*
X98146260Y-100643074D01*
X95638230Y-100643074D01*
X95534470Y-100640762D01*
X95432603Y-100633881D01*
X95332721Y-100622511D01*
X95234915Y-100606730D01*
X95139278Y-100586621D01*
X95045901Y-100562262D01*
X94954876Y-100533733D01*
X94866296Y-100501115D01*
X94780251Y-100464487D01*
X94696834Y-100423931D01*
X94616137Y-100379524D01*
X94538252Y-100331348D01*
X94463271Y-100279483D01*
X94391284Y-100224009D01*
X94322386Y-100165005D01*
X94256666Y-100102552D01*
X94194217Y-100036729D01*
X94135132Y-99967618D01*
X94079501Y-99895297D01*
X94027417Y-99819847D01*
X93978972Y-99741347D01*
X93934258Y-99659878D01*
X93893365Y-99575520D01*
X93856387Y-99488353D01*
X93823416Y-99398457D01*
X93794542Y-99305912D01*
X93769859Y-99210797D01*
X93749457Y-99113194D01*
X93733429Y-99013181D01*
X93721867Y-98910839D01*
X93714862Y-98806248D01*
X93712507Y-98699489D01*
X93712507Y-95524490D01*
X96528116Y-95524490D01*
X96528116Y-96350651D01*
X94602390Y-96350651D01*
X94602390Y-98780408D01*
X94603615Y-98828849D01*
X94607250Y-98876927D01*
X94613240Y-98924566D01*
X94621528Y-98971688D01*
X94632057Y-99018216D01*
X94644772Y-99064073D01*
X94659614Y-99109182D01*
X94676529Y-99153466D01*
X94695459Y-99196849D01*
X94716348Y-99239252D01*
X94739139Y-99280599D01*
X94763776Y-99320812D01*
X94790203Y-99359815D01*
X94818362Y-99397531D01*
X94848197Y-99433883D01*
X94879653Y-99468792D01*
X94912671Y-99502183D01*
X94947196Y-99533979D01*
X94983171Y-99564101D01*
X95020540Y-99592474D01*
X95059246Y-99619020D01*
X95099232Y-99643662D01*
X95140443Y-99666323D01*
X95182821Y-99686926D01*
X95226310Y-99705393D01*
X95270854Y-99721648D01*
X95316396Y-99735614D01*
X95362879Y-99747213D01*
X95410247Y-99756369D01*
X95458444Y-99763005D01*
X95507412Y-99767043D01*
X95557096Y-99768406D01*
X98227181Y-99768406D01*
X98276904Y-99766949D01*
X98325907Y-99762638D01*
X98374132Y-99755563D01*
X98421525Y-99745812D01*
X98468029Y-99733474D01*
X98513588Y-99718638D01*
X98558144Y-99701394D01*
X98601643Y-99681830D01*
X98644027Y-99660036D01*
X98685241Y-99636101D01*
X98725228Y-99610113D01*
X98763932Y-99582161D01*
X98801297Y-99552336D01*
X98837265Y-99520725D01*
X98871782Y-99487418D01*
X98904791Y-99452504D01*
X98936235Y-99416072D01*
X98966058Y-99378212D01*
X98994205Y-99339011D01*
X99020618Y-99298559D01*
X99045241Y-99256946D01*
X99068018Y-99214260D01*
X99088894Y-99170591D01*
X99107811Y-99126027D01*
X99124713Y-99080657D01*
X99139544Y-99034571D01*
X99152247Y-98987857D01*
X99162768Y-98940606D01*
X99171048Y-98892904D01*
X99177032Y-98844843D01*
X99180664Y-98796511D01*
X99181887Y-98747996D01*
X99181887Y-93094293D01*
X99180664Y-93045733D01*
X99177032Y-92997268D01*
X99171048Y-92948993D01*
X99162768Y-92901002D01*
X99152247Y-92853390D01*
X99139544Y-92806254D01*
X99124713Y-92759686D01*
X99107811Y-92713782D01*
X99088894Y-92668638D01*
X99068018Y-92624347D01*
X99045241Y-92581005D01*
X99020618Y-92538707D01*
X98994205Y-92497547D01*
X98966058Y-92457621D01*
X98936235Y-92419023D01*
X98904791Y-92381847D01*
X98871782Y-92346190D01*
X98837265Y-92312146D01*
X98801297Y-92279810D01*
X98763932Y-92249276D01*
X98725228Y-92220640D01*
X98685241Y-92193996D01*
X98644027Y-92169439D01*
X98601643Y-92147064D01*
X98558144Y-92126967D01*
X98513588Y-92109241D01*
X98468029Y-92093982D01*
X98421525Y-92081284D01*
X98374132Y-92071244D01*
X98325907Y-92063954D01*
X98276904Y-92059511D01*
X98227181Y-92058009D01*
X95557096Y-92058009D01*
X95507412Y-92059418D01*
X95458444Y-92063593D01*
X95410248Y-92070448D01*
X95362880Y-92079901D01*
X95316397Y-92091870D01*
X95270855Y-92106270D01*
X95226311Y-92123019D01*
X95182822Y-92142034D01*
X95140444Y-92163232D01*
X95099234Y-92186529D01*
X95059247Y-92211843D01*
X95020541Y-92239091D01*
X94983172Y-92268188D01*
X94947197Y-92299053D01*
X94912672Y-92331602D01*
X94879654Y-92365752D01*
X94848199Y-92401420D01*
X94818364Y-92438523D01*
X94790204Y-92476978D01*
X94763778Y-92516701D01*
X94739141Y-92557611D01*
X94716350Y-92599622D01*
X94695461Y-92642654D01*
X94676531Y-92686621D01*
X94659616Y-92731442D01*
X94644773Y-92777033D01*
X94632059Y-92823312D01*
X94621530Y-92870194D01*
X94613242Y-92917597D01*
X94607252Y-92965439D01*
X94603616Y-93013635D01*
X94602392Y-93062102D01*
X94602392Y-93548274D01*
X93712510Y-93548274D01*
X93712505Y-93191086D01*
X93714860Y-93084346D01*
X93721865Y-92979772D01*
X93733427Y-92877445D01*
X93749455Y-92777445D01*
X93769857Y-92679851D01*
X93794541Y-92584745D01*
X93823414Y-92492206D01*
X93856386Y-92402315D01*
X93893364Y-92315151D01*
X93934256Y-92230794D01*
X93978971Y-92149326D01*
X94027416Y-92070825D01*
X94079500Y-91995373D01*
X94135130Y-91923049D01*
X94194216Y-91853933D01*
X94256664Y-91788106D01*
X94322384Y-91725647D01*
X94391283Y-91666638D01*
X94463269Y-91611157D01*
X94538251Y-91559285D01*
X94616136Y-91511102D01*
X94696833Y-91466689D01*
X94780250Y-91426125D01*
X94866295Y-91389491D01*
X94954875Y-91356867D01*
X95045900Y-91328333D01*
X95139277Y-91303968D01*
X95234915Y-91283854D01*
X95332721Y-91268070D01*
X95432603Y-91256697D01*
X95534470Y-91249814D01*
X95638230Y-91247502D01*
X98146260Y-91247502D01*
X98250000Y-91250000D01*
G37*
D11*
X90154136Y-93322740D02*
X90630326Y-93322740D01*
X90630326Y-93322740D02*
X90630326Y-92322740D01*
X89820802Y-93322740D02*
X89820802Y-92656073D01*
X89820802Y-92322740D02*
X89868421Y-92370359D01*
X89868421Y-92370359D02*
X89820802Y-92417978D01*
X89820802Y-92417978D02*
X89773183Y-92370359D01*
X89773183Y-92370359D02*
X89820802Y-92322740D01*
X89820802Y-92322740D02*
X89820802Y-92417978D01*
X89344612Y-92656073D02*
X89344612Y-93322740D01*
X89344612Y-92751311D02*
X89296993Y-92703692D01*
X89296993Y-92703692D02*
X89201755Y-92656073D01*
X89201755Y-92656073D02*
X89058898Y-92656073D01*
X89058898Y-92656073D02*
X88963660Y-92703692D01*
X88963660Y-92703692D02*
X88916041Y-92798930D01*
X88916041Y-92798930D02*
X88916041Y-93322740D01*
X88011279Y-92656073D02*
X88011279Y-93322740D01*
X88439850Y-92656073D02*
X88439850Y-93179882D01*
X88439850Y-93179882D02*
X88392231Y-93275121D01*
X88392231Y-93275121D02*
X88296993Y-93322740D01*
X88296993Y-93322740D02*
X88154136Y-93322740D01*
X88154136Y-93322740D02*
X88058898Y-93275121D01*
X88058898Y-93275121D02*
X88011279Y-93227501D01*
X87630326Y-93322740D02*
X87106517Y-92656073D01*
X87630326Y-92656073D02*
X87106517Y-93322740D01*
X90677945Y-94646969D02*
X90201755Y-94646969D01*
X90773183Y-94932684D02*
X90439850Y-93932684D01*
X90439850Y-93932684D02*
X90106517Y-94932684D01*
X89344612Y-94885065D02*
X89439850Y-94932684D01*
X89439850Y-94932684D02*
X89630326Y-94932684D01*
X89630326Y-94932684D02*
X89725564Y-94885065D01*
X89725564Y-94885065D02*
X89773183Y-94837445D01*
X89773183Y-94837445D02*
X89820802Y-94742207D01*
X89820802Y-94742207D02*
X89820802Y-94456493D01*
X89820802Y-94456493D02*
X89773183Y-94361255D01*
X89773183Y-94361255D02*
X89725564Y-94313636D01*
X89725564Y-94313636D02*
X89630326Y-94266017D01*
X89630326Y-94266017D02*
X89439850Y-94266017D01*
X89439850Y-94266017D02*
X89344612Y-94313636D01*
X88487469Y-94932684D02*
X88487469Y-94408874D01*
X88487469Y-94408874D02*
X88535088Y-94313636D01*
X88535088Y-94313636D02*
X88630326Y-94266017D01*
X88630326Y-94266017D02*
X88820802Y-94266017D01*
X88820802Y-94266017D02*
X88916040Y-94313636D01*
X88487469Y-94885065D02*
X88582707Y-94932684D01*
X88582707Y-94932684D02*
X88820802Y-94932684D01*
X88820802Y-94932684D02*
X88916040Y-94885065D01*
X88916040Y-94885065D02*
X88963659Y-94789826D01*
X88963659Y-94789826D02*
X88963659Y-94694588D01*
X88963659Y-94694588D02*
X88916040Y-94599350D01*
X88916040Y-94599350D02*
X88820802Y-94551731D01*
X88820802Y-94551731D02*
X88582707Y-94551731D01*
X88582707Y-94551731D02*
X88487469Y-94504112D01*
X87582707Y-94932684D02*
X87582707Y-93932684D01*
X87582707Y-94885065D02*
X87677945Y-94932684D01*
X87677945Y-94932684D02*
X87868421Y-94932684D01*
X87868421Y-94932684D02*
X87963659Y-94885065D01*
X87963659Y-94885065D02*
X88011278Y-94837445D01*
X88011278Y-94837445D02*
X88058897Y-94742207D01*
X88058897Y-94742207D02*
X88058897Y-94456493D01*
X88058897Y-94456493D02*
X88011278Y-94361255D01*
X88011278Y-94361255D02*
X87963659Y-94313636D01*
X87963659Y-94313636D02*
X87868421Y-94266017D01*
X87868421Y-94266017D02*
X87677945Y-94266017D01*
X87677945Y-94266017D02*
X87582707Y-94313636D01*
X86725564Y-94885065D02*
X86820802Y-94932684D01*
X86820802Y-94932684D02*
X87011278Y-94932684D01*
X87011278Y-94932684D02*
X87106516Y-94885065D01*
X87106516Y-94885065D02*
X87154135Y-94789826D01*
X87154135Y-94789826D02*
X87154135Y-94408874D01*
X87154135Y-94408874D02*
X87106516Y-94313636D01*
X87106516Y-94313636D02*
X87011278Y-94266017D01*
X87011278Y-94266017D02*
X86820802Y-94266017D01*
X86820802Y-94266017D02*
X86725564Y-94313636D01*
X86725564Y-94313636D02*
X86677945Y-94408874D01*
X86677945Y-94408874D02*
X86677945Y-94504112D01*
X86677945Y-94504112D02*
X87154135Y-94599350D01*
X86249373Y-94932684D02*
X86249373Y-94266017D01*
X86249373Y-94361255D02*
X86201754Y-94313636D01*
X86201754Y-94313636D02*
X86106516Y-94266017D01*
X86106516Y-94266017D02*
X85963659Y-94266017D01*
X85963659Y-94266017D02*
X85868421Y-94313636D01*
X85868421Y-94313636D02*
X85820802Y-94408874D01*
X85820802Y-94408874D02*
X85820802Y-94932684D01*
X85820802Y-94408874D02*
X85773183Y-94313636D01*
X85773183Y-94313636D02*
X85677945Y-94266017D01*
X85677945Y-94266017D02*
X85535088Y-94266017D01*
X85535088Y-94266017D02*
X85439849Y-94313636D01*
X85439849Y-94313636D02*
X85392230Y-94408874D01*
X85392230Y-94408874D02*
X85392230Y-94932684D01*
X84916040Y-94932684D02*
X84916040Y-94266017D01*
X84916040Y-93932684D02*
X84963659Y-93980303D01*
X84963659Y-93980303D02*
X84916040Y-94027922D01*
X84916040Y-94027922D02*
X84868421Y-93980303D01*
X84868421Y-93980303D02*
X84916040Y-93932684D01*
X84916040Y-93932684D02*
X84916040Y-94027922D01*
X84011279Y-94885065D02*
X84106517Y-94932684D01*
X84106517Y-94932684D02*
X84296993Y-94932684D01*
X84296993Y-94932684D02*
X84392231Y-94885065D01*
X84392231Y-94885065D02*
X84439850Y-94837445D01*
X84439850Y-94837445D02*
X84487469Y-94742207D01*
X84487469Y-94742207D02*
X84487469Y-94456493D01*
X84487469Y-94456493D02*
X84439850Y-94361255D01*
X84439850Y-94361255D02*
X84392231Y-94313636D01*
X84392231Y-94313636D02*
X84296993Y-94266017D01*
X84296993Y-94266017D02*
X84106517Y-94266017D01*
X84106517Y-94266017D02*
X84011279Y-94313636D01*
X90106517Y-95590247D02*
X90201755Y-95542628D01*
X90201755Y-95542628D02*
X90344612Y-95542628D01*
X90344612Y-95542628D02*
X90487469Y-95590247D01*
X90487469Y-95590247D02*
X90582707Y-95685485D01*
X90582707Y-95685485D02*
X90630326Y-95780723D01*
X90630326Y-95780723D02*
X90677945Y-95971199D01*
X90677945Y-95971199D02*
X90677945Y-96114056D01*
X90677945Y-96114056D02*
X90630326Y-96304532D01*
X90630326Y-96304532D02*
X90582707Y-96399770D01*
X90582707Y-96399770D02*
X90487469Y-96495009D01*
X90487469Y-96495009D02*
X90344612Y-96542628D01*
X90344612Y-96542628D02*
X90249374Y-96542628D01*
X90249374Y-96542628D02*
X90106517Y-96495009D01*
X90106517Y-96495009D02*
X90058898Y-96447389D01*
X90058898Y-96447389D02*
X90058898Y-96114056D01*
X90058898Y-96114056D02*
X90249374Y-96114056D01*
X89630326Y-96542628D02*
X89630326Y-95875961D01*
X89630326Y-96066437D02*
X89582707Y-95971199D01*
X89582707Y-95971199D02*
X89535088Y-95923580D01*
X89535088Y-95923580D02*
X89439850Y-95875961D01*
X89439850Y-95875961D02*
X89344612Y-95875961D01*
X88868421Y-96542628D02*
X88963659Y-96495009D01*
X88963659Y-96495009D02*
X89011278Y-96447389D01*
X89011278Y-96447389D02*
X89058897Y-96352151D01*
X89058897Y-96352151D02*
X89058897Y-96066437D01*
X89058897Y-96066437D02*
X89011278Y-95971199D01*
X89011278Y-95971199D02*
X88963659Y-95923580D01*
X88963659Y-95923580D02*
X88868421Y-95875961D01*
X88868421Y-95875961D02*
X88725564Y-95875961D01*
X88725564Y-95875961D02*
X88630326Y-95923580D01*
X88630326Y-95923580D02*
X88582707Y-95971199D01*
X88582707Y-95971199D02*
X88535088Y-96066437D01*
X88535088Y-96066437D02*
X88535088Y-96352151D01*
X88535088Y-96352151D02*
X88582707Y-96447389D01*
X88582707Y-96447389D02*
X88630326Y-96495009D01*
X88630326Y-96495009D02*
X88725564Y-96542628D01*
X88725564Y-96542628D02*
X88868421Y-96542628D01*
X87677945Y-95875961D02*
X87677945Y-96542628D01*
X88106516Y-95875961D02*
X88106516Y-96399770D01*
X88106516Y-96399770D02*
X88058897Y-96495009D01*
X88058897Y-96495009D02*
X87963659Y-96542628D01*
X87963659Y-96542628D02*
X87820802Y-96542628D01*
X87820802Y-96542628D02*
X87725564Y-96495009D01*
X87725564Y-96495009D02*
X87677945Y-96447389D01*
X87201754Y-95875961D02*
X87201754Y-96875961D01*
X87201754Y-95923580D02*
X87106516Y-95875961D01*
X87106516Y-95875961D02*
X86916040Y-95875961D01*
X86916040Y-95875961D02*
X86820802Y-95923580D01*
X86820802Y-95923580D02*
X86773183Y-95971199D01*
X86773183Y-95971199D02*
X86725564Y-96066437D01*
X86725564Y-96066437D02*
X86725564Y-96352151D01*
X86725564Y-96352151D02*
X86773183Y-96447389D01*
X86773183Y-96447389D02*
X86820802Y-96495009D01*
X86820802Y-96495009D02*
X86916040Y-96542628D01*
X86916040Y-96542628D02*
X87106516Y-96542628D01*
X87106516Y-96542628D02*
X87201754Y-96495009D01*
X90677945Y-98857754D02*
X90630326Y-98810135D01*
X90630326Y-98810135D02*
X90535088Y-98762516D01*
X90535088Y-98762516D02*
X90296993Y-98762516D01*
X90296993Y-98762516D02*
X90201755Y-98810135D01*
X90201755Y-98810135D02*
X90154136Y-98857754D01*
X90154136Y-98857754D02*
X90106517Y-98952992D01*
X90106517Y-98952992D02*
X90106517Y-99048230D01*
X90106517Y-99048230D02*
X90154136Y-99191087D01*
X90154136Y-99191087D02*
X90725564Y-99762516D01*
X90725564Y-99762516D02*
X90106517Y-99762516D01*
X89487469Y-98762516D02*
X89392231Y-98762516D01*
X89392231Y-98762516D02*
X89296993Y-98810135D01*
X89296993Y-98810135D02*
X89249374Y-98857754D01*
X89249374Y-98857754D02*
X89201755Y-98952992D01*
X89201755Y-98952992D02*
X89154136Y-99143468D01*
X89154136Y-99143468D02*
X89154136Y-99381563D01*
X89154136Y-99381563D02*
X89201755Y-99572039D01*
X89201755Y-99572039D02*
X89249374Y-99667277D01*
X89249374Y-99667277D02*
X89296993Y-99714897D01*
X89296993Y-99714897D02*
X89392231Y-99762516D01*
X89392231Y-99762516D02*
X89487469Y-99762516D01*
X89487469Y-99762516D02*
X89582707Y-99714897D01*
X89582707Y-99714897D02*
X89630326Y-99667277D01*
X89630326Y-99667277D02*
X89677945Y-99572039D01*
X89677945Y-99572039D02*
X89725564Y-99381563D01*
X89725564Y-99381563D02*
X89725564Y-99143468D01*
X89725564Y-99143468D02*
X89677945Y-98952992D01*
X89677945Y-98952992D02*
X89630326Y-98857754D01*
X89630326Y-98857754D02*
X89582707Y-98810135D01*
X89582707Y-98810135D02*
X89487469Y-98762516D01*
X88773183Y-98857754D02*
X88725564Y-98810135D01*
X88725564Y-98810135D02*
X88630326Y-98762516D01*
X88630326Y-98762516D02*
X88392231Y-98762516D01*
X88392231Y-98762516D02*
X88296993Y-98810135D01*
X88296993Y-98810135D02*
X88249374Y-98857754D01*
X88249374Y-98857754D02*
X88201755Y-98952992D01*
X88201755Y-98952992D02*
X88201755Y-99048230D01*
X88201755Y-99048230D02*
X88249374Y-99191087D01*
X88249374Y-99191087D02*
X88820802Y-99762516D01*
X88820802Y-99762516D02*
X88201755Y-99762516D01*
X87344612Y-98762516D02*
X87535088Y-98762516D01*
X87535088Y-98762516D02*
X87630326Y-98810135D01*
X87630326Y-98810135D02*
X87677945Y-98857754D01*
X87677945Y-98857754D02*
X87773183Y-99000611D01*
X87773183Y-99000611D02*
X87820802Y-99191087D01*
X87820802Y-99191087D02*
X87820802Y-99572039D01*
X87820802Y-99572039D02*
X87773183Y-99667277D01*
X87773183Y-99667277D02*
X87725564Y-99714897D01*
X87725564Y-99714897D02*
X87630326Y-99762516D01*
X87630326Y-99762516D02*
X87439850Y-99762516D01*
X87439850Y-99762516D02*
X87344612Y-99714897D01*
X87344612Y-99714897D02*
X87296993Y-99667277D01*
X87296993Y-99667277D02*
X87249374Y-99572039D01*
X87249374Y-99572039D02*
X87249374Y-99333944D01*
X87249374Y-99333944D02*
X87296993Y-99238706D01*
X87296993Y-99238706D02*
X87344612Y-99191087D01*
X87344612Y-99191087D02*
X87439850Y-99143468D01*
X87439850Y-99143468D02*
X87630326Y-99143468D01*
X87630326Y-99143468D02*
X87725564Y-99191087D01*
X87725564Y-99191087D02*
X87773183Y-99238706D01*
X87773183Y-99238706D02*
X87820802Y-99333944D01*
D12*
X169174819Y-78456779D02*
X168174819Y-78456779D01*
X168174819Y-78456779D02*
X168174819Y-78837731D01*
X168174819Y-78837731D02*
X168222438Y-78932969D01*
X168222438Y-78932969D02*
X168270057Y-78980588D01*
X168270057Y-78980588D02*
X168365295Y-79028207D01*
X168365295Y-79028207D02*
X168508152Y-79028207D01*
X168508152Y-79028207D02*
X168603390Y-78980588D01*
X168603390Y-78980588D02*
X168651009Y-78932969D01*
X168651009Y-78932969D02*
X168698628Y-78837731D01*
X168698628Y-78837731D02*
X168698628Y-78456779D01*
X169174819Y-79980588D02*
X169174819Y-79409160D01*
X169174819Y-79694874D02*
X168174819Y-79694874D01*
X168174819Y-79694874D02*
X168317676Y-79599636D01*
X168317676Y-79599636D02*
X168412914Y-79504398D01*
X168412914Y-79504398D02*
X168460533Y-79409160D01*
X163104819Y-76693922D02*
X164104819Y-77027255D01*
X164104819Y-77027255D02*
X163104819Y-77360588D01*
X164009580Y-78265350D02*
X164057200Y-78217731D01*
X164057200Y-78217731D02*
X164104819Y-78074874D01*
X164104819Y-78074874D02*
X164104819Y-77979636D01*
X164104819Y-77979636D02*
X164057200Y-77836779D01*
X164057200Y-77836779D02*
X163961961Y-77741541D01*
X163961961Y-77741541D02*
X163866723Y-77693922D01*
X163866723Y-77693922D02*
X163676247Y-77646303D01*
X163676247Y-77646303D02*
X163533390Y-77646303D01*
X163533390Y-77646303D02*
X163342914Y-77693922D01*
X163342914Y-77693922D02*
X163247676Y-77741541D01*
X163247676Y-77741541D02*
X163152438Y-77836779D01*
X163152438Y-77836779D02*
X163104819Y-77979636D01*
X163104819Y-77979636D02*
X163104819Y-78074874D01*
X163104819Y-78074874D02*
X163152438Y-78217731D01*
X163152438Y-78217731D02*
X163200057Y-78265350D01*
X164009580Y-79265350D02*
X164057200Y-79217731D01*
X164057200Y-79217731D02*
X164104819Y-79074874D01*
X164104819Y-79074874D02*
X164104819Y-78979636D01*
X164104819Y-78979636D02*
X164057200Y-78836779D01*
X164057200Y-78836779D02*
X163961961Y-78741541D01*
X163961961Y-78741541D02*
X163866723Y-78693922D01*
X163866723Y-78693922D02*
X163676247Y-78646303D01*
X163676247Y-78646303D02*
X163533390Y-78646303D01*
X163533390Y-78646303D02*
X163342914Y-78693922D01*
X163342914Y-78693922D02*
X163247676Y-78741541D01*
X163247676Y-78741541D02*
X163152438Y-78836779D01*
X163152438Y-78836779D02*
X163104819Y-78979636D01*
X163104819Y-78979636D02*
X163104819Y-79074874D01*
X163104819Y-79074874D02*
X163152438Y-79217731D01*
X163152438Y-79217731D02*
X163200057Y-79265350D01*
X161574819Y-78456779D02*
X160574819Y-78456779D01*
X160574819Y-78456779D02*
X160574819Y-78837731D01*
X160574819Y-78837731D02*
X160622438Y-78932969D01*
X160622438Y-78932969D02*
X160670057Y-78980588D01*
X160670057Y-78980588D02*
X160765295Y-79028207D01*
X160765295Y-79028207D02*
X160908152Y-79028207D01*
X160908152Y-79028207D02*
X161003390Y-78980588D01*
X161003390Y-78980588D02*
X161051009Y-78932969D01*
X161051009Y-78932969D02*
X161098628Y-78837731D01*
X161098628Y-78837731D02*
X161098628Y-78456779D01*
X160574819Y-79361541D02*
X160574819Y-79980588D01*
X160574819Y-79980588D02*
X160955771Y-79647255D01*
X160955771Y-79647255D02*
X160955771Y-79790112D01*
X160955771Y-79790112D02*
X161003390Y-79885350D01*
X161003390Y-79885350D02*
X161051009Y-79932969D01*
X161051009Y-79932969D02*
X161146247Y-79980588D01*
X161146247Y-79980588D02*
X161384342Y-79980588D01*
X161384342Y-79980588D02*
X161479580Y-79932969D01*
X161479580Y-79932969D02*
X161527200Y-79885350D01*
X161527200Y-79885350D02*
X161574819Y-79790112D01*
X161574819Y-79790112D02*
X161574819Y-79504398D01*
X161574819Y-79504398D02*
X161527200Y-79409160D01*
X161527200Y-79409160D02*
X161479580Y-79361541D01*
X158974819Y-78456779D02*
X157974819Y-78456779D01*
X157974819Y-78456779D02*
X157974819Y-78837731D01*
X157974819Y-78837731D02*
X158022438Y-78932969D01*
X158022438Y-78932969D02*
X158070057Y-78980588D01*
X158070057Y-78980588D02*
X158165295Y-79028207D01*
X158165295Y-79028207D02*
X158308152Y-79028207D01*
X158308152Y-79028207D02*
X158403390Y-78980588D01*
X158403390Y-78980588D02*
X158451009Y-78932969D01*
X158451009Y-78932969D02*
X158498628Y-78837731D01*
X158498628Y-78837731D02*
X158498628Y-78456779D01*
X158070057Y-79409160D02*
X158022438Y-79456779D01*
X158022438Y-79456779D02*
X157974819Y-79552017D01*
X157974819Y-79552017D02*
X157974819Y-79790112D01*
X157974819Y-79790112D02*
X158022438Y-79885350D01*
X158022438Y-79885350D02*
X158070057Y-79932969D01*
X158070057Y-79932969D02*
X158165295Y-79980588D01*
X158165295Y-79980588D02*
X158260533Y-79980588D01*
X158260533Y-79980588D02*
X158403390Y-79932969D01*
X158403390Y-79932969D02*
X158974819Y-79361541D01*
X158974819Y-79361541D02*
X158974819Y-79980588D01*
X165722438Y-78980588D02*
X165674819Y-78885350D01*
X165674819Y-78885350D02*
X165674819Y-78742493D01*
X165674819Y-78742493D02*
X165722438Y-78599636D01*
X165722438Y-78599636D02*
X165817676Y-78504398D01*
X165817676Y-78504398D02*
X165912914Y-78456779D01*
X165912914Y-78456779D02*
X166103390Y-78409160D01*
X166103390Y-78409160D02*
X166246247Y-78409160D01*
X166246247Y-78409160D02*
X166436723Y-78456779D01*
X166436723Y-78456779D02*
X166531961Y-78504398D01*
X166531961Y-78504398D02*
X166627200Y-78599636D01*
X166627200Y-78599636D02*
X166674819Y-78742493D01*
X166674819Y-78742493D02*
X166674819Y-78837731D01*
X166674819Y-78837731D02*
X166627200Y-78980588D01*
X166627200Y-78980588D02*
X166579580Y-79028207D01*
X166579580Y-79028207D02*
X166246247Y-79028207D01*
X166246247Y-79028207D02*
X166246247Y-78837731D01*
X166674819Y-79456779D02*
X165674819Y-79456779D01*
X165674819Y-79456779D02*
X166674819Y-80028207D01*
X166674819Y-80028207D02*
X165674819Y-80028207D01*
X166674819Y-80504398D02*
X165674819Y-80504398D01*
X165674819Y-80504398D02*
X165674819Y-80742493D01*
X165674819Y-80742493D02*
X165722438Y-80885350D01*
X165722438Y-80885350D02*
X165817676Y-80980588D01*
X165817676Y-80980588D02*
X165912914Y-81028207D01*
X165912914Y-81028207D02*
X166103390Y-81075826D01*
X166103390Y-81075826D02*
X166246247Y-81075826D01*
X166246247Y-81075826D02*
X166436723Y-81028207D01*
X166436723Y-81028207D02*
X166531961Y-80980588D01*
X166531961Y-80980588D02*
X166627200Y-80885350D01*
X166627200Y-80885350D02*
X166674819Y-80742493D01*
X166674819Y-80742493D02*
X166674819Y-80504398D01*
X162740476Y-42254819D02*
X163073809Y-41778628D01*
X163311904Y-42254819D02*
X163311904Y-41254819D01*
X163311904Y-41254819D02*
X162930952Y-41254819D01*
X162930952Y-41254819D02*
X162835714Y-41302438D01*
X162835714Y-41302438D02*
X162788095Y-41350057D01*
X162788095Y-41350057D02*
X162740476Y-41445295D01*
X162740476Y-41445295D02*
X162740476Y-41588152D01*
X162740476Y-41588152D02*
X162788095Y-41683390D01*
X162788095Y-41683390D02*
X162835714Y-41731009D01*
X162835714Y-41731009D02*
X162930952Y-41778628D01*
X162930952Y-41778628D02*
X163311904Y-41778628D01*
X162359523Y-41969104D02*
X161883333Y-41969104D01*
X162454761Y-42254819D02*
X162121428Y-41254819D01*
X162121428Y-41254819D02*
X161788095Y-42254819D01*
X161549999Y-41254819D02*
X161311904Y-42254819D01*
X161311904Y-42254819D02*
X161121428Y-41540533D01*
X161121428Y-41540533D02*
X160930952Y-42254819D01*
X160930952Y-42254819D02*
X160692857Y-41254819D01*
X162811904Y-43842438D02*
X162907142Y-43794819D01*
X162907142Y-43794819D02*
X163049999Y-43794819D01*
X163049999Y-43794819D02*
X163192856Y-43842438D01*
X163192856Y-43842438D02*
X163288094Y-43937676D01*
X163288094Y-43937676D02*
X163335713Y-44032914D01*
X163335713Y-44032914D02*
X163383332Y-44223390D01*
X163383332Y-44223390D02*
X163383332Y-44366247D01*
X163383332Y-44366247D02*
X163335713Y-44556723D01*
X163335713Y-44556723D02*
X163288094Y-44651961D01*
X163288094Y-44651961D02*
X163192856Y-44747200D01*
X163192856Y-44747200D02*
X163049999Y-44794819D01*
X163049999Y-44794819D02*
X162954761Y-44794819D01*
X162954761Y-44794819D02*
X162811904Y-44747200D01*
X162811904Y-44747200D02*
X162764285Y-44699580D01*
X162764285Y-44699580D02*
X162764285Y-44366247D01*
X162764285Y-44366247D02*
X162954761Y-44366247D01*
X162335713Y-44794819D02*
X162335713Y-43794819D01*
X162335713Y-43794819D02*
X161764285Y-44794819D01*
X161764285Y-44794819D02*
X161764285Y-43794819D01*
X161288094Y-44794819D02*
X161288094Y-43794819D01*
X161288094Y-43794819D02*
X161049999Y-43794819D01*
X161049999Y-43794819D02*
X160907142Y-43842438D01*
X160907142Y-43842438D02*
X160811904Y-43937676D01*
X160811904Y-43937676D02*
X160764285Y-44032914D01*
X160764285Y-44032914D02*
X160716666Y-44223390D01*
X160716666Y-44223390D02*
X160716666Y-44366247D01*
X160716666Y-44366247D02*
X160764285Y-44556723D01*
X160764285Y-44556723D02*
X160811904Y-44651961D01*
X160811904Y-44651961D02*
X160907142Y-44747200D01*
X160907142Y-44747200D02*
X161049999Y-44794819D01*
X161049999Y-44794819D02*
X161288094Y-44794819D01*
X166278094Y-62574819D02*
X166278094Y-61574819D01*
X166278094Y-61574819D02*
X165897142Y-61574819D01*
X165897142Y-61574819D02*
X165801904Y-61622438D01*
X165801904Y-61622438D02*
X165754285Y-61670057D01*
X165754285Y-61670057D02*
X165706666Y-61765295D01*
X165706666Y-61765295D02*
X165706666Y-61908152D01*
X165706666Y-61908152D02*
X165754285Y-62003390D01*
X165754285Y-62003390D02*
X165801904Y-62051009D01*
X165801904Y-62051009D02*
X165897142Y-62098628D01*
X165897142Y-62098628D02*
X166278094Y-62098628D01*
X164849523Y-61574819D02*
X165039999Y-61574819D01*
X165039999Y-61574819D02*
X165135237Y-61622438D01*
X165135237Y-61622438D02*
X165182856Y-61670057D01*
X165182856Y-61670057D02*
X165278094Y-61812914D01*
X165278094Y-61812914D02*
X165325713Y-62003390D01*
X165325713Y-62003390D02*
X165325713Y-62384342D01*
X165325713Y-62384342D02*
X165278094Y-62479580D01*
X165278094Y-62479580D02*
X165230475Y-62527200D01*
X165230475Y-62527200D02*
X165135237Y-62574819D01*
X165135237Y-62574819D02*
X164944761Y-62574819D01*
X164944761Y-62574819D02*
X164849523Y-62527200D01*
X164849523Y-62527200D02*
X164801904Y-62479580D01*
X164801904Y-62479580D02*
X164754285Y-62384342D01*
X164754285Y-62384342D02*
X164754285Y-62146247D01*
X164754285Y-62146247D02*
X164801904Y-62051009D01*
X164801904Y-62051009D02*
X164849523Y-62003390D01*
X164849523Y-62003390D02*
X164944761Y-61955771D01*
X164944761Y-61955771D02*
X165135237Y-61955771D01*
X165135237Y-61955771D02*
X165230475Y-62003390D01*
X165230475Y-62003390D02*
X165278094Y-62051009D01*
X165278094Y-62051009D02*
X165325713Y-62146247D01*
X166278094Y-57494819D02*
X166278094Y-56494819D01*
X166278094Y-56494819D02*
X165897142Y-56494819D01*
X165897142Y-56494819D02*
X165801904Y-56542438D01*
X165801904Y-56542438D02*
X165754285Y-56590057D01*
X165754285Y-56590057D02*
X165706666Y-56685295D01*
X165706666Y-56685295D02*
X165706666Y-56828152D01*
X165706666Y-56828152D02*
X165754285Y-56923390D01*
X165754285Y-56923390D02*
X165801904Y-56971009D01*
X165801904Y-56971009D02*
X165897142Y-57018628D01*
X165897142Y-57018628D02*
X166278094Y-57018628D01*
X164849523Y-56828152D02*
X164849523Y-57494819D01*
X165087618Y-56447200D02*
X165325713Y-57161485D01*
X165325713Y-57161485D02*
X164706666Y-57161485D01*
X166278094Y-54954819D02*
X166278094Y-53954819D01*
X166278094Y-53954819D02*
X165897142Y-53954819D01*
X165897142Y-53954819D02*
X165801904Y-54002438D01*
X165801904Y-54002438D02*
X165754285Y-54050057D01*
X165754285Y-54050057D02*
X165706666Y-54145295D01*
X165706666Y-54145295D02*
X165706666Y-54288152D01*
X165706666Y-54288152D02*
X165754285Y-54383390D01*
X165754285Y-54383390D02*
X165801904Y-54431009D01*
X165801904Y-54431009D02*
X165897142Y-54478628D01*
X165897142Y-54478628D02*
X166278094Y-54478628D01*
X165373332Y-53954819D02*
X164754285Y-53954819D01*
X164754285Y-53954819D02*
X165087618Y-54335771D01*
X165087618Y-54335771D02*
X164944761Y-54335771D01*
X164944761Y-54335771D02*
X164849523Y-54383390D01*
X164849523Y-54383390D02*
X164801904Y-54431009D01*
X164801904Y-54431009D02*
X164754285Y-54526247D01*
X164754285Y-54526247D02*
X164754285Y-54764342D01*
X164754285Y-54764342D02*
X164801904Y-54859580D01*
X164801904Y-54859580D02*
X164849523Y-54907200D01*
X164849523Y-54907200D02*
X164944761Y-54954819D01*
X164944761Y-54954819D02*
X165230475Y-54954819D01*
X165230475Y-54954819D02*
X165325713Y-54907200D01*
X165325713Y-54907200D02*
X165373332Y-54859580D01*
X166278094Y-67654819D02*
X166278094Y-66654819D01*
X166278094Y-66654819D02*
X165897142Y-66654819D01*
X165897142Y-66654819D02*
X165801904Y-66702438D01*
X165801904Y-66702438D02*
X165754285Y-66750057D01*
X165754285Y-66750057D02*
X165706666Y-66845295D01*
X165706666Y-66845295D02*
X165706666Y-66988152D01*
X165706666Y-66988152D02*
X165754285Y-67083390D01*
X165754285Y-67083390D02*
X165801904Y-67131009D01*
X165801904Y-67131009D02*
X165897142Y-67178628D01*
X165897142Y-67178628D02*
X166278094Y-67178628D01*
X165135237Y-67083390D02*
X165230475Y-67035771D01*
X165230475Y-67035771D02*
X165278094Y-66988152D01*
X165278094Y-66988152D02*
X165325713Y-66892914D01*
X165325713Y-66892914D02*
X165325713Y-66845295D01*
X165325713Y-66845295D02*
X165278094Y-66750057D01*
X165278094Y-66750057D02*
X165230475Y-66702438D01*
X165230475Y-66702438D02*
X165135237Y-66654819D01*
X165135237Y-66654819D02*
X164944761Y-66654819D01*
X164944761Y-66654819D02*
X164849523Y-66702438D01*
X164849523Y-66702438D02*
X164801904Y-66750057D01*
X164801904Y-66750057D02*
X164754285Y-66845295D01*
X164754285Y-66845295D02*
X164754285Y-66892914D01*
X164754285Y-66892914D02*
X164801904Y-66988152D01*
X164801904Y-66988152D02*
X164849523Y-67035771D01*
X164849523Y-67035771D02*
X164944761Y-67083390D01*
X164944761Y-67083390D02*
X165135237Y-67083390D01*
X165135237Y-67083390D02*
X165230475Y-67131009D01*
X165230475Y-67131009D02*
X165278094Y-67178628D01*
X165278094Y-67178628D02*
X165325713Y-67273866D01*
X165325713Y-67273866D02*
X165325713Y-67464342D01*
X165325713Y-67464342D02*
X165278094Y-67559580D01*
X165278094Y-67559580D02*
X165230475Y-67607200D01*
X165230475Y-67607200D02*
X165135237Y-67654819D01*
X165135237Y-67654819D02*
X164944761Y-67654819D01*
X164944761Y-67654819D02*
X164849523Y-67607200D01*
X164849523Y-67607200D02*
X164801904Y-67559580D01*
X164801904Y-67559580D02*
X164754285Y-67464342D01*
X164754285Y-67464342D02*
X164754285Y-67273866D01*
X164754285Y-67273866D02*
X164801904Y-67178628D01*
X164801904Y-67178628D02*
X164849523Y-67131009D01*
X164849523Y-67131009D02*
X164944761Y-67083390D01*
X171642858Y-39709819D02*
X172119048Y-39709819D01*
X172119048Y-39709819D02*
X172119048Y-38709819D01*
X170547619Y-39709819D02*
X170547619Y-38709819D01*
X170119048Y-39709819D02*
X170119048Y-39186009D01*
X170119048Y-39186009D02*
X170166667Y-39090771D01*
X170166667Y-39090771D02*
X170261905Y-39043152D01*
X170261905Y-39043152D02*
X170404762Y-39043152D01*
X170404762Y-39043152D02*
X170500000Y-39090771D01*
X170500000Y-39090771D02*
X170547619Y-39138390D01*
X169214286Y-39709819D02*
X169214286Y-39186009D01*
X169214286Y-39186009D02*
X169261905Y-39090771D01*
X169261905Y-39090771D02*
X169357143Y-39043152D01*
X169357143Y-39043152D02*
X169547619Y-39043152D01*
X169547619Y-39043152D02*
X169642857Y-39090771D01*
X169214286Y-39662200D02*
X169309524Y-39709819D01*
X169309524Y-39709819D02*
X169547619Y-39709819D01*
X169547619Y-39709819D02*
X169642857Y-39662200D01*
X169642857Y-39662200D02*
X169690476Y-39566961D01*
X169690476Y-39566961D02*
X169690476Y-39471723D01*
X169690476Y-39471723D02*
X169642857Y-39376485D01*
X169642857Y-39376485D02*
X169547619Y-39328866D01*
X169547619Y-39328866D02*
X169309524Y-39328866D01*
X169309524Y-39328866D02*
X169214286Y-39281247D01*
X168738095Y-39043152D02*
X168738095Y-39709819D01*
X168738095Y-39138390D02*
X168690476Y-39090771D01*
X168690476Y-39090771D02*
X168595238Y-39043152D01*
X168595238Y-39043152D02*
X168452381Y-39043152D01*
X168452381Y-39043152D02*
X168357143Y-39090771D01*
X168357143Y-39090771D02*
X168309524Y-39186009D01*
X168309524Y-39186009D02*
X168309524Y-39709819D01*
X167404762Y-39709819D02*
X167404762Y-38709819D01*
X167404762Y-39662200D02*
X167500000Y-39709819D01*
X167500000Y-39709819D02*
X167690476Y-39709819D01*
X167690476Y-39709819D02*
X167785714Y-39662200D01*
X167785714Y-39662200D02*
X167833333Y-39614580D01*
X167833333Y-39614580D02*
X167880952Y-39519342D01*
X167880952Y-39519342D02*
X167880952Y-39233628D01*
X167880952Y-39233628D02*
X167833333Y-39138390D01*
X167833333Y-39138390D02*
X167785714Y-39090771D01*
X167785714Y-39090771D02*
X167690476Y-39043152D01*
X167690476Y-39043152D02*
X167500000Y-39043152D01*
X167500000Y-39043152D02*
X167404762Y-39090771D01*
X166166666Y-39709819D02*
X166166666Y-38709819D01*
X166166666Y-39090771D02*
X166071428Y-39043152D01*
X166071428Y-39043152D02*
X165880952Y-39043152D01*
X165880952Y-39043152D02*
X165785714Y-39090771D01*
X165785714Y-39090771D02*
X165738095Y-39138390D01*
X165738095Y-39138390D02*
X165690476Y-39233628D01*
X165690476Y-39233628D02*
X165690476Y-39519342D01*
X165690476Y-39519342D02*
X165738095Y-39614580D01*
X165738095Y-39614580D02*
X165785714Y-39662200D01*
X165785714Y-39662200D02*
X165880952Y-39709819D01*
X165880952Y-39709819D02*
X166071428Y-39709819D01*
X166071428Y-39709819D02*
X166166666Y-39662200D01*
X164833333Y-39709819D02*
X164833333Y-39186009D01*
X164833333Y-39186009D02*
X164880952Y-39090771D01*
X164880952Y-39090771D02*
X164976190Y-39043152D01*
X164976190Y-39043152D02*
X165166666Y-39043152D01*
X165166666Y-39043152D02*
X165261904Y-39090771D01*
X164833333Y-39662200D02*
X164928571Y-39709819D01*
X164928571Y-39709819D02*
X165166666Y-39709819D01*
X165166666Y-39709819D02*
X165261904Y-39662200D01*
X165261904Y-39662200D02*
X165309523Y-39566961D01*
X165309523Y-39566961D02*
X165309523Y-39471723D01*
X165309523Y-39471723D02*
X165261904Y-39376485D01*
X165261904Y-39376485D02*
X165166666Y-39328866D01*
X165166666Y-39328866D02*
X164928571Y-39328866D01*
X164928571Y-39328866D02*
X164833333Y-39281247D01*
X163928571Y-39662200D02*
X164023809Y-39709819D01*
X164023809Y-39709819D02*
X164214285Y-39709819D01*
X164214285Y-39709819D02*
X164309523Y-39662200D01*
X164309523Y-39662200D02*
X164357142Y-39614580D01*
X164357142Y-39614580D02*
X164404761Y-39519342D01*
X164404761Y-39519342D02*
X164404761Y-39233628D01*
X164404761Y-39233628D02*
X164357142Y-39138390D01*
X164357142Y-39138390D02*
X164309523Y-39090771D01*
X164309523Y-39090771D02*
X164214285Y-39043152D01*
X164214285Y-39043152D02*
X164023809Y-39043152D01*
X164023809Y-39043152D02*
X163928571Y-39090771D01*
X163499999Y-39709819D02*
X163499999Y-38709819D01*
X163404761Y-39328866D02*
X163119047Y-39709819D01*
X163119047Y-39043152D02*
X163499999Y-39424104D01*
X161976189Y-39662200D02*
X161880951Y-39709819D01*
X161880951Y-39709819D02*
X161690475Y-39709819D01*
X161690475Y-39709819D02*
X161595237Y-39662200D01*
X161595237Y-39662200D02*
X161547618Y-39566961D01*
X161547618Y-39566961D02*
X161547618Y-39519342D01*
X161547618Y-39519342D02*
X161595237Y-39424104D01*
X161595237Y-39424104D02*
X161690475Y-39376485D01*
X161690475Y-39376485D02*
X161833332Y-39376485D01*
X161833332Y-39376485D02*
X161928570Y-39328866D01*
X161928570Y-39328866D02*
X161976189Y-39233628D01*
X161976189Y-39233628D02*
X161976189Y-39186009D01*
X161976189Y-39186009D02*
X161928570Y-39090771D01*
X161928570Y-39090771D02*
X161833332Y-39043152D01*
X161833332Y-39043152D02*
X161690475Y-39043152D01*
X161690475Y-39043152D02*
X161595237Y-39090771D01*
X161119046Y-39709819D02*
X161119046Y-39043152D01*
X161119046Y-38709819D02*
X161166665Y-38757438D01*
X161166665Y-38757438D02*
X161119046Y-38805057D01*
X161119046Y-38805057D02*
X161071427Y-38757438D01*
X161071427Y-38757438D02*
X161119046Y-38709819D01*
X161119046Y-38709819D02*
X161119046Y-38805057D01*
X160214285Y-39709819D02*
X160214285Y-38709819D01*
X160214285Y-39662200D02*
X160309523Y-39709819D01*
X160309523Y-39709819D02*
X160499999Y-39709819D01*
X160499999Y-39709819D02*
X160595237Y-39662200D01*
X160595237Y-39662200D02*
X160642856Y-39614580D01*
X160642856Y-39614580D02*
X160690475Y-39519342D01*
X160690475Y-39519342D02*
X160690475Y-39233628D01*
X160690475Y-39233628D02*
X160642856Y-39138390D01*
X160642856Y-39138390D02*
X160595237Y-39090771D01*
X160595237Y-39090771D02*
X160499999Y-39043152D01*
X160499999Y-39043152D02*
X160309523Y-39043152D01*
X160309523Y-39043152D02*
X160214285Y-39090771D01*
X159357142Y-39662200D02*
X159452380Y-39709819D01*
X159452380Y-39709819D02*
X159642856Y-39709819D01*
X159642856Y-39709819D02*
X159738094Y-39662200D01*
X159738094Y-39662200D02*
X159785713Y-39566961D01*
X159785713Y-39566961D02*
X159785713Y-39186009D01*
X159785713Y-39186009D02*
X159738094Y-39090771D01*
X159738094Y-39090771D02*
X159642856Y-39043152D01*
X159642856Y-39043152D02*
X159452380Y-39043152D01*
X159452380Y-39043152D02*
X159357142Y-39090771D01*
X159357142Y-39090771D02*
X159309523Y-39186009D01*
X159309523Y-39186009D02*
X159309523Y-39281247D01*
X159309523Y-39281247D02*
X159785713Y-39376485D01*
X157833332Y-40090771D02*
X157880951Y-40043152D01*
X157880951Y-40043152D02*
X157976189Y-39900295D01*
X157976189Y-39900295D02*
X158023808Y-39805057D01*
X158023808Y-39805057D02*
X158071427Y-39662200D01*
X158071427Y-39662200D02*
X158119046Y-39424104D01*
X158119046Y-39424104D02*
X158119046Y-39233628D01*
X158119046Y-39233628D02*
X158071427Y-38995533D01*
X158071427Y-38995533D02*
X158023808Y-38852676D01*
X158023808Y-38852676D02*
X157976189Y-38757438D01*
X157976189Y-38757438D02*
X157880951Y-38614580D01*
X157880951Y-38614580D02*
X157833332Y-38566961D01*
X157452379Y-39709819D02*
X157452379Y-38709819D01*
X157452379Y-38709819D02*
X157119046Y-39424104D01*
X157119046Y-39424104D02*
X156785713Y-38709819D01*
X156785713Y-38709819D02*
X156785713Y-39709819D01*
X155928570Y-38947914D02*
X155928570Y-39709819D01*
X155738094Y-39519342D02*
X155928570Y-39709819D01*
X155928570Y-39709819D02*
X156119046Y-39519342D01*
X155166665Y-40090771D02*
X155119046Y-40043152D01*
X155119046Y-40043152D02*
X155023808Y-39900295D01*
X155023808Y-39900295D02*
X154976189Y-39805057D01*
X154976189Y-39805057D02*
X154928570Y-39662200D01*
X154928570Y-39662200D02*
X154880951Y-39424104D01*
X154880951Y-39424104D02*
X154880951Y-39233628D01*
X154880951Y-39233628D02*
X154928570Y-38995533D01*
X154928570Y-38995533D02*
X154976189Y-38852676D01*
X154976189Y-38852676D02*
X155023808Y-38757438D01*
X155023808Y-38757438D02*
X155119046Y-38614580D01*
X155119046Y-38614580D02*
X155166665Y-38566961D01*
X163383332Y-48874819D02*
X163049999Y-49874819D01*
X163049999Y-49874819D02*
X162716666Y-48874819D01*
X161811904Y-49779580D02*
X161859523Y-49827200D01*
X161859523Y-49827200D02*
X162002380Y-49874819D01*
X162002380Y-49874819D02*
X162097618Y-49874819D01*
X162097618Y-49874819D02*
X162240475Y-49827200D01*
X162240475Y-49827200D02*
X162335713Y-49731961D01*
X162335713Y-49731961D02*
X162383332Y-49636723D01*
X162383332Y-49636723D02*
X162430951Y-49446247D01*
X162430951Y-49446247D02*
X162430951Y-49303390D01*
X162430951Y-49303390D02*
X162383332Y-49112914D01*
X162383332Y-49112914D02*
X162335713Y-49017676D01*
X162335713Y-49017676D02*
X162240475Y-48922438D01*
X162240475Y-48922438D02*
X162097618Y-48874819D01*
X162097618Y-48874819D02*
X162002380Y-48874819D01*
X162002380Y-48874819D02*
X161859523Y-48922438D01*
X161859523Y-48922438D02*
X161811904Y-48970057D01*
X160811904Y-49779580D02*
X160859523Y-49827200D01*
X160859523Y-49827200D02*
X161002380Y-49874819D01*
X161002380Y-49874819D02*
X161097618Y-49874819D01*
X161097618Y-49874819D02*
X161240475Y-49827200D01*
X161240475Y-49827200D02*
X161335713Y-49731961D01*
X161335713Y-49731961D02*
X161383332Y-49636723D01*
X161383332Y-49636723D02*
X161430951Y-49446247D01*
X161430951Y-49446247D02*
X161430951Y-49303390D01*
X161430951Y-49303390D02*
X161383332Y-49112914D01*
X161383332Y-49112914D02*
X161335713Y-49017676D01*
X161335713Y-49017676D02*
X161240475Y-48922438D01*
X161240475Y-48922438D02*
X161097618Y-48874819D01*
X161097618Y-48874819D02*
X161002380Y-48874819D01*
X161002380Y-48874819D02*
X160859523Y-48922438D01*
X160859523Y-48922438D02*
X160811904Y-48970057D01*
X166278094Y-52414819D02*
X166278094Y-51414819D01*
X166278094Y-51414819D02*
X165897142Y-51414819D01*
X165897142Y-51414819D02*
X165801904Y-51462438D01*
X165801904Y-51462438D02*
X165754285Y-51510057D01*
X165754285Y-51510057D02*
X165706666Y-51605295D01*
X165706666Y-51605295D02*
X165706666Y-51748152D01*
X165706666Y-51748152D02*
X165754285Y-51843390D01*
X165754285Y-51843390D02*
X165801904Y-51891009D01*
X165801904Y-51891009D02*
X165897142Y-51938628D01*
X165897142Y-51938628D02*
X166278094Y-51938628D01*
X165325713Y-51510057D02*
X165278094Y-51462438D01*
X165278094Y-51462438D02*
X165182856Y-51414819D01*
X165182856Y-51414819D02*
X164944761Y-51414819D01*
X164944761Y-51414819D02*
X164849523Y-51462438D01*
X164849523Y-51462438D02*
X164801904Y-51510057D01*
X164801904Y-51510057D02*
X164754285Y-51605295D01*
X164754285Y-51605295D02*
X164754285Y-51700533D01*
X164754285Y-51700533D02*
X164801904Y-51843390D01*
X164801904Y-51843390D02*
X165373332Y-52414819D01*
X165373332Y-52414819D02*
X164754285Y-52414819D01*
X166278094Y-42254819D02*
X166278094Y-41254819D01*
X166278094Y-41254819D02*
X165897142Y-41254819D01*
X165897142Y-41254819D02*
X165801904Y-41302438D01*
X165801904Y-41302438D02*
X165754285Y-41350057D01*
X165754285Y-41350057D02*
X165706666Y-41445295D01*
X165706666Y-41445295D02*
X165706666Y-41588152D01*
X165706666Y-41588152D02*
X165754285Y-41683390D01*
X165754285Y-41683390D02*
X165801904Y-41731009D01*
X165801904Y-41731009D02*
X165897142Y-41778628D01*
X165897142Y-41778628D02*
X166278094Y-41778628D01*
X164754285Y-42254819D02*
X165325713Y-42254819D01*
X165039999Y-42254819D02*
X165039999Y-41254819D01*
X165039999Y-41254819D02*
X165135237Y-41397676D01*
X165135237Y-41397676D02*
X165230475Y-41492914D01*
X165230475Y-41492914D02*
X165325713Y-41540533D01*
X163264285Y-60034819D02*
X163264285Y-59034819D01*
X163264285Y-59034819D02*
X162883333Y-59034819D01*
X162883333Y-59034819D02*
X162788095Y-59082438D01*
X162788095Y-59082438D02*
X162740476Y-59130057D01*
X162740476Y-59130057D02*
X162692857Y-59225295D01*
X162692857Y-59225295D02*
X162692857Y-59368152D01*
X162692857Y-59368152D02*
X162740476Y-59463390D01*
X162740476Y-59463390D02*
X162788095Y-59511009D01*
X162788095Y-59511009D02*
X162883333Y-59558628D01*
X162883333Y-59558628D02*
X163264285Y-59558628D01*
X161740476Y-60034819D02*
X162311904Y-60034819D01*
X162026190Y-60034819D02*
X162026190Y-59034819D01*
X162026190Y-59034819D02*
X162121428Y-59177676D01*
X162121428Y-59177676D02*
X162216666Y-59272914D01*
X162216666Y-59272914D02*
X162311904Y-59320533D01*
X161169047Y-59463390D02*
X161264285Y-59415771D01*
X161264285Y-59415771D02*
X161311904Y-59368152D01*
X161311904Y-59368152D02*
X161359523Y-59272914D01*
X161359523Y-59272914D02*
X161359523Y-59225295D01*
X161359523Y-59225295D02*
X161311904Y-59130057D01*
X161311904Y-59130057D02*
X161264285Y-59082438D01*
X161264285Y-59082438D02*
X161169047Y-59034819D01*
X161169047Y-59034819D02*
X160978571Y-59034819D01*
X160978571Y-59034819D02*
X160883333Y-59082438D01*
X160883333Y-59082438D02*
X160835714Y-59130057D01*
X160835714Y-59130057D02*
X160788095Y-59225295D01*
X160788095Y-59225295D02*
X160788095Y-59272914D01*
X160788095Y-59272914D02*
X160835714Y-59368152D01*
X160835714Y-59368152D02*
X160883333Y-59415771D01*
X160883333Y-59415771D02*
X160978571Y-59463390D01*
X160978571Y-59463390D02*
X161169047Y-59463390D01*
X161169047Y-59463390D02*
X161264285Y-59511009D01*
X161264285Y-59511009D02*
X161311904Y-59558628D01*
X161311904Y-59558628D02*
X161359523Y-59653866D01*
X161359523Y-59653866D02*
X161359523Y-59844342D01*
X161359523Y-59844342D02*
X161311904Y-59939580D01*
X161311904Y-59939580D02*
X161264285Y-59987200D01*
X161264285Y-59987200D02*
X161169047Y-60034819D01*
X161169047Y-60034819D02*
X160978571Y-60034819D01*
X160978571Y-60034819D02*
X160883333Y-59987200D01*
X160883333Y-59987200D02*
X160835714Y-59939580D01*
X160835714Y-59939580D02*
X160788095Y-59844342D01*
X160788095Y-59844342D02*
X160788095Y-59653866D01*
X160788095Y-59653866D02*
X160835714Y-59558628D01*
X160835714Y-59558628D02*
X160883333Y-59511009D01*
X160883333Y-59511009D02*
X160978571Y-59463390D01*
X165711904Y-48922438D02*
X165807142Y-48874819D01*
X165807142Y-48874819D02*
X165949999Y-48874819D01*
X165949999Y-48874819D02*
X166092856Y-48922438D01*
X166092856Y-48922438D02*
X166188094Y-49017676D01*
X166188094Y-49017676D02*
X166235713Y-49112914D01*
X166235713Y-49112914D02*
X166283332Y-49303390D01*
X166283332Y-49303390D02*
X166283332Y-49446247D01*
X166283332Y-49446247D02*
X166235713Y-49636723D01*
X166235713Y-49636723D02*
X166188094Y-49731961D01*
X166188094Y-49731961D02*
X166092856Y-49827200D01*
X166092856Y-49827200D02*
X165949999Y-49874819D01*
X165949999Y-49874819D02*
X165854761Y-49874819D01*
X165854761Y-49874819D02*
X165711904Y-49827200D01*
X165711904Y-49827200D02*
X165664285Y-49779580D01*
X165664285Y-49779580D02*
X165664285Y-49446247D01*
X165664285Y-49446247D02*
X165854761Y-49446247D01*
X165235713Y-49874819D02*
X165235713Y-48874819D01*
X165235713Y-48874819D02*
X164664285Y-49874819D01*
X164664285Y-49874819D02*
X164664285Y-48874819D01*
X164188094Y-49874819D02*
X164188094Y-48874819D01*
X164188094Y-48874819D02*
X163949999Y-48874819D01*
X163949999Y-48874819D02*
X163807142Y-48922438D01*
X163807142Y-48922438D02*
X163711904Y-49017676D01*
X163711904Y-49017676D02*
X163664285Y-49112914D01*
X163664285Y-49112914D02*
X163616666Y-49303390D01*
X163616666Y-49303390D02*
X163616666Y-49446247D01*
X163616666Y-49446247D02*
X163664285Y-49636723D01*
X163664285Y-49636723D02*
X163711904Y-49731961D01*
X163711904Y-49731961D02*
X163807142Y-49827200D01*
X163807142Y-49827200D02*
X163949999Y-49874819D01*
X163949999Y-49874819D02*
X164188094Y-49874819D01*
X163264285Y-65114819D02*
X163264285Y-64114819D01*
X163264285Y-64114819D02*
X162883333Y-64114819D01*
X162883333Y-64114819D02*
X162788095Y-64162438D01*
X162788095Y-64162438D02*
X162740476Y-64210057D01*
X162740476Y-64210057D02*
X162692857Y-64305295D01*
X162692857Y-64305295D02*
X162692857Y-64448152D01*
X162692857Y-64448152D02*
X162740476Y-64543390D01*
X162740476Y-64543390D02*
X162788095Y-64591009D01*
X162788095Y-64591009D02*
X162883333Y-64638628D01*
X162883333Y-64638628D02*
X163264285Y-64638628D01*
X161740476Y-65114819D02*
X162311904Y-65114819D01*
X162026190Y-65114819D02*
X162026190Y-64114819D01*
X162026190Y-64114819D02*
X162121428Y-64257676D01*
X162121428Y-64257676D02*
X162216666Y-64352914D01*
X162216666Y-64352914D02*
X162311904Y-64400533D01*
X160883333Y-64448152D02*
X160883333Y-65114819D01*
X161121428Y-64067200D02*
X161359523Y-64781485D01*
X161359523Y-64781485D02*
X160740476Y-64781485D01*
X166278094Y-65114819D02*
X166278094Y-64114819D01*
X166278094Y-64114819D02*
X165897142Y-64114819D01*
X165897142Y-64114819D02*
X165801904Y-64162438D01*
X165801904Y-64162438D02*
X165754285Y-64210057D01*
X165754285Y-64210057D02*
X165706666Y-64305295D01*
X165706666Y-64305295D02*
X165706666Y-64448152D01*
X165706666Y-64448152D02*
X165754285Y-64543390D01*
X165754285Y-64543390D02*
X165801904Y-64591009D01*
X165801904Y-64591009D02*
X165897142Y-64638628D01*
X165897142Y-64638628D02*
X166278094Y-64638628D01*
X165373332Y-64114819D02*
X164706666Y-64114819D01*
X164706666Y-64114819D02*
X165135237Y-65114819D01*
X163264285Y-57494819D02*
X163264285Y-56494819D01*
X163264285Y-56494819D02*
X162883333Y-56494819D01*
X162883333Y-56494819D02*
X162788095Y-56542438D01*
X162788095Y-56542438D02*
X162740476Y-56590057D01*
X162740476Y-56590057D02*
X162692857Y-56685295D01*
X162692857Y-56685295D02*
X162692857Y-56828152D01*
X162692857Y-56828152D02*
X162740476Y-56923390D01*
X162740476Y-56923390D02*
X162788095Y-56971009D01*
X162788095Y-56971009D02*
X162883333Y-57018628D01*
X162883333Y-57018628D02*
X163264285Y-57018628D01*
X161740476Y-57494819D02*
X162311904Y-57494819D01*
X162026190Y-57494819D02*
X162026190Y-56494819D01*
X162026190Y-56494819D02*
X162121428Y-56637676D01*
X162121428Y-56637676D02*
X162216666Y-56732914D01*
X162216666Y-56732914D02*
X162311904Y-56780533D01*
X161264285Y-57494819D02*
X161073809Y-57494819D01*
X161073809Y-57494819D02*
X160978571Y-57447200D01*
X160978571Y-57447200D02*
X160930952Y-57399580D01*
X160930952Y-57399580D02*
X160835714Y-57256723D01*
X160835714Y-57256723D02*
X160788095Y-57066247D01*
X160788095Y-57066247D02*
X160788095Y-56685295D01*
X160788095Y-56685295D02*
X160835714Y-56590057D01*
X160835714Y-56590057D02*
X160883333Y-56542438D01*
X160883333Y-56542438D02*
X160978571Y-56494819D01*
X160978571Y-56494819D02*
X161169047Y-56494819D01*
X161169047Y-56494819D02*
X161264285Y-56542438D01*
X161264285Y-56542438D02*
X161311904Y-56590057D01*
X161311904Y-56590057D02*
X161359523Y-56685295D01*
X161359523Y-56685295D02*
X161359523Y-56923390D01*
X161359523Y-56923390D02*
X161311904Y-57018628D01*
X161311904Y-57018628D02*
X161264285Y-57066247D01*
X161264285Y-57066247D02*
X161169047Y-57113866D01*
X161169047Y-57113866D02*
X160978571Y-57113866D01*
X160978571Y-57113866D02*
X160883333Y-57066247D01*
X160883333Y-57066247D02*
X160835714Y-57018628D01*
X160835714Y-57018628D02*
X160788095Y-56923390D01*
X166278094Y-60034819D02*
X166278094Y-59034819D01*
X166278094Y-59034819D02*
X165897142Y-59034819D01*
X165897142Y-59034819D02*
X165801904Y-59082438D01*
X165801904Y-59082438D02*
X165754285Y-59130057D01*
X165754285Y-59130057D02*
X165706666Y-59225295D01*
X165706666Y-59225295D02*
X165706666Y-59368152D01*
X165706666Y-59368152D02*
X165754285Y-59463390D01*
X165754285Y-59463390D02*
X165801904Y-59511009D01*
X165801904Y-59511009D02*
X165897142Y-59558628D01*
X165897142Y-59558628D02*
X166278094Y-59558628D01*
X164801904Y-59034819D02*
X165278094Y-59034819D01*
X165278094Y-59034819D02*
X165325713Y-59511009D01*
X165325713Y-59511009D02*
X165278094Y-59463390D01*
X165278094Y-59463390D02*
X165182856Y-59415771D01*
X165182856Y-59415771D02*
X164944761Y-59415771D01*
X164944761Y-59415771D02*
X164849523Y-59463390D01*
X164849523Y-59463390D02*
X164801904Y-59511009D01*
X164801904Y-59511009D02*
X164754285Y-59606247D01*
X164754285Y-59606247D02*
X164754285Y-59844342D01*
X164754285Y-59844342D02*
X164801904Y-59939580D01*
X164801904Y-59939580D02*
X164849523Y-59987200D01*
X164849523Y-59987200D02*
X164944761Y-60034819D01*
X164944761Y-60034819D02*
X165182856Y-60034819D01*
X165182856Y-60034819D02*
X165278094Y-59987200D01*
X165278094Y-59987200D02*
X165325713Y-59939580D01*
X162597619Y-47334819D02*
X162930952Y-46858628D01*
X163169047Y-47334819D02*
X163169047Y-46334819D01*
X163169047Y-46334819D02*
X162788095Y-46334819D01*
X162788095Y-46334819D02*
X162692857Y-46382438D01*
X162692857Y-46382438D02*
X162645238Y-46430057D01*
X162645238Y-46430057D02*
X162597619Y-46525295D01*
X162597619Y-46525295D02*
X162597619Y-46668152D01*
X162597619Y-46668152D02*
X162645238Y-46763390D01*
X162645238Y-46763390D02*
X162692857Y-46811009D01*
X162692857Y-46811009D02*
X162788095Y-46858628D01*
X162788095Y-46858628D02*
X163169047Y-46858628D01*
X162216666Y-47287200D02*
X162073809Y-47334819D01*
X162073809Y-47334819D02*
X161835714Y-47334819D01*
X161835714Y-47334819D02*
X161740476Y-47287200D01*
X161740476Y-47287200D02*
X161692857Y-47239580D01*
X161692857Y-47239580D02*
X161645238Y-47144342D01*
X161645238Y-47144342D02*
X161645238Y-47049104D01*
X161645238Y-47049104D02*
X161692857Y-46953866D01*
X161692857Y-46953866D02*
X161740476Y-46906247D01*
X161740476Y-46906247D02*
X161835714Y-46858628D01*
X161835714Y-46858628D02*
X162026190Y-46811009D01*
X162026190Y-46811009D02*
X162121428Y-46763390D01*
X162121428Y-46763390D02*
X162169047Y-46715771D01*
X162169047Y-46715771D02*
X162216666Y-46620533D01*
X162216666Y-46620533D02*
X162216666Y-46525295D01*
X162216666Y-46525295D02*
X162169047Y-46430057D01*
X162169047Y-46430057D02*
X162121428Y-46382438D01*
X162121428Y-46382438D02*
X162026190Y-46334819D01*
X162026190Y-46334819D02*
X161788095Y-46334819D01*
X161788095Y-46334819D02*
X161645238Y-46382438D01*
X161359523Y-46334819D02*
X160788095Y-46334819D01*
X161073809Y-47334819D02*
X161073809Y-46334819D01*
X165711904Y-46382438D02*
X165807142Y-46334819D01*
X165807142Y-46334819D02*
X165949999Y-46334819D01*
X165949999Y-46334819D02*
X166092856Y-46382438D01*
X166092856Y-46382438D02*
X166188094Y-46477676D01*
X166188094Y-46477676D02*
X166235713Y-46572914D01*
X166235713Y-46572914D02*
X166283332Y-46763390D01*
X166283332Y-46763390D02*
X166283332Y-46906247D01*
X166283332Y-46906247D02*
X166235713Y-47096723D01*
X166235713Y-47096723D02*
X166188094Y-47191961D01*
X166188094Y-47191961D02*
X166092856Y-47287200D01*
X166092856Y-47287200D02*
X165949999Y-47334819D01*
X165949999Y-47334819D02*
X165854761Y-47334819D01*
X165854761Y-47334819D02*
X165711904Y-47287200D01*
X165711904Y-47287200D02*
X165664285Y-47239580D01*
X165664285Y-47239580D02*
X165664285Y-46906247D01*
X165664285Y-46906247D02*
X165854761Y-46906247D01*
X165235713Y-47334819D02*
X165235713Y-46334819D01*
X165235713Y-46334819D02*
X164664285Y-47334819D01*
X164664285Y-47334819D02*
X164664285Y-46334819D01*
X164188094Y-47334819D02*
X164188094Y-46334819D01*
X164188094Y-46334819D02*
X163949999Y-46334819D01*
X163949999Y-46334819D02*
X163807142Y-46382438D01*
X163807142Y-46382438D02*
X163711904Y-46477676D01*
X163711904Y-46477676D02*
X163664285Y-46572914D01*
X163664285Y-46572914D02*
X163616666Y-46763390D01*
X163616666Y-46763390D02*
X163616666Y-46906247D01*
X163616666Y-46906247D02*
X163664285Y-47096723D01*
X163664285Y-47096723D02*
X163711904Y-47191961D01*
X163711904Y-47191961D02*
X163807142Y-47287200D01*
X163807142Y-47287200D02*
X163949999Y-47334819D01*
X163949999Y-47334819D02*
X164188094Y-47334819D01*
X163264285Y-67654819D02*
X163264285Y-66654819D01*
X163264285Y-66654819D02*
X162883333Y-66654819D01*
X162883333Y-66654819D02*
X162788095Y-66702438D01*
X162788095Y-66702438D02*
X162740476Y-66750057D01*
X162740476Y-66750057D02*
X162692857Y-66845295D01*
X162692857Y-66845295D02*
X162692857Y-66988152D01*
X162692857Y-66988152D02*
X162740476Y-67083390D01*
X162740476Y-67083390D02*
X162788095Y-67131009D01*
X162788095Y-67131009D02*
X162883333Y-67178628D01*
X162883333Y-67178628D02*
X163264285Y-67178628D01*
X161740476Y-67654819D02*
X162311904Y-67654819D01*
X162026190Y-67654819D02*
X162026190Y-66654819D01*
X162026190Y-66654819D02*
X162121428Y-66797676D01*
X162121428Y-66797676D02*
X162216666Y-66892914D01*
X162216666Y-66892914D02*
X162311904Y-66940533D01*
X160883333Y-66654819D02*
X161073809Y-66654819D01*
X161073809Y-66654819D02*
X161169047Y-66702438D01*
X161169047Y-66702438D02*
X161216666Y-66750057D01*
X161216666Y-66750057D02*
X161311904Y-66892914D01*
X161311904Y-66892914D02*
X161359523Y-67083390D01*
X161359523Y-67083390D02*
X161359523Y-67464342D01*
X161359523Y-67464342D02*
X161311904Y-67559580D01*
X161311904Y-67559580D02*
X161264285Y-67607200D01*
X161264285Y-67607200D02*
X161169047Y-67654819D01*
X161169047Y-67654819D02*
X160978571Y-67654819D01*
X160978571Y-67654819D02*
X160883333Y-67607200D01*
X160883333Y-67607200D02*
X160835714Y-67559580D01*
X160835714Y-67559580D02*
X160788095Y-67464342D01*
X160788095Y-67464342D02*
X160788095Y-67226247D01*
X160788095Y-67226247D02*
X160835714Y-67131009D01*
X160835714Y-67131009D02*
X160883333Y-67083390D01*
X160883333Y-67083390D02*
X160978571Y-67035771D01*
X160978571Y-67035771D02*
X161169047Y-67035771D01*
X161169047Y-67035771D02*
X161264285Y-67083390D01*
X161264285Y-67083390D02*
X161311904Y-67131009D01*
X161311904Y-67131009D02*
X161359523Y-67226247D01*
X163264285Y-54954819D02*
X163264285Y-53954819D01*
X163264285Y-53954819D02*
X162883333Y-53954819D01*
X162883333Y-53954819D02*
X162788095Y-54002438D01*
X162788095Y-54002438D02*
X162740476Y-54050057D01*
X162740476Y-54050057D02*
X162692857Y-54145295D01*
X162692857Y-54145295D02*
X162692857Y-54288152D01*
X162692857Y-54288152D02*
X162740476Y-54383390D01*
X162740476Y-54383390D02*
X162788095Y-54431009D01*
X162788095Y-54431009D02*
X162883333Y-54478628D01*
X162883333Y-54478628D02*
X163264285Y-54478628D01*
X162311904Y-54050057D02*
X162264285Y-54002438D01*
X162264285Y-54002438D02*
X162169047Y-53954819D01*
X162169047Y-53954819D02*
X161930952Y-53954819D01*
X161930952Y-53954819D02*
X161835714Y-54002438D01*
X161835714Y-54002438D02*
X161788095Y-54050057D01*
X161788095Y-54050057D02*
X161740476Y-54145295D01*
X161740476Y-54145295D02*
X161740476Y-54240533D01*
X161740476Y-54240533D02*
X161788095Y-54383390D01*
X161788095Y-54383390D02*
X162359523Y-54954819D01*
X162359523Y-54954819D02*
X161740476Y-54954819D01*
X161121428Y-53954819D02*
X161026190Y-53954819D01*
X161026190Y-53954819D02*
X160930952Y-54002438D01*
X160930952Y-54002438D02*
X160883333Y-54050057D01*
X160883333Y-54050057D02*
X160835714Y-54145295D01*
X160835714Y-54145295D02*
X160788095Y-54335771D01*
X160788095Y-54335771D02*
X160788095Y-54573866D01*
X160788095Y-54573866D02*
X160835714Y-54764342D01*
X160835714Y-54764342D02*
X160883333Y-54859580D01*
X160883333Y-54859580D02*
X160930952Y-54907200D01*
X160930952Y-54907200D02*
X161026190Y-54954819D01*
X161026190Y-54954819D02*
X161121428Y-54954819D01*
X161121428Y-54954819D02*
X161216666Y-54907200D01*
X161216666Y-54907200D02*
X161264285Y-54859580D01*
X161264285Y-54859580D02*
X161311904Y-54764342D01*
X161311904Y-54764342D02*
X161359523Y-54573866D01*
X161359523Y-54573866D02*
X161359523Y-54335771D01*
X161359523Y-54335771D02*
X161311904Y-54145295D01*
X161311904Y-54145295D02*
X161264285Y-54050057D01*
X161264285Y-54050057D02*
X161216666Y-54002438D01*
X161216666Y-54002438D02*
X161121428Y-53954819D01*
X163264285Y-62574819D02*
X163264285Y-61574819D01*
X163264285Y-61574819D02*
X162883333Y-61574819D01*
X162883333Y-61574819D02*
X162788095Y-61622438D01*
X162788095Y-61622438D02*
X162740476Y-61670057D01*
X162740476Y-61670057D02*
X162692857Y-61765295D01*
X162692857Y-61765295D02*
X162692857Y-61908152D01*
X162692857Y-61908152D02*
X162740476Y-62003390D01*
X162740476Y-62003390D02*
X162788095Y-62051009D01*
X162788095Y-62051009D02*
X162883333Y-62098628D01*
X162883333Y-62098628D02*
X163264285Y-62098628D01*
X161740476Y-62574819D02*
X162311904Y-62574819D01*
X162026190Y-62574819D02*
X162026190Y-61574819D01*
X162026190Y-61574819D02*
X162121428Y-61717676D01*
X162121428Y-61717676D02*
X162216666Y-61812914D01*
X162216666Y-61812914D02*
X162311904Y-61860533D01*
X160835714Y-61574819D02*
X161311904Y-61574819D01*
X161311904Y-61574819D02*
X161359523Y-62051009D01*
X161359523Y-62051009D02*
X161311904Y-62003390D01*
X161311904Y-62003390D02*
X161216666Y-61955771D01*
X161216666Y-61955771D02*
X160978571Y-61955771D01*
X160978571Y-61955771D02*
X160883333Y-62003390D01*
X160883333Y-62003390D02*
X160835714Y-62051009D01*
X160835714Y-62051009D02*
X160788095Y-62146247D01*
X160788095Y-62146247D02*
X160788095Y-62384342D01*
X160788095Y-62384342D02*
X160835714Y-62479580D01*
X160835714Y-62479580D02*
X160883333Y-62527200D01*
X160883333Y-62527200D02*
X160978571Y-62574819D01*
X160978571Y-62574819D02*
X161216666Y-62574819D01*
X161216666Y-62574819D02*
X161311904Y-62527200D01*
X161311904Y-62527200D02*
X161359523Y-62479580D01*
X166278094Y-70194819D02*
X166278094Y-69194819D01*
X166278094Y-69194819D02*
X165897142Y-69194819D01*
X165897142Y-69194819D02*
X165801904Y-69242438D01*
X165801904Y-69242438D02*
X165754285Y-69290057D01*
X165754285Y-69290057D02*
X165706666Y-69385295D01*
X165706666Y-69385295D02*
X165706666Y-69528152D01*
X165706666Y-69528152D02*
X165754285Y-69623390D01*
X165754285Y-69623390D02*
X165801904Y-69671009D01*
X165801904Y-69671009D02*
X165897142Y-69718628D01*
X165897142Y-69718628D02*
X166278094Y-69718628D01*
X165230475Y-70194819D02*
X165039999Y-70194819D01*
X165039999Y-70194819D02*
X164944761Y-70147200D01*
X164944761Y-70147200D02*
X164897142Y-70099580D01*
X164897142Y-70099580D02*
X164801904Y-69956723D01*
X164801904Y-69956723D02*
X164754285Y-69766247D01*
X164754285Y-69766247D02*
X164754285Y-69385295D01*
X164754285Y-69385295D02*
X164801904Y-69290057D01*
X164801904Y-69290057D02*
X164849523Y-69242438D01*
X164849523Y-69242438D02*
X164944761Y-69194819D01*
X164944761Y-69194819D02*
X165135237Y-69194819D01*
X165135237Y-69194819D02*
X165230475Y-69242438D01*
X165230475Y-69242438D02*
X165278094Y-69290057D01*
X165278094Y-69290057D02*
X165325713Y-69385295D01*
X165325713Y-69385295D02*
X165325713Y-69623390D01*
X165325713Y-69623390D02*
X165278094Y-69718628D01*
X165278094Y-69718628D02*
X165230475Y-69766247D01*
X165230475Y-69766247D02*
X165135237Y-69813866D01*
X165135237Y-69813866D02*
X164944761Y-69813866D01*
X164944761Y-69813866D02*
X164849523Y-69766247D01*
X164849523Y-69766247D02*
X164801904Y-69718628D01*
X164801904Y-69718628D02*
X164754285Y-69623390D01*
X163264285Y-70194819D02*
X163264285Y-69194819D01*
X163264285Y-69194819D02*
X162883333Y-69194819D01*
X162883333Y-69194819D02*
X162788095Y-69242438D01*
X162788095Y-69242438D02*
X162740476Y-69290057D01*
X162740476Y-69290057D02*
X162692857Y-69385295D01*
X162692857Y-69385295D02*
X162692857Y-69528152D01*
X162692857Y-69528152D02*
X162740476Y-69623390D01*
X162740476Y-69623390D02*
X162788095Y-69671009D01*
X162788095Y-69671009D02*
X162883333Y-69718628D01*
X162883333Y-69718628D02*
X163264285Y-69718628D01*
X161740476Y-70194819D02*
X162311904Y-70194819D01*
X162026190Y-70194819D02*
X162026190Y-69194819D01*
X162026190Y-69194819D02*
X162121428Y-69337676D01*
X162121428Y-69337676D02*
X162216666Y-69432914D01*
X162216666Y-69432914D02*
X162311904Y-69480533D01*
X161121428Y-69194819D02*
X161026190Y-69194819D01*
X161026190Y-69194819D02*
X160930952Y-69242438D01*
X160930952Y-69242438D02*
X160883333Y-69290057D01*
X160883333Y-69290057D02*
X160835714Y-69385295D01*
X160835714Y-69385295D02*
X160788095Y-69575771D01*
X160788095Y-69575771D02*
X160788095Y-69813866D01*
X160788095Y-69813866D02*
X160835714Y-70004342D01*
X160835714Y-70004342D02*
X160883333Y-70099580D01*
X160883333Y-70099580D02*
X160930952Y-70147200D01*
X160930952Y-70147200D02*
X161026190Y-70194819D01*
X161026190Y-70194819D02*
X161121428Y-70194819D01*
X161121428Y-70194819D02*
X161216666Y-70147200D01*
X161216666Y-70147200D02*
X161264285Y-70099580D01*
X161264285Y-70099580D02*
X161311904Y-70004342D01*
X161311904Y-70004342D02*
X161359523Y-69813866D01*
X161359523Y-69813866D02*
X161359523Y-69575771D01*
X161359523Y-69575771D02*
X161311904Y-69385295D01*
X161311904Y-69385295D02*
X161264285Y-69290057D01*
X161264285Y-69290057D02*
X161216666Y-69242438D01*
X161216666Y-69242438D02*
X161121428Y-69194819D01*
X163264285Y-52414819D02*
X163264285Y-51414819D01*
X163264285Y-51414819D02*
X162883333Y-51414819D01*
X162883333Y-51414819D02*
X162788095Y-51462438D01*
X162788095Y-51462438D02*
X162740476Y-51510057D01*
X162740476Y-51510057D02*
X162692857Y-51605295D01*
X162692857Y-51605295D02*
X162692857Y-51748152D01*
X162692857Y-51748152D02*
X162740476Y-51843390D01*
X162740476Y-51843390D02*
X162788095Y-51891009D01*
X162788095Y-51891009D02*
X162883333Y-51938628D01*
X162883333Y-51938628D02*
X163264285Y-51938628D01*
X162311904Y-51510057D02*
X162264285Y-51462438D01*
X162264285Y-51462438D02*
X162169047Y-51414819D01*
X162169047Y-51414819D02*
X161930952Y-51414819D01*
X161930952Y-51414819D02*
X161835714Y-51462438D01*
X161835714Y-51462438D02*
X161788095Y-51510057D01*
X161788095Y-51510057D02*
X161740476Y-51605295D01*
X161740476Y-51605295D02*
X161740476Y-51700533D01*
X161740476Y-51700533D02*
X161788095Y-51843390D01*
X161788095Y-51843390D02*
X162359523Y-52414819D01*
X162359523Y-52414819D02*
X161740476Y-52414819D01*
X160788095Y-52414819D02*
X161359523Y-52414819D01*
X161073809Y-52414819D02*
X161073809Y-51414819D01*
X161073809Y-51414819D02*
X161169047Y-51557676D01*
X161169047Y-51557676D02*
X161264285Y-51652914D01*
X161264285Y-51652914D02*
X161359523Y-51700533D01*
X166278094Y-44794819D02*
X166278094Y-43794819D01*
X166278094Y-43794819D02*
X165897142Y-43794819D01*
X165897142Y-43794819D02*
X165801904Y-43842438D01*
X165801904Y-43842438D02*
X165754285Y-43890057D01*
X165754285Y-43890057D02*
X165706666Y-43985295D01*
X165706666Y-43985295D02*
X165706666Y-44128152D01*
X165706666Y-44128152D02*
X165754285Y-44223390D01*
X165754285Y-44223390D02*
X165801904Y-44271009D01*
X165801904Y-44271009D02*
X165897142Y-44318628D01*
X165897142Y-44318628D02*
X166278094Y-44318628D01*
X165087618Y-43794819D02*
X164992380Y-43794819D01*
X164992380Y-43794819D02*
X164897142Y-43842438D01*
X164897142Y-43842438D02*
X164849523Y-43890057D01*
X164849523Y-43890057D02*
X164801904Y-43985295D01*
X164801904Y-43985295D02*
X164754285Y-44175771D01*
X164754285Y-44175771D02*
X164754285Y-44413866D01*
X164754285Y-44413866D02*
X164801904Y-44604342D01*
X164801904Y-44604342D02*
X164849523Y-44699580D01*
X164849523Y-44699580D02*
X164897142Y-44747200D01*
X164897142Y-44747200D02*
X164992380Y-44794819D01*
X164992380Y-44794819D02*
X165087618Y-44794819D01*
X165087618Y-44794819D02*
X165182856Y-44747200D01*
X165182856Y-44747200D02*
X165230475Y-44699580D01*
X165230475Y-44699580D02*
X165278094Y-44604342D01*
X165278094Y-44604342D02*
X165325713Y-44413866D01*
X165325713Y-44413866D02*
X165325713Y-44175771D01*
X165325713Y-44175771D02*
X165278094Y-43985295D01*
X165278094Y-43985295D02*
X165230475Y-43890057D01*
X165230475Y-43890057D02*
X165182856Y-43842438D01*
X165182856Y-43842438D02*
X165087618Y-43794819D01*
D13*
%TO.C,D1*%
X49250000Y-85900000D02*
X49650000Y-85900000D01*
X49650000Y-85900000D02*
X49650000Y-85350000D01*
X49650000Y-85900000D02*
X49650000Y-86450000D01*
X49650000Y-85900000D02*
X50250000Y-85500000D01*
X50250000Y-85500000D02*
X50250000Y-86300000D01*
X50250000Y-85900000D02*
X50750000Y-85900000D01*
X50250000Y-86300000D02*
X49650000Y-85900000D01*
%TO.C,D14*%
X123250000Y-49900000D02*
X123650000Y-49900000D01*
X123650000Y-49900000D02*
X123650000Y-49350000D01*
X123650000Y-49900000D02*
X123650000Y-50450000D01*
X123650000Y-49900000D02*
X124250000Y-49500000D01*
X124250000Y-49500000D02*
X124250000Y-50300000D01*
X124250000Y-49900000D02*
X124750000Y-49900000D01*
X124250000Y-50300000D02*
X123650000Y-49900000D01*
%TO.C,D16*%
X141750000Y-67400000D02*
X142150000Y-67400000D01*
X142150000Y-67400000D02*
X142150000Y-66850000D01*
X142150000Y-67400000D02*
X142150000Y-67950000D01*
X142150000Y-67400000D02*
X142750000Y-67000000D01*
X142750000Y-67000000D02*
X142750000Y-67800000D01*
X142750000Y-67400000D02*
X143250000Y-67400000D01*
X142750000Y-67800000D02*
X142150000Y-67400000D01*
%TO.C,D7*%
X86250000Y-66400000D02*
X86650000Y-66400000D01*
X86650000Y-66400000D02*
X86650000Y-65850000D01*
X86650000Y-66400000D02*
X86650000Y-66950000D01*
X86650000Y-66400000D02*
X87250000Y-66000000D01*
X87250000Y-66000000D02*
X87250000Y-66800000D01*
X87250000Y-66400000D02*
X87750000Y-66400000D01*
X87250000Y-66800000D02*
X86650000Y-66400000D01*
%TO.C,D9*%
X104750000Y-78900000D02*
X105150000Y-78900000D01*
X105150000Y-78900000D02*
X105150000Y-78350000D01*
X105150000Y-78900000D02*
X105150000Y-79450000D01*
X105150000Y-78900000D02*
X105750000Y-78500000D01*
X105750000Y-78500000D02*
X105750000Y-79300000D01*
X105750000Y-78900000D02*
X106250000Y-78900000D01*
X105750000Y-79300000D02*
X105150000Y-78900000D01*
%TO.C,D19*%
X154791441Y-112021842D02*
X155150959Y-112197189D01*
X155150959Y-112197189D02*
X154909855Y-112691526D01*
X155150959Y-112197189D02*
X155392063Y-111702852D01*
X155150959Y-112197189D02*
X155865584Y-112100694D01*
X155514887Y-112819729D02*
X155150959Y-112197189D01*
X155690236Y-112460212D02*
X156139633Y-112679396D01*
X155865584Y-112100694D02*
X155514887Y-112819729D01*
%TO.C,D18*%
X135170990Y-104718110D02*
X135564913Y-104787569D01*
X135564913Y-104787569D02*
X135469407Y-105329213D01*
X135564913Y-104787569D02*
X135660420Y-104245925D01*
X135564913Y-104787569D02*
X136225257Y-104497835D01*
X136086339Y-105285681D02*
X135564913Y-104787569D01*
X136155798Y-104891758D02*
X136648202Y-104978582D01*
X136225257Y-104497835D02*
X136086339Y-105285681D01*
%TO.C,D5*%
X67750000Y-61900000D02*
X68150000Y-61900000D01*
X68150000Y-61900000D02*
X68150000Y-61350000D01*
X68150000Y-61900000D02*
X68150000Y-62450000D01*
X68150000Y-61900000D02*
X68750000Y-61500000D01*
X68750000Y-61500000D02*
X68750000Y-62300000D01*
X68750000Y-61900000D02*
X69250000Y-61900000D01*
X68750000Y-62300000D02*
X68150000Y-61900000D01*
%TO.C,D13*%
X123250000Y-67400000D02*
X123650000Y-67400000D01*
X123650000Y-67400000D02*
X123650000Y-66850000D01*
X123650000Y-67400000D02*
X123650000Y-67950000D01*
X123650000Y-67400000D02*
X124250000Y-67000000D01*
X124250000Y-67000000D02*
X124250000Y-67800000D01*
X124250000Y-67400000D02*
X124750000Y-67400000D01*
X124250000Y-67800000D02*
X123650000Y-67400000D01*
%TO.C,D10*%
X104750000Y-61400000D02*
X105150000Y-61400000D01*
X105150000Y-61400000D02*
X105150000Y-60850000D01*
X105150000Y-61400000D02*
X105150000Y-61950000D01*
X105150000Y-61400000D02*
X105750000Y-61000000D01*
X105750000Y-61000000D02*
X105750000Y-61800000D01*
X105750000Y-61400000D02*
X106250000Y-61400000D01*
X105750000Y-61800000D02*
X105150000Y-61400000D01*
D14*
%TO.C,DISP1*%
X157090000Y-73370000D02*
X157090000Y-76030000D01*
X169910000Y-73370000D02*
X157090000Y-73370000D01*
X169910000Y-73370000D02*
X169910000Y-76030000D01*
X169910000Y-76030000D02*
X157090000Y-76030000D01*
D13*
%TO.C,D8*%
X86250000Y-48900000D02*
X86650000Y-48900000D01*
X86650000Y-48900000D02*
X86650000Y-48350000D01*
X86650000Y-48900000D02*
X86650000Y-49450000D01*
X86650000Y-48900000D02*
X87250000Y-48500000D01*
X87250000Y-48500000D02*
X87250000Y-49300000D01*
X87250000Y-48900000D02*
X87750000Y-48900000D01*
X87250000Y-49300000D02*
X86650000Y-48900000D01*
%TO.C,D15*%
X141750000Y-84900000D02*
X142150000Y-84900000D01*
X142150000Y-84900000D02*
X142150000Y-84350000D01*
X142150000Y-84900000D02*
X142150000Y-85450000D01*
X142150000Y-84900000D02*
X142750000Y-84500000D01*
X142750000Y-84500000D02*
X142750000Y-85300000D01*
X142750000Y-84900000D02*
X143250000Y-84900000D01*
X142750000Y-85300000D02*
X142150000Y-84900000D01*
D14*
%TO.C,MCU1*%
X154550000Y-40470000D02*
X154550000Y-71070000D01*
X157210000Y-40470000D02*
X154550000Y-40470000D01*
X157210000Y-40470000D02*
X157210000Y-71070000D01*
X157210000Y-71070000D02*
X154550000Y-71070000D01*
X169790000Y-40470000D02*
X169790000Y-71070000D01*
X172450000Y-40470000D02*
X169790000Y-40470000D01*
X172450000Y-40470000D02*
X172450000Y-71070000D01*
X172450000Y-43070000D02*
X169790000Y-43070000D01*
X172450000Y-71070000D02*
X169790000Y-71070000D01*
D13*
%TO.C,D11*%
X104750000Y-43900000D02*
X105150000Y-43900000D01*
X105150000Y-43900000D02*
X105150000Y-43350000D01*
X105150000Y-43900000D02*
X105150000Y-44450000D01*
X105150000Y-43900000D02*
X105750000Y-43500000D01*
X105750000Y-43500000D02*
X105750000Y-44300000D01*
X105750000Y-43900000D02*
X106250000Y-43900000D01*
X105750000Y-44300000D02*
X105150000Y-43900000D01*
%TO.C,JST1*%
X162100000Y-92000000D02*
X162100000Y-93000000D01*
X162100000Y-95000000D02*
X162100000Y-94000000D01*
X162600000Y-92500000D02*
X161600000Y-92500000D01*
D14*
X163140000Y-90440000D02*
X164140000Y-90440000D01*
X163140000Y-91360000D02*
X163140000Y-90440000D01*
X163140000Y-95640000D02*
X163140000Y-96560000D01*
X163140000Y-96560000D02*
X164140000Y-96560000D01*
X170960000Y-90440000D02*
X169960000Y-90440000D01*
X170960000Y-91440000D02*
X170960000Y-90440000D01*
X170960000Y-95640000D02*
X170960000Y-96560000D01*
X170960000Y-96560000D02*
X169960000Y-96560000D01*
D13*
%TO.C,D12*%
X123250000Y-84900000D02*
X123650000Y-84900000D01*
X123650000Y-84900000D02*
X123650000Y-84350000D01*
X123650000Y-84900000D02*
X123650000Y-85450000D01*
X123650000Y-84900000D02*
X124250000Y-84500000D01*
X124250000Y-84500000D02*
X124250000Y-85300000D01*
X124250000Y-84900000D02*
X124750000Y-84900000D01*
X124250000Y-85300000D02*
X123650000Y-84900000D01*
D11*
%TO.C,S21*%
X160400000Y-83950000D02*
X166600000Y-83950000D01*
X160400000Y-84900000D02*
X160400000Y-83950000D01*
X160400000Y-87100000D02*
X160400000Y-88050000D01*
X160400000Y-88050000D02*
X166600000Y-88050000D01*
X166600000Y-83950000D02*
X166600000Y-84900000D01*
X166600000Y-88050000D02*
X166600000Y-87100000D01*
X166200000Y-87200000D02*
G75*
G02*
X166000000Y-87200000I-100000J0D01*
G01*
X166000000Y-87200000D02*
G75*
G02*
X166200000Y-87200000I100000J0D01*
G01*
D13*
%TO.C,D6*%
X86250000Y-83900000D02*
X86650000Y-83900000D01*
X86650000Y-83900000D02*
X86650000Y-83350000D01*
X86650000Y-83900000D02*
X86650000Y-84450000D01*
X86650000Y-83900000D02*
X87250000Y-83500000D01*
X87250000Y-83500000D02*
X87250000Y-84300000D01*
X87250000Y-83900000D02*
X87750000Y-83900000D01*
X87250000Y-84300000D02*
X86650000Y-83900000D01*
%TO.C,D20*%
X171621217Y-124242085D02*
X171918475Y-124509737D01*
X171918475Y-124509737D02*
X171550453Y-124918467D01*
X171918475Y-124509737D02*
X172286497Y-124101008D01*
X171918475Y-124509737D02*
X172632014Y-124613958D01*
X172096710Y-125208474D02*
X171918475Y-124509737D01*
X172364362Y-124911216D02*
X172735935Y-125245781D01*
X172632014Y-124613958D02*
X172096710Y-125208474D01*
%TO.C,D17*%
X141750000Y-49900000D02*
X142150000Y-49900000D01*
X142150000Y-49900000D02*
X142150000Y-49350000D01*
X142150000Y-49900000D02*
X142150000Y-50450000D01*
X142150000Y-49900000D02*
X142750000Y-49500000D01*
X142750000Y-49500000D02*
X142750000Y-50300000D01*
X142750000Y-49900000D02*
X143250000Y-49900000D01*
X142750000Y-50300000D02*
X142150000Y-49900000D01*
%TO.C,D2*%
X49250000Y-68400000D02*
X49650000Y-68400000D01*
X49650000Y-68400000D02*
X49650000Y-67850000D01*
X49650000Y-68400000D02*
X49650000Y-68950000D01*
X49650000Y-68400000D02*
X50250000Y-68000000D01*
X50250000Y-68000000D02*
X50250000Y-68800000D01*
X50250000Y-68400000D02*
X50750000Y-68400000D01*
X50250000Y-68800000D02*
X49650000Y-68400000D01*
%TO.C,D4*%
X67750000Y-79400000D02*
X68150000Y-79400000D01*
X68150000Y-79400000D02*
X68150000Y-78850000D01*
X68150000Y-79400000D02*
X68150000Y-79950000D01*
X68150000Y-79400000D02*
X68750000Y-79000000D01*
X68750000Y-79000000D02*
X68750000Y-79800000D01*
X68750000Y-79400000D02*
X69250000Y-79400000D01*
X68750000Y-79800000D02*
X68150000Y-79400000D01*
%TO.C,D3*%
X67750000Y-96900000D02*
X68150000Y-96900000D01*
X68150000Y-96900000D02*
X68150000Y-96350000D01*
X68150000Y-96900000D02*
X68150000Y-97450000D01*
X68150000Y-96900000D02*
X68750000Y-96500000D01*
X68750000Y-96500000D02*
X68750000Y-97300000D01*
X68750000Y-96900000D02*
X69250000Y-96900000D01*
X68750000Y-97300000D02*
X68150000Y-96900000D01*
D12*
%TO.C,S10*%
X104000000Y-49800000D02*
X103500000Y-50300000D01*
X104000000Y-54300000D02*
X103500000Y-53800000D01*
X106300000Y-54300000D02*
X104000000Y-54300000D01*
X107000000Y-49800000D02*
X104000000Y-49800000D01*
X107500000Y-50300000D02*
X107000000Y-49800000D01*
X107500000Y-50300000D02*
X107500000Y-51220000D01*
X108000000Y-56500000D02*
X108000000Y-55800000D01*
X108020000Y-51800000D02*
X112500000Y-51800000D01*
X112500000Y-51800000D02*
X112500000Y-52400000D01*
X112500000Y-56000000D02*
X112500000Y-56500000D01*
X112500000Y-56500000D02*
X108000000Y-56500000D01*
X106300000Y-54300000D02*
G75*
G02*
X108000000Y-55780000I110000J-1590000D01*
G01*
X108020000Y-51800000D02*
G75*
G02*
X107500000Y-51220000I30000J550000D01*
G01*
%TO.C,S15*%
X141000000Y-73300000D02*
X140500000Y-73800000D01*
X141000000Y-77800000D02*
X140500000Y-77300000D01*
X143300000Y-77800000D02*
X141000000Y-77800000D01*
X144000000Y-73300000D02*
X141000000Y-73300000D01*
X144500000Y-73800000D02*
X144000000Y-73300000D01*
X144500000Y-73800000D02*
X144500000Y-74720000D01*
X145000000Y-80000000D02*
X145000000Y-79300000D01*
X145020000Y-75300000D02*
X149500000Y-75300000D01*
X149500000Y-75300000D02*
X149500000Y-75900000D01*
X149500000Y-79500000D02*
X149500000Y-80000000D01*
X149500000Y-80000000D02*
X145000000Y-80000000D01*
X143300000Y-77800000D02*
G75*
G02*
X145000000Y-79280000I110000J-1590000D01*
G01*
X145020000Y-75300000D02*
G75*
G02*
X144500000Y-74720000I30000J550000D01*
G01*
%TO.C,S16*%
X141000000Y-55800000D02*
X140500000Y-56300000D01*
X141000000Y-60300000D02*
X140500000Y-59800000D01*
X143300000Y-60300000D02*
X141000000Y-60300000D01*
X144000000Y-55800000D02*
X141000000Y-55800000D01*
X144500000Y-56300000D02*
X144000000Y-55800000D01*
X144500000Y-56300000D02*
X144500000Y-57220000D01*
X145000000Y-62500000D02*
X145000000Y-61800000D01*
X145020000Y-57800000D02*
X149500000Y-57800000D01*
X149500000Y-57800000D02*
X149500000Y-58400000D01*
X149500000Y-62000000D02*
X149500000Y-62500000D01*
X149500000Y-62500000D02*
X145000000Y-62500000D01*
X143300000Y-60300000D02*
G75*
G02*
X145000000Y-61780000I110000J-1590000D01*
G01*
X145020000Y-57800000D02*
G75*
G02*
X144500000Y-57220000I30000J550000D01*
G01*
%TO.C,S3*%
X67000000Y-85300000D02*
X66500000Y-85800000D01*
X67000000Y-89800000D02*
X66500000Y-89300000D01*
X69300000Y-89800000D02*
X67000000Y-89800000D01*
X70000000Y-85300000D02*
X67000000Y-85300000D01*
X70500000Y-85800000D02*
X70000000Y-85300000D01*
X70500000Y-85800000D02*
X70500000Y-86720000D01*
X71000000Y-92000000D02*
X71000000Y-91300000D01*
X71020000Y-87300000D02*
X75500000Y-87300000D01*
X75500000Y-87300000D02*
X75500000Y-87900000D01*
X75500000Y-91500000D02*
X75500000Y-92000000D01*
X75500000Y-92000000D02*
X71000000Y-92000000D01*
X69300000Y-89800000D02*
G75*
G02*
X71000000Y-91280000I110000J-1590000D01*
G01*
X71020000Y-87300000D02*
G75*
G02*
X70500000Y-86720000I30000J550000D01*
G01*
%TO.C,S1*%
X48500000Y-74300000D02*
X48000000Y-74800000D01*
X48500000Y-78800000D02*
X48000000Y-78300000D01*
X50800000Y-78800000D02*
X48500000Y-78800000D01*
X51500000Y-74300000D02*
X48500000Y-74300000D01*
X52000000Y-74800000D02*
X51500000Y-74300000D01*
X52000000Y-74800000D02*
X52000000Y-75720000D01*
X52500000Y-81000000D02*
X52500000Y-80300000D01*
X52520000Y-76300000D02*
X57000000Y-76300000D01*
X57000000Y-76300000D02*
X57000000Y-76900000D01*
X57000000Y-80500000D02*
X57000000Y-81000000D01*
X57000000Y-81000000D02*
X52500000Y-81000000D01*
X50800000Y-78800000D02*
G75*
G02*
X52500000Y-80280000I110000J-1590000D01*
G01*
X52520000Y-76300000D02*
G75*
G02*
X52000000Y-75720000I30000J550000D01*
G01*
%TO.C,S2*%
X48500000Y-56800000D02*
X48000000Y-57300000D01*
X48500000Y-61300000D02*
X48000000Y-60800000D01*
X50800000Y-61300000D02*
X48500000Y-61300000D01*
X51500000Y-56800000D02*
X48500000Y-56800000D01*
X52000000Y-57300000D02*
X51500000Y-56800000D01*
X52000000Y-57300000D02*
X52000000Y-58220000D01*
X52500000Y-63500000D02*
X52500000Y-62800000D01*
X52520000Y-58800000D02*
X57000000Y-58800000D01*
X57000000Y-58800000D02*
X57000000Y-59400000D01*
X57000000Y-63000000D02*
X57000000Y-63500000D01*
X57000000Y-63500000D02*
X52500000Y-63500000D01*
X50800000Y-61300000D02*
G75*
G02*
X52500000Y-62780000I110000J-1590000D01*
G01*
X52520000Y-58800000D02*
G75*
G02*
X52000000Y-58220000I30000J550000D01*
G01*
%TO.C,S13*%
X122500000Y-55800000D02*
X122000000Y-56300000D01*
X122500000Y-60300000D02*
X122000000Y-59800000D01*
X124800000Y-60300000D02*
X122500000Y-60300000D01*
X125500000Y-55800000D02*
X122500000Y-55800000D01*
X126000000Y-56300000D02*
X125500000Y-55800000D01*
X126000000Y-56300000D02*
X126000000Y-57220000D01*
X126500000Y-62500000D02*
X126500000Y-61800000D01*
X126520000Y-57800000D02*
X131000000Y-57800000D01*
X131000000Y-57800000D02*
X131000000Y-58400000D01*
X131000000Y-62000000D02*
X131000000Y-62500000D01*
X131000000Y-62500000D02*
X126500000Y-62500000D01*
X124800000Y-60300000D02*
G75*
G02*
X126500000Y-61780000I110000J-1590000D01*
G01*
X126520000Y-57800000D02*
G75*
G02*
X126000000Y-57220000I30000J550000D01*
G01*
%TO.C,S4*%
X67000000Y-67800000D02*
X66500000Y-68300000D01*
X67000000Y-72300000D02*
X66500000Y-71800000D01*
X69300000Y-72300000D02*
X67000000Y-72300000D01*
X70000000Y-67800000D02*
X67000000Y-67800000D01*
X70500000Y-68300000D02*
X70000000Y-67800000D01*
X70500000Y-68300000D02*
X70500000Y-69220000D01*
X71000000Y-74500000D02*
X71000000Y-73800000D01*
X71020000Y-69800000D02*
X75500000Y-69800000D01*
X75500000Y-69800000D02*
X75500000Y-70400000D01*
X75500000Y-74000000D02*
X75500000Y-74500000D01*
X75500000Y-74500000D02*
X71000000Y-74500000D01*
X69300000Y-72300000D02*
G75*
G02*
X71000000Y-73780000I110000J-1590000D01*
G01*
X71020000Y-69800000D02*
G75*
G02*
X70500000Y-69220000I30000J550000D01*
G01*
%TO.C,S9*%
X104000000Y-67300000D02*
X103500000Y-67800000D01*
X104000000Y-71800000D02*
X103500000Y-71300000D01*
X106300000Y-71800000D02*
X104000000Y-71800000D01*
X107000000Y-67300000D02*
X104000000Y-67300000D01*
X107500000Y-67800000D02*
X107000000Y-67300000D01*
X107500000Y-67800000D02*
X107500000Y-68720000D01*
X108000000Y-74000000D02*
X108000000Y-73300000D01*
X108020000Y-69300000D02*
X112500000Y-69300000D01*
X112500000Y-69300000D02*
X112500000Y-69900000D01*
X112500000Y-73500000D02*
X112500000Y-74000000D01*
X112500000Y-74000000D02*
X108000000Y-74000000D01*
X106300000Y-71800000D02*
G75*
G02*
X108000000Y-73280000I110000J-1590000D01*
G01*
X108020000Y-69300000D02*
G75*
G02*
X107500000Y-68720000I30000J550000D01*
G01*
%TO.C,S19*%
X157229781Y-105311625D02*
X156999570Y-104643043D01*
X159202451Y-101267052D02*
X158533869Y-101497264D01*
X159297007Y-106319879D02*
X157229781Y-105311625D01*
X159860541Y-109042457D02*
X160167401Y-108413301D01*
X161898833Y-102582166D02*
X159202451Y-101267052D01*
X161938861Y-104826892D02*
X165965458Y-106790795D01*
X162129045Y-103250748D02*
X161725743Y-104077640D01*
X162129045Y-103250748D02*
X161898833Y-102582166D01*
X163905114Y-111015127D02*
X159860541Y-109042457D01*
X164124300Y-110565730D02*
X163905114Y-111015127D01*
X165965458Y-106790795D02*
X165702436Y-107330071D01*
X159297007Y-106319879D02*
G75*
G02*
X160176168Y-108395325I-598142J-1477303D01*
G01*
X161938861Y-104826892D02*
G75*
G02*
X161725743Y-104077640I268068J481185D01*
G01*
%TO.C,S8*%
X85500000Y-37300000D02*
X85000000Y-37800000D01*
X85500000Y-41800000D02*
X85000000Y-41300000D01*
X87800000Y-41800000D02*
X85500000Y-41800000D01*
X88500000Y-37300000D02*
X85500000Y-37300000D01*
X89000000Y-37800000D02*
X88500000Y-37300000D01*
X89000000Y-37800000D02*
X89000000Y-38720000D01*
X89500000Y-44000000D02*
X89500000Y-43300000D01*
X89520000Y-39300000D02*
X94000000Y-39300000D01*
X94000000Y-39300000D02*
X94000000Y-39900000D01*
X94000000Y-43500000D02*
X94000000Y-44000000D01*
X94000000Y-44000000D02*
X89500000Y-44000000D01*
X87800000Y-41800000D02*
G75*
G02*
X89500000Y-43280000I110000J-1590000D01*
G01*
X89520000Y-39300000D02*
G75*
G02*
X89000000Y-38720000I30000J550000D01*
G01*
%TO.C,S17*%
X141000000Y-38300000D02*
X140500000Y-38800000D01*
X141000000Y-42800000D02*
X140500000Y-42300000D01*
X143300000Y-42800000D02*
X141000000Y-42800000D01*
X144000000Y-38300000D02*
X141000000Y-38300000D01*
X144500000Y-38800000D02*
X144000000Y-38300000D01*
X144500000Y-38800000D02*
X144500000Y-39720000D01*
X145000000Y-45000000D02*
X145000000Y-44300000D01*
X145020000Y-40300000D02*
X149500000Y-40300000D01*
X149500000Y-40300000D02*
X149500000Y-40900000D01*
X149500000Y-44500000D02*
X149500000Y-45000000D01*
X149500000Y-45000000D02*
X145000000Y-45000000D01*
X143300000Y-42800000D02*
G75*
G02*
X145000000Y-44280000I110000J-1590000D01*
G01*
X145020000Y-40300000D02*
G75*
G02*
X144500000Y-39720000I30000J550000D01*
G01*
%TO.C,S20*%
X175814687Y-118463908D02*
X175777680Y-117757771D01*
X177315179Y-122775349D02*
X177783570Y-122255148D01*
X177523920Y-120002909D02*
X175814687Y-118463908D01*
X178825775Y-115119757D02*
X178119637Y-115156764D01*
X180474956Y-119295951D02*
X183804245Y-122293656D01*
X180659331Y-125786437D02*
X177315179Y-122775349D01*
X180993896Y-125414865D02*
X180659331Y-125786437D01*
X181055209Y-117127148D02*
X178825775Y-115119757D01*
X181092216Y-117833286D02*
X180476616Y-118516979D01*
X181092216Y-117833286D02*
X181055209Y-117127148D01*
X183804245Y-122293656D02*
X183402766Y-122739543D01*
X177523920Y-120002909D02*
G75*
G02*
X177796952Y-122240284I-982168J-1255203D01*
G01*
X180474956Y-119295951D02*
G75*
G02*
X180476616Y-118516979I390316J388656D01*
G01*
%TO.C,S14*%
X122500000Y-38300000D02*
X122000000Y-38800000D01*
X122500000Y-42800000D02*
X122000000Y-42300000D01*
X124800000Y-42800000D02*
X122500000Y-42800000D01*
X125500000Y-38300000D02*
X122500000Y-38300000D01*
X126000000Y-38800000D02*
X125500000Y-38300000D01*
X126000000Y-38800000D02*
X126000000Y-39720000D01*
X126500000Y-45000000D02*
X126500000Y-44300000D01*
X126520000Y-40300000D02*
X131000000Y-40300000D01*
X131000000Y-40300000D02*
X131000000Y-40900000D01*
X131000000Y-44500000D02*
X131000000Y-45000000D01*
X131000000Y-45000000D02*
X126500000Y-45000000D01*
X124800000Y-42800000D02*
G75*
G02*
X126500000Y-44280000I110000J-1590000D01*
G01*
X126520000Y-40300000D02*
G75*
G02*
X126000000Y-39720000I30000J550000D01*
G01*
%TO.C,S6*%
X85500000Y-72300000D02*
X85000000Y-72800000D01*
X85500000Y-76800000D02*
X85000000Y-76300000D01*
X87800000Y-76800000D02*
X85500000Y-76800000D01*
X88500000Y-72300000D02*
X85500000Y-72300000D01*
X89000000Y-72800000D02*
X88500000Y-72300000D01*
X89000000Y-72800000D02*
X89000000Y-73720000D01*
X89500000Y-79000000D02*
X89500000Y-78300000D01*
X89520000Y-74300000D02*
X94000000Y-74300000D01*
X94000000Y-74300000D02*
X94000000Y-74900000D01*
X94000000Y-78500000D02*
X94000000Y-79000000D01*
X94000000Y-79000000D02*
X89500000Y-79000000D01*
X87800000Y-76800000D02*
G75*
G02*
X89500000Y-78280000I110000J-1590000D01*
G01*
X89520000Y-74300000D02*
G75*
G02*
X89000000Y-73720000I30000J550000D01*
G01*
%TO.C,S5*%
X67000000Y-50300000D02*
X66500000Y-50800000D01*
X67000000Y-54800000D02*
X66500000Y-54300000D01*
X69300000Y-54800000D02*
X67000000Y-54800000D01*
X70000000Y-50300000D02*
X67000000Y-50300000D01*
X70500000Y-50800000D02*
X70000000Y-50300000D01*
X70500000Y-50800000D02*
X70500000Y-51720000D01*
X71000000Y-57000000D02*
X71000000Y-56300000D01*
X71020000Y-52300000D02*
X75500000Y-52300000D01*
X75500000Y-52300000D02*
X75500000Y-52900000D01*
X75500000Y-56500000D02*
X75500000Y-57000000D01*
X75500000Y-57000000D02*
X71000000Y-57000000D01*
X69300000Y-54800000D02*
G75*
G02*
X71000000Y-56280000I110000J-1590000D01*
G01*
X71020000Y-52300000D02*
G75*
G02*
X70500000Y-51720000I30000J550000D01*
G01*
%TO.C,S7*%
X85500000Y-54800000D02*
X85000000Y-55300000D01*
X85500000Y-59300000D02*
X85000000Y-58800000D01*
X87800000Y-59300000D02*
X85500000Y-59300000D01*
X88500000Y-54800000D02*
X85500000Y-54800000D01*
X89000000Y-55300000D02*
X88500000Y-54800000D01*
X89000000Y-55300000D02*
X89000000Y-56220000D01*
X89500000Y-61500000D02*
X89500000Y-60800000D01*
X89520000Y-56800000D02*
X94000000Y-56800000D01*
X94000000Y-56800000D02*
X94000000Y-57400000D01*
X94000000Y-61000000D02*
X94000000Y-61500000D01*
X94000000Y-61500000D02*
X89500000Y-61500000D01*
X87800000Y-59300000D02*
G75*
G02*
X89500000Y-60780000I110000J-1590000D01*
G01*
X89520000Y-56800000D02*
G75*
G02*
X89000000Y-56220000I30000J550000D01*
G01*
%TO.C,S11*%
X104000000Y-32300000D02*
X103500000Y-32800000D01*
X104000000Y-36800000D02*
X103500000Y-36300000D01*
X106300000Y-36800000D02*
X104000000Y-36800000D01*
X107000000Y-32300000D02*
X104000000Y-32300000D01*
X107500000Y-32800000D02*
X107000000Y-32300000D01*
X107500000Y-32800000D02*
X107500000Y-33720000D01*
X108000000Y-39000000D02*
X108000000Y-38300000D01*
X108020000Y-34300000D02*
X112500000Y-34300000D01*
X112500000Y-34300000D02*
X112500000Y-34900000D01*
X112500000Y-38500000D02*
X112500000Y-39000000D01*
X112500000Y-39000000D02*
X108000000Y-39000000D01*
X106300000Y-36800000D02*
G75*
G02*
X108000000Y-38280000I110000J-1590000D01*
G01*
X108020000Y-34300000D02*
G75*
G02*
X107500000Y-33720000I30000J550000D01*
G01*
%TO.C,S12*%
X122500000Y-73300000D02*
X122000000Y-73800000D01*
X122500000Y-77800000D02*
X122000000Y-77300000D01*
X124800000Y-77800000D02*
X122500000Y-77800000D01*
X125500000Y-73300000D02*
X122500000Y-73300000D01*
X126000000Y-73800000D02*
X125500000Y-73300000D01*
X126000000Y-73800000D02*
X126000000Y-74720000D01*
X126500000Y-80000000D02*
X126500000Y-79300000D01*
X126520000Y-75300000D02*
X131000000Y-75300000D01*
X131000000Y-75300000D02*
X131000000Y-75900000D01*
X131000000Y-79500000D02*
X131000000Y-80000000D01*
X131000000Y-80000000D02*
X126500000Y-80000000D01*
X124800000Y-77800000D02*
G75*
G02*
X126500000Y-79280000I110000J-1590000D01*
G01*
X126520000Y-75300000D02*
G75*
G02*
X126000000Y-74720000I30000J550000D01*
G01*
%TO.C,S18*%
X135665287Y-97595739D02*
X135259707Y-97016511D01*
X136446703Y-93164104D02*
X135867475Y-93569684D01*
X137930344Y-97995130D02*
X135665287Y-97595739D01*
X139222492Y-100456909D02*
X139344045Y-99767543D01*
X139401127Y-93685049D02*
X136446703Y-93164104D01*
X139806706Y-94264277D02*
X139401127Y-93685049D01*
X139806706Y-94264277D02*
X139646950Y-95170300D01*
X140058334Y-95831785D02*
X144470273Y-96609729D01*
X143654129Y-101238326D02*
X139222492Y-100456909D01*
X143740951Y-100745922D02*
X143654129Y-101238326D01*
X144470273Y-96609729D02*
X144366084Y-97200614D01*
X137930344Y-97995130D02*
G75*
G02*
X139347518Y-99747847I-167771J-1584945D01*
G01*
X140058334Y-95831785D02*
G75*
G02*
X139646951Y-95170300I125051J536434D01*
G01*
%TD*%
M02*
