%TF.GenerationSoftware,KiCad,Pcbnew,9.0.8-1.fc43*%
%TF.CreationDate,2026-04-05T21:21:20+02:00*%
%TF.ProjectId,oregano_routed,6f726567-616e-46f5-9f72-6f757465642e,v1.0.0*%
%TF.SameCoordinates,Original*%
%TF.FileFunction,Paste,Top*%
%TF.FilePolarity,Positive*%
%FSLAX46Y46*%
G04 Gerber Fmt 4.6, Leading zero omitted, Abs format (unit mm)*
G04 Created by KiCad (PCBNEW 9.0.8-1.fc43) date 2026-04-05 21:21:20*
%MOMM*%
%LPD*%
G01*
G04 APERTURE LIST*
G04 Aperture macros list*
%AMRotRect*
0 Rectangle, with rotation*
0 The origin of the aperture is its center*
0 $1 length*
0 $2 width*
0 $3 Rotation angle, in degrees counterclockwise*
0 Add horizontal line*
21,1,$1,$2,0,0,$3*%
%AMOutline5P*
0 Free polygon, 5 corners , with rotation*
0 The origin of the aperture is its center*
0 number of corners: always 5*
0 $1 to $10 corner X, Y*
0 $11 Rotation angle, in degrees counterclockwise*
0 create outline with 5 corners*
4,1,5,$1,$2,$3,$4,$5,$6,$7,$8,$9,$10,$1,$2,$11*%
%AMOutline6P*
0 Free polygon, 6 corners , with rotation*
0 The origin of the aperture is its center*
0 number of corners: always 6*
0 $1 to $12 corner X, Y*
0 $13 Rotation angle, in degrees counterclockwise*
0 create outline with 6 corners*
4,1,6,$1,$2,$3,$4,$5,$6,$7,$8,$9,$10,$11,$12,$1,$2,$13*%
%AMOutline7P*
0 Free polygon, 7 corners , with rotation*
0 The origin of the aperture is its center*
0 number of corners: always 7*
0 $1 to $14 corner X, Y*
0 $15 Rotation angle, in degrees counterclockwise*
0 create outline with 7 corners*
4,1,7,$1,$2,$3,$4,$5,$6,$7,$8,$9,$10,$11,$12,$13,$14,$1,$2,$15*%
%AMOutline8P*
0 Free polygon, 8 corners , with rotation*
0 The origin of the aperture is its center*
0 number of corners: always 8*
0 $1 to $16 corner X, Y*
0 $17 Rotation angle, in degrees counterclockwise*
0 create outline with 8 corners*
4,1,8,$1,$2,$3,$4,$5,$6,$7,$8,$9,$10,$11,$12,$13,$14,$15,$16,$1,$2,$17*%
%AMFreePoly0*
4,1,6,0.250000,0.000000,-0.250000,-0.625000,-0.500000,-0.625000,-0.500000,0.625000,-0.250000,0.625000,0.250000,0.000000,0.250000,0.000000,$1*%
%AMFreePoly1*
4,1,6,0.500000,-0.625000,-0.650000,-0.625000,-0.150000,0.000000,-0.650000,0.625000,0.500000,0.625000,0.500000,-0.625000,0.500000,-0.625000,$1*%
%AMFreePoly2*
4,1,6,0.600000,-1.000000,0.000000,-0.400000,-0.600000,-1.000000,-0.600000,0.250000,0.600000,0.250000,0.600000,-1.000000,0.600000,-1.000000,$1*%
%AMFreePoly3*
4,1,6,0.600000,-0.200000,0.600000,-0.400000,-0.600000,-0.400000,-0.600000,-0.200000,0.000000,0.400000,0.600000,-0.200000,0.600000,-0.200000,$1*%
G04 Aperture macros list end*
%ADD10R,0.900000X1.200000*%
%ADD11RotRect,0.900000X1.200000X334.000000*%
%ADD12RotRect,1.000000X0.800000X115.400000*%
%ADD13RotRect,0.700000X1.500000X115.400000*%
%ADD14RotRect,0.900000X1.200000X350.000000*%
%ADD15R,1.200000X0.600000*%
%ADD16FreePoly0,180.000000*%
%ADD17FreePoly0,0.000000*%
%ADD18FreePoly1,180.000000*%
%ADD19FreePoly1,0.000000*%
%ADD20FreePoly2,90.000000*%
%ADD21FreePoly3,90.000000*%
%ADD22RotRect,0.900000X1.200000X318.000000*%
%ADD23Outline5P,-1.300000X1.300000X1.300000X1.300000X1.300000X-0.117000X0.117000X-1.300000X-1.300000X-1.300000X0.000000*%
%ADD24R,2.600000X2.600000*%
%ADD25Outline5P,-1.300000X1.300000X1.300000X1.300000X1.300000X-0.117000X0.117000X-1.300000X-1.300000X-1.300000X334.000000*%
%ADD26RotRect,2.600000X2.600000X334.000000*%
%ADD27Outline5P,-1.300000X1.300000X1.300000X1.300000X1.300000X-0.117000X0.117000X-1.300000X-1.300000X-1.300000X318.000000*%
%ADD28RotRect,2.600000X2.600000X318.000000*%
%ADD29Outline5P,-1.300000X1.300000X1.300000X1.300000X1.300000X-0.117000X0.117000X-1.300000X-1.300000X-1.300000X350.000000*%
%ADD30RotRect,2.600000X2.600000X350.000000*%
G04 APERTURE END LIST*
D10*
%TO.C,D1*%
X48350000Y-85900000D03*
X51650000Y-85900000D03*
%TD*%
%TO.C,D14*%
X122350000Y-49900000D03*
X125650000Y-49900000D03*
%TD*%
%TO.C,D16*%
X140850000Y-67400000D03*
X144150000Y-67400000D03*
%TD*%
%TO.C,D7*%
X85350000Y-66400000D03*
X88650000Y-66400000D03*
%TD*%
%TO.C,D9*%
X103850000Y-78900000D03*
X107150000Y-78900000D03*
%TD*%
D11*
%TO.C,D19*%
X153982527Y-111627307D03*
X156948547Y-113073931D03*
%TD*%
D12*
%TO.C,T1*%
X179357383Y-102683797D03*
X177361012Y-103631743D03*
D13*
X174243126Y-98580873D03*
D12*
X174229785Y-97037396D03*
X176226156Y-96089449D03*
D13*
X176173335Y-102645882D03*
X174886529Y-99935876D03*
%TD*%
D14*
%TO.C,D18*%
X134284663Y-104561827D03*
X137534529Y-105134865D03*
%TD*%
D10*
%TO.C,D5*%
X66850000Y-61900000D03*
X70150000Y-61900000D03*
%TD*%
%TO.C,D13*%
X122350000Y-67400000D03*
X125650000Y-67400000D03*
%TD*%
%TO.C,D10*%
X103850000Y-61400000D03*
X107150000Y-61400000D03*
%TD*%
D15*
%TO.C,DISP1*%
X158420000Y-77350000D03*
X160960000Y-77350000D03*
X166040000Y-77350000D03*
X168580000Y-77350000D03*
X158420000Y-76450000D03*
X160960000Y-76450000D03*
X166040000Y-76450000D03*
X168580000Y-76450000D03*
%TD*%
D10*
%TO.C,D8*%
X85350000Y-48900000D03*
X88650000Y-48900000D03*
%TD*%
%TO.C,D15*%
X140850000Y-84900000D03*
X144150000Y-84900000D03*
%TD*%
D16*
%TO.C,MCU1*%
X169000000Y-41800000D03*
X169000000Y-44340000D03*
X169000000Y-46880000D03*
X169000000Y-49420000D03*
X169000000Y-51960000D03*
X169000000Y-54500000D03*
X169000000Y-57040000D03*
X169000000Y-59580000D03*
X169000000Y-62120000D03*
X169000000Y-64660000D03*
X169000000Y-67200000D03*
X169000000Y-69740000D03*
D17*
X158000000Y-69740000D03*
X158000000Y-67200000D03*
X158000000Y-64660000D03*
X158000000Y-62120000D03*
X158000000Y-59580000D03*
X158000000Y-57040000D03*
X158000000Y-54500000D03*
X158000000Y-51960000D03*
X158000000Y-49420000D03*
X158000000Y-46880000D03*
X158000000Y-44340000D03*
X158000000Y-41800000D03*
D18*
X168275000Y-41800000D03*
X168275000Y-44340000D03*
X168275000Y-46880000D03*
X168275000Y-49420000D03*
X168275000Y-51960000D03*
X168275000Y-54500000D03*
X168275000Y-57040000D03*
X168275000Y-59580000D03*
X168275000Y-62120000D03*
X168275000Y-64660000D03*
X168275000Y-67200000D03*
X168275000Y-69740000D03*
D19*
X158725000Y-69740000D03*
X158725000Y-67200000D03*
X158725000Y-64660000D03*
X158725000Y-62120000D03*
X158725000Y-59580000D03*
X158725000Y-57040000D03*
X158725000Y-54500000D03*
X158725000Y-51960000D03*
X158725000Y-49420000D03*
X158725000Y-46880000D03*
X158725000Y-44340000D03*
X158725000Y-41800000D03*
%TD*%
D10*
%TO.C,D11*%
X103850000Y-43900000D03*
X107150000Y-43900000D03*
%TD*%
D20*
%TO.C,JST1*%
X166684000Y-92500000D03*
X166684000Y-94500000D03*
D21*
X167700000Y-92500000D03*
X167700000Y-94500000D03*
%TD*%
D10*
%TO.C,D12*%
X122350000Y-84900000D03*
X125650000Y-84900000D03*
%TD*%
%TO.C,D6*%
X85350000Y-83900000D03*
X88650000Y-83900000D03*
%TD*%
D22*
%TO.C,D20*%
X170952387Y-123639867D03*
X173404765Y-125847999D03*
%TD*%
D10*
%TO.C,D17*%
X140850000Y-49900000D03*
X144150000Y-49900000D03*
%TD*%
%TO.C,D2*%
X48350000Y-68400000D03*
X51650000Y-68400000D03*
%TD*%
%TO.C,D4*%
X66850000Y-79400000D03*
X70150000Y-79400000D03*
%TD*%
%TO.C,D3*%
X66850000Y-96900000D03*
X70150000Y-96900000D03*
%TD*%
D23*
%TO.C,S10*%
X108775000Y-52050000D03*
D24*
X97225000Y-54250000D03*
%TD*%
D23*
%TO.C,S15*%
X145775000Y-75550000D03*
D24*
X134225000Y-77750000D03*
%TD*%
D23*
%TO.C,S16*%
X145775000Y-58050000D03*
D24*
X134225000Y-60250000D03*
%TD*%
D23*
%TO.C,S3*%
X71775000Y-87550000D03*
D24*
X60225000Y-89750000D03*
%TD*%
D23*
%TO.C,S1*%
X53275000Y-76550000D03*
D24*
X41725000Y-78750000D03*
%TD*%
D23*
%TO.C,S2*%
X53275000Y-59050000D03*
D24*
X41725000Y-61250000D03*
%TD*%
D23*
%TO.C,S13*%
X127275000Y-58050000D03*
D24*
X115725000Y-60250000D03*
%TD*%
D23*
%TO.C,S4*%
X71775000Y-70050000D03*
D24*
X60225000Y-72250000D03*
%TD*%
D23*
%TO.C,S9*%
X108775000Y-69550000D03*
D24*
X97225000Y-71750000D03*
%TD*%
D25*
%TO.C,S19*%
X162507858Y-105382561D03*
D26*
X151162370Y-102296721D03*
%TD*%
D23*
%TO.C,S8*%
X90275000Y-39550000D03*
D24*
X78725000Y-41750000D03*
%TD*%
D23*
%TO.C,S17*%
X145775000Y-40550000D03*
D24*
X134225000Y-42750000D03*
%TD*%
D27*
%TO.C,S20*%
X180868747Y-119986931D03*
D28*
X170813337Y-113893391D03*
%TD*%
D23*
%TO.C,S14*%
X127275000Y-40550000D03*
D24*
X115725000Y-42750000D03*
%TD*%
D23*
%TO.C,S6*%
X90275000Y-74550000D03*
D24*
X78725000Y-76750000D03*
%TD*%
D23*
%TO.C,S5*%
X71775000Y-52550000D03*
D24*
X60225000Y-54750000D03*
%TD*%
D23*
%TO.C,S7*%
X90275000Y-57050000D03*
D24*
X78725000Y-59250000D03*
%TD*%
D23*
%TO.C,S11*%
X108775000Y-34550000D03*
D24*
X97225000Y-36750000D03*
%TD*%
D23*
%TO.C,S12*%
X127275000Y-75550000D03*
D24*
X115725000Y-77750000D03*
%TD*%
D29*
%TO.C,S18*%
X140758452Y-96209092D03*
D30*
X129001897Y-96370032D03*
%TD*%
M02*
