M48
; DRILL file {KiCad 9.0.8-1.fc43} date 2026-04-05T21:21:26+0200
; FORMAT={-:-/ absolute / metric / decimal}
; #@! TF.CreationDate,2026-04-05T21:21:26+02:00
; #@! TF.GenerationSoftware,Kicad,Pcbnew,9.0.8-1.fc43
; #@! TF.FileFunction,Plated,1,2,PTH
FMAT,2
METRIC
; #@! TA.AperFunction,Plated,PTH,ViaDrill
T1C0.300
; #@! TA.AperFunction,Plated,PTH,ComponentDrill
T2C0.400
; #@! TA.AperFunction,Plated,PTH,ComponentDrill
T3C0.750
; #@! TA.AperFunction,Plated,PTH,ComponentDrill
T4C1.000
; #@! TA.AperFunction,Plated,PTH,ComponentDrill
T5C2.200
%
G90
G05
T1
X42.225Y-59.05
X42.225Y-76.55
X47.15Y-68.4
X47.15Y-85.9
X52.85Y-68.4
X52.85Y-85.9
X57.775Y-59.05
X57.775Y-76.55
X57.775Y-76.55
X60.725Y-52.55
X60.725Y-70.05
X60.725Y-87.55
X65.65Y-61.9
X65.65Y-61.9
X65.65Y-79.4
X65.65Y-96.9
X71.35Y-61.9
X71.35Y-79.4
X71.35Y-96.9
X76.275Y-52.55
X76.275Y-70.05
X76.275Y-87.55
X79.225Y-39.55
X79.225Y-57.05
X79.225Y-74.55
X83.8Y-70.0
X84.15Y-48.9
X84.15Y-66.4
X84.15Y-83.9
X89.85Y-48.9
X89.85Y-66.4
X89.85Y-83.9
X94.775Y-39.55
X94.775Y-57.05
X94.775Y-74.55
X97.725Y-34.55
X97.725Y-52.05
X97.725Y-69.55
X102.65Y-43.9
X102.65Y-61.4
X102.65Y-78.9
X108.35Y-43.9
X108.35Y-61.4
X108.35Y-78.9
X113.275Y-34.55
X113.275Y-52.05
X113.275Y-69.55
X116.225Y-40.55
X116.225Y-58.05
X116.225Y-75.55
X121.15Y-49.9
X121.15Y-67.4
X121.15Y-84.9
X126.85Y-49.9
X126.85Y-67.4
X126.85Y-84.9
X129.876Y-94.29
X131.775Y-40.55
X131.775Y-58.05
X131.775Y-75.55
X133.103Y-104.353
X134.725Y-40.55
X134.725Y-58.05
X134.725Y-75.55
X138.716Y-105.343
X139.65Y-49.9
X139.65Y-67.4
X139.65Y-84.9
X145.19Y-96.991
X145.35Y-49.9
X145.35Y-67.4
X145.35Y-84.9
X150.275Y-40.55
X150.275Y-58.05
X150.275Y-75.55
X151.2Y-67.0
X151.2Y-111.101
X152.0Y-67.0
X152.576Y-100.539
X152.8Y-55.8
X152.8Y-67.0
X153.6Y-67.0
X158.027Y-113.6
X163.5Y-77.651
X163.5Y-78.5
X163.5Y-79.3
X163.5Y-80.1
X166.552Y-107.355
X170.061Y-122.837
X171.0Y-98.6
X171.1Y-93.5
X172.6Y-99.3
X172.657Y-112.593
X174.297Y-126.651
X184.213Y-122.998
T2
X160.1Y-41.8
X160.1Y-44.34
X160.1Y-46.88
X160.1Y-49.42
X160.1Y-51.96
X160.1Y-54.5
X160.1Y-57.04
X160.1Y-59.58
X160.1Y-62.12
X160.1Y-64.66
X160.1Y-67.2
X160.1Y-69.74
X166.9Y-41.8
X166.9Y-44.34
X166.9Y-46.88
X166.9Y-49.42
X166.9Y-51.96
X166.9Y-54.5
X166.9Y-57.04
X166.9Y-59.58
X166.9Y-62.12
X166.9Y-64.66
X166.9Y-67.2
X166.9Y-69.74
T3
X169.5Y-92.5
X169.5Y-94.5
T4
X155.88Y-41.8
X155.88Y-44.34
X155.88Y-46.88
X155.88Y-49.42
X155.88Y-51.96
X155.88Y-54.5
X155.88Y-57.04
X155.88Y-59.58
X155.88Y-62.12
X155.88Y-64.66
X155.88Y-67.2
X155.88Y-69.74
X158.42Y-74.7
X160.25Y-86.0
X160.96Y-74.7
X163.5Y-74.7
X166.04Y-74.7
X166.75Y-86.0
X168.58Y-74.7
X171.12Y-41.8
X171.12Y-44.34
X171.12Y-46.88
X171.12Y-49.42
X171.12Y-51.96
X171.12Y-54.5
X171.12Y-57.04
X171.12Y-59.58
X171.12Y-62.12
X171.12Y-64.66
X171.12Y-67.2
X171.12Y-69.74
T5
X59.5Y-67.35
X96.25Y-49.25
X96.25Y-81.0
X133.25Y-55.25
X155.5Y-79.5
X165.705Y-115.756
X171.5Y-79.5
M30
