%TF.GenerationSoftware,KiCad,Pcbnew,9.0.8-1.fc43*%
%TF.CreationDate,2026-04-05T21:21:21+02:00*%
%TF.ProjectId,oregano_routed,6f726567-616e-46f5-9f72-6f757465642e,v1.0.0*%
%TF.SameCoordinates,Original*%
%TF.FileFunction,Profile,NP*%
%FSLAX46Y46*%
G04 Gerber Fmt 4.6, Leading zero omitted, Abs format (unit mm)*
G04 Created by KiCad (PCBNEW 9.0.8-1.fc43) date 2026-04-05 21:21:21*
%MOMM*%
%LPD*%
G01*
G04 APERTURE LIST*
%TA.AperFunction,Profile*%
%ADD10C,0.150000*%
%TD*%
G04 APERTURE END LIST*
D10*
X39000000Y-56500000D02*
G75*
G02*
X41000000Y-54500000I2000000J0D01*
G01*
X39000000Y-91000000D02*
X39000000Y-56500000D01*
X41000000Y-54500000D02*
X55500000Y-54500000D01*
X41000000Y-93000000D02*
G75*
G02*
X39000000Y-91000000I0J2000000D01*
G01*
X55500000Y-93000000D02*
X41000000Y-93000000D01*
X55500000Y-93000000D02*
G75*
G02*
X57500000Y-95000000I0J-2000000D01*
G01*
X57500000Y-50000000D02*
G75*
G02*
X59500000Y-48000000I2000000J0D01*
G01*
X57500000Y-52500000D02*
G75*
G02*
X55500000Y-54500000I-2000000J0D01*
G01*
X57500000Y-52500000D02*
X57500000Y-50000000D01*
X57500000Y-102000000D02*
X57500000Y-95000000D01*
X59500000Y-48000000D02*
X74000000Y-48000000D01*
X59500000Y-104000000D02*
G75*
G02*
X57500000Y-102000000I0J2000000D01*
G01*
X59500000Y-104000000D02*
X120139910Y-104000000D01*
X76000000Y-37000000D02*
G75*
G02*
X78000000Y-35000000I2000000J0D01*
G01*
X76000000Y-46000000D02*
G75*
G02*
X74000000Y-48000000I-2000000J0D01*
G01*
X76000000Y-46000000D02*
X76000000Y-37000000D01*
X78000000Y-35000000D02*
X92500000Y-35000000D01*
X94500000Y-32000000D02*
G75*
G02*
X96500000Y-30000000I2000000J0D01*
G01*
X94500000Y-33000000D02*
G75*
G02*
X92500000Y-35000000I-2000000J0D01*
G01*
X94500000Y-33000000D02*
X94500000Y-32000000D01*
X96500000Y-30000000D02*
X114500000Y-30000000D01*
X114500000Y-30000000D02*
G75*
G02*
X116500000Y-32000000I0J-2000000D01*
G01*
X116500000Y-32000000D02*
X116500000Y-34000000D01*
X118500000Y-36000000D02*
G75*
G02*
X116500000Y-34000000I0J2000000D01*
G01*
X118500000Y-36000000D02*
X173500000Y-36000000D01*
X120139910Y-104000000D02*
G75*
G02*
X121999903Y-105264888I-10J-2000000D01*
G01*
X123449872Y-108933605D02*
X121999911Y-105264885D01*
X124891913Y-110154330D02*
G75*
G02*
X123449839Y-108933619I417987J1955930D01*
G01*
X142200755Y-113853213D02*
X124891913Y-110154330D01*
X142200755Y-113853213D02*
G75*
G02*
X142707225Y-114035513I-417855J-1955587D01*
G01*
X159028006Y-122542469D02*
X142707223Y-114035516D01*
X159028006Y-122542469D02*
G75*
G02*
X159441846Y-122829709I-924306J-1773431D01*
G01*
X173500000Y-36000000D02*
G75*
G02*
X175500000Y-38000000I0J-2000000D01*
G01*
X174116053Y-136042436D02*
X159441840Y-122829716D01*
X175500000Y-38000000D02*
X175500000Y-91548819D01*
X175693707Y-92407483D02*
G75*
G02*
X175500026Y-91548819I1806193J858583D01*
G01*
X175693707Y-92407483D02*
X189081154Y-120569435D01*
X176940603Y-135894408D02*
G75*
G02*
X174116042Y-136042448I-1486303J1338308D01*
G01*
X188761151Y-122766360D02*
X176940603Y-135894408D01*
X189081154Y-120569435D02*
G75*
G02*
X188761147Y-122766356I-1806254J-858665D01*
G01*
M02*
