M48
; DRILL file {KiCad 9.0.8-1.fc43} date 2026-04-05T21:21:26+0200
; FORMAT={-:-/ absolute / metric / decimal}
; #@! TF.CreationDate,2026-04-05T21:21:26+02:00
; #@! TF.GenerationSoftware,Kicad,Pcbnew,9.0.8-1.fc43
; #@! TF.FileFunction,NonPlated,1,2,NPTH
FMAT,2
METRIC
; #@! TA.AperFunction,NonPlated,NPTH,ComponentDrill
T1C0.900
; #@! TA.AperFunction,NonPlated,NPTH,ComponentDrill
T2C1.900
; #@! TA.AperFunction,NonPlated,NPTH,ComponentDrill
T3C3.000
; #@! TA.AperFunction,NonPlated,NPTH,ComponentDrill
T4C3.400
%
G90
G05
T1
X176.155Y-98.503
X176.155Y-98.503
X177.442Y-101.213
X177.442Y-101.213
T2
X44.5Y-65.0
X44.5Y-82.5
X55.5Y-65.0
X55.5Y-82.5
X63.0Y-58.5
X63.0Y-76.0
X63.0Y-93.5
X74.0Y-58.5
X74.0Y-76.0
X74.0Y-93.5
X81.5Y-45.5
X81.5Y-63.0
X81.5Y-80.5
X92.5Y-45.5
X92.5Y-63.0
X92.5Y-80.5
X100.0Y-40.5
X100.0Y-58.0
X100.0Y-75.5
X111.0Y-40.5
X111.0Y-58.0
X111.0Y-75.5
X118.5Y-46.5
X118.5Y-64.0
X118.5Y-81.5
X129.5Y-46.5
X129.5Y-64.0
X129.5Y-81.5
X131.084Y-100.545
X137.0Y-46.5
X137.0Y-64.0
X137.0Y-81.5
X141.916Y-102.455
X148.0Y-46.5
X148.0Y-64.0
X148.0Y-81.5
X152.013Y-106.884
X161.899Y-111.706
X170.366Y-118.537
X178.541Y-125.897
T3
X45.0Y-61.25
X45.0Y-78.75
X50.0Y-59.05
X50.0Y-76.55
X55.0Y-61.25
X55.0Y-78.75
X63.5Y-54.75
X63.5Y-72.25
X63.5Y-89.75
X68.5Y-52.55
X68.5Y-70.05
X68.5Y-87.55
X73.5Y-54.75
X73.5Y-72.25
X73.5Y-89.75
X82.0Y-41.75
X82.0Y-59.25
X82.0Y-76.75
X87.0Y-39.55
X87.0Y-57.05
X87.0Y-74.55
X92.0Y-41.75
X92.0Y-59.25
X92.0Y-76.75
X100.5Y-36.75
X100.5Y-54.25
X100.5Y-71.75
X105.5Y-34.55
X105.5Y-52.05
X105.5Y-69.55
X110.5Y-36.75
X110.5Y-54.25
X110.5Y-71.75
X119.0Y-42.75
X119.0Y-60.25
X119.0Y-77.75
X124.0Y-40.55
X124.0Y-58.05
X124.0Y-75.55
X129.0Y-42.75
X129.0Y-60.25
X129.0Y-77.75
X132.227Y-96.939
X137.5Y-42.75
X137.5Y-60.25
X137.5Y-77.75
X137.533Y-95.64
X142.075Y-98.675
X142.5Y-40.55
X142.5Y-58.05
X142.5Y-75.55
X147.5Y-42.75
X147.5Y-60.25
X147.5Y-77.75
X154.106Y-103.732
X159.564Y-103.947
X163.094Y-108.116
X173.247Y-116.085
X178.435Y-117.796
X180.679Y-122.776
T4
X50.0Y-65.0
X50.0Y-82.5
X68.5Y-58.5
X68.5Y-76.0
X68.5Y-93.5
X87.0Y-45.5
X87.0Y-63.0
X87.0Y-80.5
X105.5Y-40.5
X105.5Y-58.0
X105.5Y-75.5
X124.0Y-46.5
X124.0Y-64.0
X124.0Y-81.5
X136.5Y-101.5
X142.5Y-46.5
X142.5Y-64.0
X142.5Y-81.5
X156.956Y-109.295
X174.454Y-122.217
M30
