%TF.GenerationSoftware,KiCad,Pcbnew,9.0.8-1.fc43*%
%TF.CreationDate,2026-04-05T21:21:20+02:00*%
%TF.ProjectId,oregano_routed,6f726567-616e-46f5-9f72-6f757465642e,v1.0.0*%
%TF.SameCoordinates,Original*%
%TF.FileFunction,Copper,L1,Top*%
%TF.FilePolarity,Positive*%
%FSLAX46Y46*%
G04 Gerber Fmt 4.6, Leading zero omitted, Abs format (unit mm)*
G04 Created by KiCad (PCBNEW 9.0.8-1.fc43) date 2026-04-05 21:21:20*
%MOMM*%
%LPD*%
G01*
G04 APERTURE LIST*
G04 Aperture macros list*
%AMRotRect*
0 Rectangle, with rotation*
0 The origin of the aperture is its center*
0 $1 length*
0 $2 width*
0 $3 Rotation angle, in degrees counterclockwise*
0 Add horizontal line*
21,1,$1,$2,0,0,$3*%
%AMOutline5P*
0 Free polygon, 5 corners , with rotation*
0 The origin of the aperture is its center*
0 number of corners: always 5*
0 $1 to $10 corner X, Y*
0 $11 Rotation angle, in degrees counterclockwise*
0 create outline with 5 corners*
4,1,5,$1,$2,$3,$4,$5,$6,$7,$8,$9,$10,$1,$2,$11*%
%AMOutline6P*
0 Free polygon, 6 corners , with rotation*
0 The origin of the aperture is its center*
0 number of corners: always 6*
0 $1 to $12 corner X, Y*
0 $13 Rotation angle, in degrees counterclockwise*
0 create outline with 6 corners*
4,1,6,$1,$2,$3,$4,$5,$6,$7,$8,$9,$10,$11,$12,$1,$2,$13*%
%AMOutline7P*
0 Free polygon, 7 corners , with rotation*
0 The origin of the aperture is its center*
0 number of corners: always 7*
0 $1 to $14 corner X, Y*
0 $15 Rotation angle, in degrees counterclockwise*
0 create outline with 7 corners*
4,1,7,$1,$2,$3,$4,$5,$6,$7,$8,$9,$10,$11,$12,$13,$14,$1,$2,$15*%
%AMOutline8P*
0 Free polygon, 8 corners , with rotation*
0 The origin of the aperture is its center*
0 number of corners: always 8*
0 $1 to $16 corner X, Y*
0 $17 Rotation angle, in degrees counterclockwise*
0 create outline with 8 corners*
4,1,8,$1,$2,$3,$4,$5,$6,$7,$8,$9,$10,$11,$12,$13,$14,$15,$16,$1,$2,$17*%
%AMFreePoly0*
4,1,6,0.250000,0.000000,-0.250000,-0.625000,-0.500000,-0.625000,-0.500000,0.625000,-0.250000,0.625000,0.250000,0.000000,0.250000,0.000000,$1*%
%AMFreePoly1*
4,1,6,0.500000,-0.625000,-0.650000,-0.625000,-0.150000,0.000000,-0.650000,0.625000,0.500000,0.625000,0.500000,-0.625000,0.500000,-0.625000,$1*%
%AMFreePoly2*
4,1,6,0.600000,-1.000000,0.000000,-0.400000,-0.600000,-1.000000,-0.600000,0.250000,0.600000,0.250000,0.600000,-1.000000,0.600000,-1.000000,$1*%
%AMFreePoly3*
4,1,6,0.600000,-0.200000,0.600000,-0.400000,-0.600000,-0.400000,-0.600000,-0.200000,0.000000,0.400000,0.600000,-0.200000,0.600000,-0.200000,$1*%
G04 Aperture macros list end*
%TA.AperFunction,SMDPad,CuDef*%
%ADD10R,0.900000X1.200000*%
%TD*%
%TA.AperFunction,ComponentPad*%
%ADD11C,3.800000*%
%TD*%
%TA.AperFunction,SMDPad,CuDef*%
%ADD12RotRect,0.900000X1.200000X334.000000*%
%TD*%
%TA.AperFunction,SMDPad,CuDef*%
%ADD13RotRect,1.000000X0.800000X115.400000*%
%TD*%
%TA.AperFunction,SMDPad,CuDef*%
%ADD14RotRect,0.700000X1.500000X115.400000*%
%TD*%
%TA.AperFunction,SMDPad,CuDef*%
%ADD15RotRect,0.900000X1.200000X350.000000*%
%TD*%
%TA.AperFunction,ComponentPad*%
%ADD16O,1.700000X1.700000*%
%TD*%
%TA.AperFunction,ComponentPad*%
%ADD17C,1.700000*%
%TD*%
%TA.AperFunction,SMDPad,CuDef*%
%ADD18R,1.200000X0.600000*%
%TD*%
%TA.AperFunction,SMDPad,CuDef*%
%ADD19FreePoly0,180.000000*%
%TD*%
%TA.AperFunction,SMDPad,CuDef*%
%ADD20FreePoly0,0.000000*%
%TD*%
%TA.AperFunction,ComponentPad*%
%ADD21C,0.800000*%
%TD*%
%TA.AperFunction,SMDPad,CuDef*%
%ADD22FreePoly1,180.000000*%
%TD*%
%TA.AperFunction,SMDPad,CuDef*%
%ADD23FreePoly1,0.000000*%
%TD*%
%TA.AperFunction,SMDPad,CuDef*%
%ADD24FreePoly2,90.000000*%
%TD*%
%TA.AperFunction,ComponentPad*%
%ADD25O,1.750000X1.200000*%
%TD*%
%TA.AperFunction,SMDPad,CuDef*%
%ADD26FreePoly3,90.000000*%
%TD*%
%TA.AperFunction,SMDPad,CuDef*%
%ADD27RotRect,0.900000X1.200000X318.000000*%
%TD*%
%TA.AperFunction,SMDPad,CuDef*%
%ADD28Outline5P,-1.300000X1.300000X1.300000X1.300000X1.300000X-0.117000X0.117000X-1.300000X-1.300000X-1.300000X0.000000*%
%TD*%
%TA.AperFunction,SMDPad,CuDef*%
%ADD29R,2.600000X2.600000*%
%TD*%
%TA.AperFunction,SMDPad,CuDef*%
%ADD30Outline5P,-1.300000X1.300000X1.300000X1.300000X1.300000X-0.117000X0.117000X-1.300000X-1.300000X-1.300000X334.000000*%
%TD*%
%TA.AperFunction,SMDPad,CuDef*%
%ADD31RotRect,2.600000X2.600000X334.000000*%
%TD*%
%TA.AperFunction,SMDPad,CuDef*%
%ADD32Outline5P,-1.300000X1.300000X1.300000X1.300000X1.300000X-0.117000X0.117000X-1.300000X-1.300000X-1.300000X318.000000*%
%TD*%
%TA.AperFunction,SMDPad,CuDef*%
%ADD33RotRect,2.600000X2.600000X318.000000*%
%TD*%
%TA.AperFunction,SMDPad,CuDef*%
%ADD34Outline5P,-1.300000X1.300000X1.300000X1.300000X1.300000X-0.117000X0.117000X-1.300000X-1.300000X-1.300000X350.000000*%
%TD*%
%TA.AperFunction,SMDPad,CuDef*%
%ADD35RotRect,2.600000X2.600000X350.000000*%
%TD*%
%TA.AperFunction,ViaPad*%
%ADD36C,0.600000*%
%TD*%
%TA.AperFunction,Conductor*%
%ADD37C,0.200000*%
%TD*%
%TA.AperFunction,Conductor*%
%ADD38C,0.250000*%
%TD*%
%TA.AperFunction,Conductor*%
%ADD39C,0.400000*%
%TD*%
G04 APERTURE END LIST*
D10*
%TO.P,D1,1*%
%TO.N,P14*%
X48350000Y-85900000D03*
%TO.P,D1,2*%
%TO.N,outer_home*%
X51650000Y-85900000D03*
%TD*%
D11*
%TO.P,H4,*%
%TO.N,*%
X133250000Y-55250000D03*
%TD*%
D10*
%TO.P,D14,1*%
%TO.N,P15*%
X122350000Y-49900000D03*
%TO.P,D14,2*%
%TO.N,index_top*%
X125650000Y-49900000D03*
%TD*%
%TO.P,D16,1*%
%TO.N,P14*%
X140850000Y-67400000D03*
%TO.P,D16,2*%
%TO.N,inner_home*%
X144150000Y-67400000D03*
%TD*%
%TO.P,D7,1*%
%TO.N,P14*%
X85350000Y-66400000D03*
%TO.P,D7,2*%
%TO.N,ring_home*%
X88650000Y-66400000D03*
%TD*%
%TO.P,D9,1*%
%TO.N,P16*%
X103850000Y-78900000D03*
%TO.P,D9,2*%
%TO.N,middle_bottom*%
X107150000Y-78900000D03*
%TD*%
D12*
%TO.P,D19,1*%
%TO.N,P10*%
X153982527Y-111627307D03*
%TO.P,D19,2*%
%TO.N,home_row*%
X156948547Y-113073931D03*
%TD*%
D11*
%TO.P,H5,*%
%TO.N,*%
X165704810Y-115755980D03*
%TD*%
%TO.P,H1,*%
%TO.N,*%
X59500000Y-67350000D03*
%TD*%
D13*
%TO.P,T1,*%
%TO.N,*%
X179357383Y-102683797D03*
X177361012Y-103631743D03*
D14*
X174243126Y-98580873D03*
D13*
X174229785Y-97037396D03*
X176226156Y-96089449D03*
D14*
%TO.P,T1,1*%
%TO.N,BAT_P*%
X176173335Y-102645882D03*
%TO.P,T1,2*%
%TO.N,RAW*%
X174886529Y-99935876D03*
%TD*%
D15*
%TO.P,D18,1*%
%TO.N,P10*%
X134284663Y-104561827D03*
%TO.P,D18,2*%
%TO.N,near_row*%
X137534529Y-105134865D03*
%TD*%
D11*
%TO.P,H7,*%
%TO.N,*%
X171500000Y-79500000D03*
%TD*%
D10*
%TO.P,D5,1*%
%TO.N,P15*%
X66850000Y-61900000D03*
%TO.P,D5,2*%
%TO.N,pinky_top*%
X70150000Y-61900000D03*
%TD*%
%TO.P,D13,1*%
%TO.N,P14*%
X122350000Y-67400000D03*
%TO.P,D13,2*%
%TO.N,index_home*%
X125650000Y-67400000D03*
%TD*%
D11*
%TO.P,H2,*%
%TO.N,*%
X96250000Y-81000000D03*
%TD*%
D10*
%TO.P,D10,1*%
%TO.N,P14*%
X103850000Y-61400000D03*
%TO.P,D10,2*%
%TO.N,middle_home*%
X107150000Y-61400000D03*
%TD*%
D16*
%TO.P,DISP1,1*%
%TO.N,DISP1_1*%
X158420000Y-74700000D03*
%TO.P,DISP1,2*%
%TO.N,DISP1_2*%
X160960000Y-74700000D03*
%TO.P,DISP1,3*%
%TO.N,VCC*%
X163500000Y-74700000D03*
%TO.P,DISP1,4*%
%TO.N,DISP1_4*%
X166040000Y-74700000D03*
D17*
%TO.P,DISP1,5*%
%TO.N,DISP1_5*%
X168580000Y-74700000D03*
D18*
%TO.P,DISP1,10*%
%TO.N,P1*%
X158420000Y-77350000D03*
%TO.P,DISP1,11*%
%TO.N,GND*%
X160960000Y-77350000D03*
%TO.P,DISP1,12*%
%TO.N,P3*%
X166040000Y-77350000D03*
%TO.P,DISP1,13*%
%TO.N,P2*%
X168580000Y-77350000D03*
%TO.P,DISP1,14*%
%TO.N,DISP1_1*%
X158420000Y-76450000D03*
%TO.P,DISP1,15*%
%TO.N,DISP1_2*%
X160960000Y-76450000D03*
%TO.P,DISP1,16*%
%TO.N,DISP1_4*%
X166040000Y-76450000D03*
%TO.P,DISP1,17*%
%TO.N,DISP1_5*%
X168580000Y-76450000D03*
%TD*%
D10*
%TO.P,D8,1*%
%TO.N,P15*%
X85350000Y-48900000D03*
%TO.P,D8,2*%
%TO.N,ring_top*%
X88650000Y-48900000D03*
%TD*%
%TO.P,D15,1*%
%TO.N,P16*%
X140850000Y-84900000D03*
%TO.P,D15,2*%
%TO.N,inner_bottom*%
X144150000Y-84900000D03*
%TD*%
D11*
%TO.P,H6,*%
%TO.N,*%
X155500000Y-79500000D03*
%TD*%
%TO.P,H3,*%
%TO.N,*%
X96250000Y-49250000D03*
%TD*%
D19*
%TO.P,MCU1,1*%
%TO.N,MCU1_1*%
X169000000Y-41800000D03*
D17*
X171120000Y-41800000D03*
D19*
%TO.P,MCU1,2*%
%TO.N,MCU1_2*%
X169000000Y-44340000D03*
D17*
X171120000Y-44340000D03*
D19*
%TO.P,MCU1,3*%
%TO.N,MCU1_3*%
X169000000Y-46880000D03*
D17*
X171120000Y-46880000D03*
D19*
%TO.P,MCU1,4*%
%TO.N,MCU1_4*%
X169000000Y-49420000D03*
D17*
X171120000Y-49420000D03*
D19*
%TO.P,MCU1,5*%
%TO.N,MCU1_5*%
X169000000Y-51960000D03*
D17*
X171120000Y-51960000D03*
D19*
%TO.P,MCU1,6*%
%TO.N,MCU1_6*%
X169000000Y-54500000D03*
D17*
X171120000Y-54500000D03*
D19*
%TO.P,MCU1,7*%
%TO.N,MCU1_7*%
X169000000Y-57040000D03*
D17*
X171120000Y-57040000D03*
D19*
%TO.P,MCU1,8*%
%TO.N,MCU1_8*%
X169000000Y-59580000D03*
D17*
X171120000Y-59580000D03*
D19*
%TO.P,MCU1,9*%
%TO.N,MCU1_9*%
X169000000Y-62120000D03*
D17*
X171120000Y-62120000D03*
D19*
%TO.P,MCU1,10*%
%TO.N,MCU1_10*%
X169000000Y-64660000D03*
D17*
X171120000Y-64660000D03*
D19*
%TO.P,MCU1,11*%
%TO.N,MCU1_11*%
X169000000Y-67200000D03*
D17*
X171120000Y-67200000D03*
D19*
%TO.P,MCU1,12*%
%TO.N,MCU1_12*%
X169000000Y-69740000D03*
D17*
X171120000Y-69740000D03*
%TO.P,MCU1,13*%
%TO.N,MCU1_13*%
X155880000Y-69740000D03*
D20*
X158000000Y-69740000D03*
D17*
%TO.P,MCU1,14*%
%TO.N,MCU1_14*%
X155880000Y-67200000D03*
D20*
X158000000Y-67200000D03*
D17*
%TO.P,MCU1,15*%
%TO.N,MCU1_15*%
X155880000Y-64660000D03*
D20*
X158000000Y-64660000D03*
D17*
%TO.P,MCU1,16*%
%TO.N,MCU1_16*%
X155880000Y-62120000D03*
D20*
X158000000Y-62120000D03*
D17*
%TO.P,MCU1,17*%
%TO.N,MCU1_17*%
X155880000Y-59580000D03*
D20*
X158000000Y-59580000D03*
D17*
%TO.P,MCU1,18*%
%TO.N,MCU1_18*%
X155880000Y-57040000D03*
D20*
X158000000Y-57040000D03*
D17*
%TO.P,MCU1,19*%
%TO.N,MCU1_19*%
X155880000Y-54500000D03*
D20*
X158000000Y-54500000D03*
D17*
%TO.P,MCU1,20*%
%TO.N,MCU1_20*%
X155880000Y-51960000D03*
D20*
X158000000Y-51960000D03*
D17*
%TO.P,MCU1,21*%
%TO.N,MCU1_21*%
X155880000Y-49420000D03*
D20*
X158000000Y-49420000D03*
D17*
%TO.P,MCU1,22*%
%TO.N,MCU1_22*%
X155880000Y-46880000D03*
D20*
X158000000Y-46880000D03*
D17*
%TO.P,MCU1,23*%
%TO.N,MCU1_23*%
X155880000Y-44340000D03*
D20*
X158000000Y-44340000D03*
D17*
%TO.P,MCU1,24*%
%TO.N,MCU1_24*%
X155880000Y-41800000D03*
D20*
X158000000Y-41800000D03*
D21*
%TO.P,MCU1,101*%
%TO.N,RAW*%
X166900000Y-41800000D03*
D22*
X168275000Y-41800000D03*
D21*
%TO.P,MCU1,102*%
%TO.N,GND*%
X166900000Y-44340000D03*
D22*
X168275000Y-44340000D03*
D21*
%TO.P,MCU1,103*%
%TO.N,RST*%
X166900000Y-46880000D03*
D22*
X168275000Y-46880000D03*
D21*
%TO.P,MCU1,104*%
%TO.N,VCC*%
X166900000Y-49420000D03*
D22*
X168275000Y-49420000D03*
D21*
%TO.P,MCU1,105*%
%TO.N,P21*%
X166900000Y-51960000D03*
D22*
X168275000Y-51960000D03*
D21*
%TO.P,MCU1,106*%
%TO.N,P20*%
X166900000Y-54500000D03*
D22*
X168275000Y-54500000D03*
D21*
%TO.P,MCU1,107*%
%TO.N,P19*%
X166900000Y-57040000D03*
D22*
X168275000Y-57040000D03*
D21*
%TO.P,MCU1,108*%
%TO.N,P18*%
X166900000Y-59580000D03*
D22*
X168275000Y-59580000D03*
D21*
%TO.P,MCU1,109*%
%TO.N,P15*%
X166900000Y-62120000D03*
D22*
X168275000Y-62120000D03*
D21*
%TO.P,MCU1,110*%
%TO.N,P14*%
X166900000Y-64660000D03*
D22*
X168275000Y-64660000D03*
D21*
%TO.P,MCU1,111*%
%TO.N,P16*%
X166900000Y-67200000D03*
D22*
X168275000Y-67200000D03*
D21*
%TO.P,MCU1,112*%
%TO.N,P10*%
X166900000Y-69740000D03*
D22*
X168275000Y-69740000D03*
D23*
%TO.P,MCU1,113*%
%TO.N,P9*%
X158725000Y-69740000D03*
D21*
X160100000Y-69740000D03*
D23*
%TO.P,MCU1,114*%
%TO.N,P8*%
X158725000Y-67200000D03*
D21*
X160100000Y-67200000D03*
D23*
%TO.P,MCU1,115*%
%TO.N,P7*%
X158725000Y-64660000D03*
D21*
X160100000Y-64660000D03*
D23*
%TO.P,MCU1,116*%
%TO.N,P6*%
X158725000Y-62120000D03*
D21*
X160100000Y-62120000D03*
D23*
%TO.P,MCU1,117*%
%TO.N,P5*%
X158725000Y-59580000D03*
D21*
X160100000Y-59580000D03*
D23*
%TO.P,MCU1,118*%
%TO.N,P4*%
X158725000Y-57040000D03*
D21*
X160100000Y-57040000D03*
D23*
%TO.P,MCU1,119*%
%TO.N,P3*%
X158725000Y-54500000D03*
D21*
X160100000Y-54500000D03*
D23*
%TO.P,MCU1,120*%
%TO.N,P2*%
X158725000Y-51960000D03*
D21*
X160100000Y-51960000D03*
D23*
%TO.P,MCU1,121*%
%TO.N,GND*%
X158725000Y-49420000D03*
D21*
X160100000Y-49420000D03*
D23*
%TO.P,MCU1,122*%
X158725000Y-46880000D03*
D21*
X160100000Y-46880000D03*
D23*
%TO.P,MCU1,123*%
%TO.N,P0*%
X158725000Y-44340000D03*
D21*
X160100000Y-44340000D03*
D23*
%TO.P,MCU1,124*%
%TO.N,P1*%
X158725000Y-41800000D03*
D21*
X160100000Y-41800000D03*
%TD*%
D10*
%TO.P,D11,1*%
%TO.N,P15*%
X103850000Y-43900000D03*
%TO.P,D11,2*%
%TO.N,middle_top*%
X107150000Y-43900000D03*
%TD*%
D24*
%TO.P,JST1,1*%
%TO.N,BAT_P*%
X166684000Y-92500000D03*
%TO.P,JST1,2*%
%TO.N,GND*%
X166684000Y-94500000D03*
D25*
%TO.P,JST1,11*%
%TO.N,JST1_1*%
X169500000Y-92500000D03*
%TO.P,JST1,12*%
%TO.N,JST1_2*%
X169500000Y-94500000D03*
D26*
%TO.P,JST1,21*%
%TO.N,JST1_1*%
X167700000Y-92500000D03*
%TO.P,JST1,22*%
%TO.N,JST1_2*%
X167700000Y-94500000D03*
%TD*%
D10*
%TO.P,D12,1*%
%TO.N,P16*%
X122350000Y-84900000D03*
%TO.P,D12,2*%
%TO.N,index_bottom*%
X125650000Y-84900000D03*
%TD*%
D16*
%TO.P,S21,1*%
%TO.N,RST*%
X160250000Y-86000000D03*
%TO.P,S21,2*%
%TO.N,GND*%
X166750000Y-86000000D03*
%TD*%
D10*
%TO.P,D6,1*%
%TO.N,P16*%
X85350000Y-83900000D03*
%TO.P,D6,2*%
%TO.N,ring_bottom*%
X88650000Y-83900000D03*
%TD*%
D27*
%TO.P,D20,1*%
%TO.N,P10*%
X170952387Y-123639867D03*
%TO.P,D20,2*%
%TO.N,far_row*%
X173404765Y-125847999D03*
%TD*%
D10*
%TO.P,D17,1*%
%TO.N,P15*%
X140850000Y-49900000D03*
%TO.P,D17,2*%
%TO.N,inner_top*%
X144150000Y-49900000D03*
%TD*%
%TO.P,D2,1*%
%TO.N,P15*%
X48350000Y-68400000D03*
%TO.P,D2,2*%
%TO.N,outer_top*%
X51650000Y-68400000D03*
%TD*%
%TO.P,D4,1*%
%TO.N,P14*%
X66850000Y-79400000D03*
%TO.P,D4,2*%
%TO.N,pinky_home*%
X70150000Y-79400000D03*
%TD*%
%TO.P,D3,1*%
%TO.N,P16*%
X66850000Y-96900000D03*
%TO.P,D3,2*%
%TO.N,pinky_bottom*%
X70150000Y-96900000D03*
%TD*%
D28*
%TO.P,S10,1*%
%TO.N,P7*%
X108775000Y-52050000D03*
D29*
%TO.P,S10,2*%
%TO.N,middle_home*%
X97225000Y-54250000D03*
%TD*%
D28*
%TO.P,S15,1*%
%TO.N,P9*%
X145775000Y-75550000D03*
D29*
%TO.P,S15,2*%
%TO.N,inner_bottom*%
X134225000Y-77750000D03*
%TD*%
D28*
%TO.P,S16,1*%
%TO.N,P9*%
X145775000Y-58050000D03*
D29*
%TO.P,S16,2*%
%TO.N,inner_home*%
X134225000Y-60250000D03*
%TD*%
D28*
%TO.P,S3,1*%
%TO.N,P5*%
X71775000Y-87550000D03*
D29*
%TO.P,S3,2*%
%TO.N,pinky_bottom*%
X60225000Y-89750000D03*
%TD*%
D28*
%TO.P,S1,1*%
%TO.N,P4*%
X53275000Y-76550000D03*
D29*
%TO.P,S1,2*%
%TO.N,outer_home*%
X41725000Y-78750000D03*
%TD*%
D28*
%TO.P,S2,1*%
%TO.N,P4*%
X53275000Y-59050000D03*
D29*
%TO.P,S2,2*%
%TO.N,outer_top*%
X41725000Y-61250000D03*
%TD*%
D28*
%TO.P,S13,1*%
%TO.N,P8*%
X127275000Y-58050000D03*
D29*
%TO.P,S13,2*%
%TO.N,index_home*%
X115725000Y-60250000D03*
%TD*%
D28*
%TO.P,S4,1*%
%TO.N,P5*%
X71775000Y-70050000D03*
D29*
%TO.P,S4,2*%
%TO.N,pinky_home*%
X60225000Y-72250000D03*
%TD*%
D28*
%TO.P,S9,1*%
%TO.N,P7*%
X108775000Y-69550000D03*
D29*
%TO.P,S9,2*%
%TO.N,middle_bottom*%
X97225000Y-71750000D03*
%TD*%
D30*
%TO.P,S19,1*%
%TO.N,P5*%
X162507858Y-105382561D03*
D31*
%TO.P,S19,2*%
%TO.N,home_row*%
X151162370Y-102296721D03*
%TD*%
D28*
%TO.P,S8,1*%
%TO.N,P6*%
X90275000Y-39550000D03*
D29*
%TO.P,S8,2*%
%TO.N,ring_top*%
X78725000Y-41750000D03*
%TD*%
D28*
%TO.P,S17,1*%
%TO.N,P9*%
X145775000Y-40550000D03*
D29*
%TO.P,S17,2*%
%TO.N,inner_top*%
X134225000Y-42750000D03*
%TD*%
D32*
%TO.P,S20,1*%
%TO.N,P6*%
X180868747Y-119986931D03*
D33*
%TO.P,S20,2*%
%TO.N,far_row*%
X170813337Y-113893391D03*
%TD*%
D28*
%TO.P,S14,1*%
%TO.N,P8*%
X127275000Y-40550000D03*
D29*
%TO.P,S14,2*%
%TO.N,index_top*%
X115725000Y-42750000D03*
%TD*%
D28*
%TO.P,S6,1*%
%TO.N,P6*%
X90275000Y-74550000D03*
D29*
%TO.P,S6,2*%
%TO.N,ring_bottom*%
X78725000Y-76750000D03*
%TD*%
D28*
%TO.P,S5,1*%
%TO.N,P5*%
X71775000Y-52550000D03*
D29*
%TO.P,S5,2*%
%TO.N,pinky_top*%
X60225000Y-54750000D03*
%TD*%
D28*
%TO.P,S7,1*%
%TO.N,P6*%
X90275000Y-57050000D03*
D29*
%TO.P,S7,2*%
%TO.N,ring_home*%
X78725000Y-59250000D03*
%TD*%
D28*
%TO.P,S11,1*%
%TO.N,P7*%
X108775000Y-34550000D03*
D29*
%TO.P,S11,2*%
%TO.N,middle_top*%
X97225000Y-36750000D03*
%TD*%
D28*
%TO.P,S12,1*%
%TO.N,P8*%
X127275000Y-75550000D03*
D29*
%TO.P,S12,2*%
%TO.N,index_bottom*%
X115725000Y-77750000D03*
%TD*%
D34*
%TO.P,S18,1*%
%TO.N,P4*%
X140758452Y-96209092D03*
D35*
%TO.P,S18,2*%
%TO.N,near_row*%
X129001897Y-96370032D03*
%TD*%
D36*
%TO.N,P4*%
X57775000Y-76550000D03*
X57775000Y-59050000D03*
X57775000Y-76550000D03*
X152800000Y-55800000D03*
X145190087Y-96990509D03*
%TO.N,outer_home*%
X42225000Y-76550000D03*
X52850000Y-85900000D03*
%TO.N,GND*%
X171100000Y-93500000D03*
X163500000Y-78500000D03*
%TO.N,outer_top*%
X42225000Y-59050000D03*
X52850000Y-68400000D03*
%TO.N,P5*%
X76275000Y-52550000D03*
X151199994Y-67000000D03*
X76275000Y-70050000D03*
X83800000Y-70000000D03*
X166552431Y-107355231D03*
X76275000Y-87550000D03*
%TO.N,pinky_bottom*%
X60725000Y-87550000D03*
X71350000Y-96900000D03*
%TO.N,pinky_home*%
X60725000Y-70050000D03*
X71350000Y-79400000D03*
%TO.N,pinky_top*%
X71350000Y-61900000D03*
X60725000Y-52550000D03*
%TO.N,P6*%
X94775000Y-39550000D03*
X94775000Y-74550000D03*
X151999997Y-67000000D03*
X94775000Y-57050000D03*
X184212899Y-122998019D03*
%TO.N,ring_bottom*%
X89850000Y-83900000D03*
X79225000Y-74550000D03*
%TO.N,ring_home*%
X89850000Y-66400000D03*
X79225000Y-57050000D03*
%TO.N,ring_top*%
X89850000Y-48900000D03*
X79225000Y-39550000D03*
%TO.N,P7*%
X113275000Y-34550000D03*
X152800000Y-67000000D03*
X113275000Y-69550000D03*
X113275000Y-52050000D03*
%TO.N,middle_bottom*%
X97725000Y-69550000D03*
X108350000Y-78900000D03*
%TO.N,middle_home*%
X108350000Y-61400000D03*
X97725000Y-52050000D03*
%TO.N,middle_top*%
X108350000Y-43900000D03*
X97725000Y-34550000D03*
%TO.N,P8*%
X131775000Y-40550000D03*
X131775000Y-58050000D03*
X153600000Y-67000000D03*
X131775000Y-75550000D03*
%TO.N,index_bottom*%
X116225000Y-75550000D03*
X126850000Y-84900000D03*
%TO.N,index_home*%
X116225000Y-58050000D03*
X126850000Y-67400000D03*
%TO.N,index_top*%
X126850000Y-49900000D03*
X116225000Y-40550000D03*
%TO.N,P9*%
X150275000Y-40550000D03*
X150275000Y-58050000D03*
X150275000Y-75550000D03*
%TO.N,inner_bottom*%
X145350000Y-84900000D03*
X134725000Y-75550000D03*
%TO.N,inner_home*%
X145350000Y-67400000D03*
X134725000Y-58050000D03*
%TO.N,inner_top*%
X145350000Y-49900000D03*
X134725000Y-40550000D03*
%TO.N,near_row*%
X138716298Y-105343244D03*
X129876326Y-94290279D03*
%TO.N,home_row*%
X152576184Y-100538559D03*
X158027101Y-113599977D03*
%TO.N,far_row*%
X172656997Y-112593038D03*
X174296539Y-126650955D03*
%TO.N,P14*%
X121150000Y-67400000D03*
X139650000Y-67400000D03*
X102650000Y-61400000D03*
X47150000Y-85900000D03*
X84150000Y-66400000D03*
X65650000Y-79400000D03*
%TO.N,P15*%
X121150000Y-49900000D03*
X84150000Y-48900000D03*
X47150000Y-68400000D03*
X102650000Y-43900000D03*
X65650000Y-61900000D03*
X139650000Y-49900000D03*
X65650000Y-61900000D03*
%TO.N,P16*%
X121150000Y-84900000D03*
X65650000Y-96900000D03*
X102650000Y-78900000D03*
X84150000Y-83900000D03*
X139650000Y-84900000D03*
%TO.N,P10*%
X151200000Y-111101262D03*
X170060614Y-122836910D03*
X133102894Y-104353449D03*
%TO.N,RAW*%
X172600000Y-99300000D03*
%TO.N,P1*%
X163500000Y-80100006D03*
%TO.N,P2*%
X163500000Y-79300003D03*
%TO.N,P3*%
X163500000Y-77651470D03*
%TO.N,BAT_P*%
X171000000Y-98600000D03*
%TD*%
D37*
%TO.N,P4*%
X56600520Y-66600520D02*
X56600520Y-75375520D01*
X56600520Y-75375520D02*
X57775000Y-76550000D01*
X76400000Y-57900000D02*
X76400000Y-61600000D01*
X97000000Y-44600000D02*
X90800000Y-50800000D01*
X59601040Y-63600000D02*
X56600520Y-66600520D01*
X90800000Y-50800000D02*
X83500000Y-50800000D01*
X74400000Y-63600000D02*
X59601040Y-63600000D01*
X103400000Y-46800000D02*
X101200000Y-44600000D01*
X53275000Y-59050000D02*
X57775000Y-59050000D01*
X152800000Y-55800000D02*
X152800000Y-52600000D01*
X114600000Y-46800000D02*
X103400000Y-46800000D01*
X152000000Y-51800000D02*
X119600000Y-51800000D01*
X76400000Y-61600000D02*
X74400000Y-63600000D01*
X53275000Y-76550000D02*
X57775000Y-76550000D01*
X152800000Y-52600000D02*
X152000000Y-51800000D01*
X101200000Y-44600000D02*
X97000000Y-44600000D01*
X83500000Y-50800000D02*
X76400000Y-57900000D01*
X119600000Y-51800000D02*
X114600000Y-46800000D01*
D38*
X158725000Y-57040000D02*
X160100000Y-57040000D01*
D37*
X140758452Y-96209092D02*
X145190087Y-96990509D01*
%TO.N,outer_home*%
X42225000Y-76550000D02*
X46949138Y-76550000D01*
X46949138Y-76550000D02*
X52850000Y-82450862D01*
X42225000Y-78750000D02*
X42225000Y-76550000D01*
D38*
X51650000Y-85900000D02*
X52850000Y-85900000D01*
D37*
X52850000Y-82450862D02*
X52850000Y-85900000D01*
D39*
%TO.N,GND*%
X168275000Y-44340000D02*
X166900000Y-44340000D01*
X161750000Y-77350000D02*
X162900000Y-78500000D01*
D37*
X160100000Y-49700000D02*
X160100000Y-49420000D01*
D39*
X159800000Y-87800000D02*
X158600000Y-86600000D01*
X163500000Y-78500000D02*
X160700000Y-78500000D01*
X158725000Y-49420000D02*
X160100000Y-49420000D01*
X157800000Y-71400000D02*
X161200000Y-71400000D01*
X155150000Y-55750000D02*
X154400000Y-55000000D01*
X164950000Y-87800000D02*
X159800000Y-87800000D01*
X171100000Y-93500000D02*
X171100000Y-87350000D01*
X158600000Y-86600000D02*
X158600000Y-79030000D01*
X172400000Y-56400000D02*
X171750000Y-55750000D01*
X155330000Y-50670000D02*
X159130000Y-50670000D01*
X171100000Y-93500000D02*
X167684000Y-93500000D01*
X171400000Y-71400000D02*
X172400000Y-70400000D01*
X158725000Y-46880000D02*
X160100000Y-46880000D01*
X161200000Y-71400000D02*
X171400000Y-71400000D01*
X166750000Y-86000000D02*
X164950000Y-87800000D01*
X157000000Y-72200000D02*
X157800000Y-71400000D01*
X172400000Y-70400000D02*
X172400000Y-56400000D01*
X171750000Y-55750000D02*
X155150000Y-55750000D01*
X161480000Y-45500000D02*
X165750000Y-45500000D01*
X154400000Y-51600000D02*
X155330000Y-50670000D01*
X160700000Y-78500000D02*
X159710000Y-77510000D01*
X160100000Y-46880000D02*
X161480000Y-45500000D01*
X158600000Y-79030000D02*
X157000000Y-77430000D01*
X167684000Y-93500000D02*
X166684000Y-94500000D01*
X157000000Y-77430000D02*
X157000000Y-72200000D01*
X160960000Y-77350000D02*
X161750000Y-77350000D01*
X154400000Y-55000000D02*
X154400000Y-51600000D01*
D37*
X162900000Y-78500000D02*
X163500000Y-78500000D01*
X165750000Y-45500000D02*
X165750000Y-45490000D01*
D39*
X165750000Y-45490000D02*
X166900000Y-44340000D01*
X171100000Y-87350000D02*
X169750000Y-86000000D01*
X160100000Y-49420000D02*
X160100000Y-46880000D01*
X169750000Y-86000000D02*
X166750000Y-86000000D01*
X159710000Y-77510000D02*
X159710000Y-72890000D01*
X159130000Y-50670000D02*
X160100000Y-49700000D01*
X159710000Y-72890000D02*
X161200000Y-71400000D01*
D37*
%TO.N,outer_top*%
X52850000Y-64950862D02*
X52850000Y-68400000D01*
D38*
X51650000Y-68400000D02*
X52850000Y-68400000D01*
D37*
X42225000Y-59050000D02*
X46949138Y-59050000D01*
X42225000Y-61250000D02*
X42225000Y-59050000D01*
X46949138Y-59050000D02*
X52850000Y-64950862D01*
%TO.N,P5*%
X150450000Y-71800000D02*
X151200000Y-71050000D01*
X83800000Y-70000000D02*
X95000000Y-70000000D01*
X71775000Y-52550000D02*
X76275000Y-52550000D01*
X151200000Y-71050000D02*
X151200000Y-67000006D01*
X95000000Y-70000000D02*
X98200000Y-66800000D01*
X119800000Y-71800000D02*
X150450000Y-71800000D01*
X114800000Y-66800000D02*
X119800000Y-71800000D01*
X98200000Y-66800000D02*
X114800000Y-66800000D01*
X162507858Y-105382560D02*
X166552431Y-107355231D01*
X151200000Y-67000006D02*
X151199994Y-67000000D01*
D38*
X158725000Y-59580000D02*
X160100000Y-59580000D01*
D37*
X71775000Y-70050000D02*
X76275000Y-70050000D01*
X71775000Y-87550000D02*
X76275000Y-87550000D01*
D38*
%TO.N,pinky_bottom*%
X70150000Y-96900000D02*
X71350000Y-96900000D01*
D37*
X71350000Y-93450862D02*
X71350000Y-96900000D01*
X65449138Y-87550000D02*
X71350000Y-93450862D01*
X60725000Y-89750000D02*
X60725000Y-87550000D01*
X60725000Y-87550000D02*
X65449138Y-87550000D01*
D38*
%TO.N,pinky_home*%
X70150000Y-79400000D02*
X71350000Y-79400000D01*
D37*
X60725000Y-70050000D02*
X65449138Y-70050000D01*
X60725000Y-72250000D02*
X60725000Y-70050000D01*
X65449138Y-70050000D02*
X71350000Y-75950862D01*
X71350000Y-75950862D02*
X71350000Y-79400000D01*
%TO.N,pinky_top*%
X60725000Y-54750000D02*
X60725000Y-52550000D01*
X71350000Y-58350000D02*
X71350000Y-61900000D01*
X60725000Y-52550000D02*
X65550000Y-52550000D01*
X65550000Y-52550000D02*
X71350000Y-58350000D01*
D38*
X70150000Y-61900000D02*
X71350000Y-61900000D01*
D37*
%TO.N,P6*%
X152000000Y-67000003D02*
X152000000Y-71000000D01*
X152000000Y-71000000D02*
X150600000Y-72400000D01*
X119225000Y-72400000D02*
X114525000Y-67700000D01*
X180868747Y-119986931D02*
X184212899Y-122998019D01*
D38*
X158725000Y-62120000D02*
X160100000Y-62120000D01*
D37*
X150600000Y-72400000D02*
X119225000Y-72400000D01*
X114525000Y-67700000D02*
X98075000Y-67700000D01*
X90275000Y-57050000D02*
X94775000Y-57050000D01*
X94775000Y-71000000D02*
X94775000Y-74550000D01*
X151999997Y-67000000D02*
X152000000Y-67000003D01*
X98075000Y-67700000D02*
X94775000Y-71000000D01*
X90275000Y-74550000D02*
X94775000Y-74550000D01*
X90275000Y-39550000D02*
X94775000Y-39550000D01*
%TO.N,ring_bottom*%
X83949138Y-74550000D02*
X89850000Y-80450862D01*
X79225000Y-76750000D02*
X79225000Y-74550000D01*
D38*
X88650000Y-83900000D02*
X89850000Y-83900000D01*
D37*
X79225000Y-74550000D02*
X83949138Y-74550000D01*
X89850000Y-80450862D02*
X89850000Y-83900000D01*
%TO.N,ring_home*%
X79225000Y-57050000D02*
X83949138Y-57050000D01*
X83949138Y-57050000D02*
X89850000Y-62950862D01*
D38*
X88650000Y-66400000D02*
X89850000Y-66400000D01*
D37*
X79225000Y-59250000D02*
X79225000Y-57050000D01*
X89850000Y-62950862D02*
X89850000Y-66400000D01*
%TO.N,ring_top*%
X79225000Y-41750000D02*
X79225000Y-39550000D01*
X79225000Y-39550000D02*
X83949138Y-39550000D01*
X83949138Y-39550000D02*
X89850000Y-45450862D01*
D38*
X88650000Y-48900000D02*
X89850000Y-48900000D01*
D37*
X89850000Y-45450862D02*
X89850000Y-48900000D01*
D38*
%TO.N,P7*%
X115550000Y-69550000D02*
X113275000Y-69550000D01*
D37*
X108775000Y-34550000D02*
X113275000Y-34550000D01*
D38*
X152800000Y-71700000D02*
X151500000Y-73000000D01*
D37*
X108775000Y-69550000D02*
X113275000Y-69550000D01*
D38*
X151500000Y-73000000D02*
X119000000Y-73000000D01*
D37*
X108775000Y-52050000D02*
X113275000Y-52050000D01*
D38*
X119000000Y-73000000D02*
X115550000Y-69550000D01*
X152800000Y-67000000D02*
X152800000Y-71700000D01*
X158725000Y-64660000D02*
X160100000Y-64660000D01*
%TO.N,middle_bottom*%
X107150000Y-78900000D02*
X108350000Y-78900000D01*
D37*
X102449138Y-69550000D02*
X108350000Y-75450862D01*
X108350000Y-75450862D02*
X108350000Y-78900000D01*
X97725000Y-69550000D02*
X102449138Y-69550000D01*
X97725000Y-71750000D02*
X97725000Y-69550000D01*
%TO.N,middle_home*%
X108350000Y-57950862D02*
X108350000Y-61400000D01*
D38*
X107150000Y-61400000D02*
X108350000Y-61400000D01*
D37*
X97725000Y-52050000D02*
X102449138Y-52050000D01*
X97725000Y-54250000D02*
X97725000Y-52050000D01*
X102449138Y-52050000D02*
X108350000Y-57950862D01*
%TO.N,middle_top*%
X102449138Y-34550000D02*
X108350000Y-40450862D01*
X108350000Y-40450862D02*
X108350000Y-43900000D01*
X97725000Y-36750000D02*
X97725000Y-34550000D01*
X97725000Y-34550000D02*
X102449138Y-34550000D01*
D38*
X107150000Y-43900000D02*
X108350000Y-43900000D01*
%TO.N,P8*%
X153600000Y-71900000D02*
X151900000Y-73600000D01*
D37*
X127275000Y-58050000D02*
X131775000Y-58050000D01*
D38*
X133725000Y-73600000D02*
X131775000Y-75550000D01*
D37*
X127275000Y-75550000D02*
X131775000Y-75550000D01*
D38*
X151900000Y-73600000D02*
X133725000Y-73600000D01*
X153600000Y-67000000D02*
X153600000Y-71900000D01*
D37*
X127275000Y-40550000D02*
X131775000Y-40550000D01*
D38*
X158725000Y-67200000D02*
X160100000Y-67200000D01*
D37*
%TO.N,index_bottom*%
X116225000Y-75550000D02*
X120949138Y-75550000D01*
X116225000Y-77750000D02*
X116225000Y-75550000D01*
X120949138Y-75550000D02*
X126850000Y-81450862D01*
D38*
X125650000Y-84900000D02*
X126850000Y-84900000D01*
D37*
X126850000Y-81450862D02*
X126850000Y-84900000D01*
%TO.N,index_home*%
X116225000Y-60250000D02*
X116225000Y-58050000D01*
X116225000Y-58050000D02*
X120949138Y-58050000D01*
D38*
X125650000Y-67400000D02*
X126850000Y-67400000D01*
D37*
X120949138Y-58050000D02*
X126850000Y-63950862D01*
X126850000Y-63950862D02*
X126850000Y-67400000D01*
%TO.N,index_top*%
X116225000Y-40550000D02*
X121383705Y-40550000D01*
X121383705Y-40550000D02*
X126850000Y-46016295D01*
X116225000Y-42750000D02*
X116225000Y-40550000D01*
D38*
X125650000Y-49900000D02*
X126850000Y-49900000D01*
D37*
X126850000Y-46016295D02*
X126850000Y-49900000D01*
D38*
%TO.N,P9*%
X158725000Y-69740000D02*
X160100000Y-69740000D01*
D37*
X145775000Y-75550000D02*
X150275000Y-75550000D01*
X145775000Y-58050000D02*
X150275000Y-58050000D01*
X145775000Y-40550000D02*
X150275000Y-40550000D01*
%TO.N,inner_bottom*%
X145350000Y-81450862D02*
X145350000Y-84900000D01*
X134725000Y-75550000D02*
X139449138Y-75550000D01*
X139449138Y-75550000D02*
X145350000Y-81450862D01*
X134725000Y-77750000D02*
X134725000Y-75550000D01*
D38*
X144150000Y-84900000D02*
X145350000Y-84900000D01*
D37*
%TO.N,inner_home*%
X134725000Y-58050000D02*
X139449138Y-58050000D01*
D38*
X144150000Y-67400000D02*
X145350000Y-67400000D01*
D37*
X139449138Y-58050000D02*
X145350000Y-63950862D01*
X134725000Y-60250000D02*
X134725000Y-58050000D01*
X145350000Y-63950862D02*
X145350000Y-67400000D01*
D38*
%TO.N,inner_top*%
X144150000Y-49900000D02*
X145350000Y-49900000D01*
D37*
X134725000Y-42750000D02*
X134725000Y-40550000D01*
X145350000Y-46450862D02*
X145350000Y-49900000D01*
X139449138Y-40550000D02*
X145350000Y-46450862D01*
X134725000Y-40550000D02*
X139449138Y-40550000D01*
%TO.N,near_row*%
X133566797Y-94290279D02*
X138716298Y-99439780D01*
X129876326Y-94290279D02*
X133566797Y-94290279D01*
X129494300Y-96456856D02*
X129876326Y-94290279D01*
D38*
X137534529Y-105134866D02*
X138716298Y-105343244D01*
D37*
X138716298Y-99439780D02*
X138716298Y-105343244D01*
%TO.N,home_row*%
X152576184Y-100538559D02*
X153528388Y-100538559D01*
X159005999Y-112621079D02*
X158027101Y-113599977D01*
D38*
X156948548Y-113073932D02*
X158027101Y-113599977D01*
D37*
X153528388Y-100538559D02*
X159005999Y-106016170D01*
X151611767Y-102515906D02*
X152576184Y-100538559D01*
X159005999Y-106016170D02*
X159005999Y-112621079D01*
D38*
%TO.N,far_row*%
X173404765Y-125847998D02*
X174296539Y-126650955D01*
D37*
X176503621Y-116439662D02*
X176503621Y-124443873D01*
X172656997Y-112593038D02*
X176503621Y-116439662D01*
X176503621Y-124443873D02*
X174296539Y-126650955D01*
X171184909Y-114227957D02*
X172656997Y-112593038D01*
D38*
%TO.N,P14*%
X140200000Y-68400000D02*
X139650000Y-67850000D01*
X83400000Y-67150000D02*
X84150000Y-66400000D01*
X139200000Y-67400000D02*
X139650000Y-67400000D01*
X139650000Y-67850000D02*
X139650000Y-67400000D01*
X145600000Y-68400000D02*
X140200000Y-68400000D01*
X148000000Y-66000000D02*
X145600000Y-68400000D01*
X140850000Y-67400000D02*
X139650000Y-67400000D01*
X84525000Y-67325000D02*
X96725000Y-67325000D01*
X106800000Y-66000000D02*
X119750000Y-66000000D01*
X102650000Y-61400000D02*
X102650000Y-61850000D01*
X122350000Y-67400000D02*
X121150000Y-67400000D01*
X65650000Y-79400000D02*
X65650000Y-79850000D01*
X58225000Y-86825000D02*
X65650000Y-79400000D01*
X119750000Y-66000000D02*
X121150000Y-67400000D01*
X168275000Y-64660000D02*
X166900000Y-64660000D01*
X84150000Y-66950000D02*
X84525000Y-67325000D01*
X70048833Y-81825000D02*
X83400000Y-68473833D01*
X121150000Y-67750000D02*
X121725000Y-68325000D01*
X66850000Y-79400000D02*
X65650000Y-79400000D01*
X65650000Y-79850000D02*
X67625000Y-81825000D01*
X48350000Y-85900000D02*
X47150000Y-85900000D01*
X102650000Y-61850000D02*
X106800000Y-66000000D01*
X67625000Y-81825000D02*
X70048833Y-81825000D01*
X47825000Y-86825000D02*
X58225000Y-86825000D01*
X85350000Y-66400000D02*
X84150000Y-66400000D01*
X165560000Y-66000000D02*
X148000000Y-66000000D01*
X138275000Y-68325000D02*
X139200000Y-67400000D01*
X96725000Y-67325000D02*
X102650000Y-61400000D01*
X121150000Y-67400000D02*
X121150000Y-67750000D01*
X103850000Y-61400000D02*
X102650000Y-61400000D01*
X166900000Y-64660000D02*
X165560000Y-66000000D01*
X83400000Y-68473833D02*
X83400000Y-67150000D01*
X84150000Y-66400000D02*
X84150000Y-66950000D01*
X47150000Y-86150000D02*
X47825000Y-86825000D01*
X121725000Y-68325000D02*
X138275000Y-68325000D01*
X47150000Y-85900000D02*
X47150000Y-86150000D01*
%TO.N,P15*%
X85350000Y-48900000D02*
X84150000Y-48900000D01*
D37*
X103600000Y-45800000D02*
X114800000Y-45800000D01*
D38*
X84150000Y-49350000D02*
X84625000Y-49825000D01*
D37*
X102650000Y-43900000D02*
X102650000Y-44850000D01*
D38*
X48350000Y-68400000D02*
X47150000Y-68400000D01*
X47150000Y-68750000D02*
X47725000Y-69325000D01*
X75600000Y-61200000D02*
X75600000Y-57450000D01*
D37*
X139300000Y-49900000D02*
X139650000Y-49900000D01*
X152600000Y-51200000D02*
X153800000Y-52400000D01*
D38*
X47725000Y-69325000D02*
X53275000Y-69325000D01*
X66225000Y-62825000D02*
X73975000Y-62825000D01*
D37*
X138400000Y-50800000D02*
X139300000Y-49900000D01*
D38*
X66850000Y-61900000D02*
X65650000Y-61900000D01*
D37*
X102650000Y-44850000D02*
X103600000Y-45800000D01*
D38*
X103850000Y-43900000D02*
X102650000Y-43900000D01*
D37*
X114800000Y-45800000D02*
X118900000Y-49900000D01*
D38*
X122350000Y-49900000D02*
X121150000Y-49900000D01*
X84625000Y-49825000D02*
X90575000Y-49825000D01*
X65650000Y-61900000D02*
X65650000Y-62250000D01*
X90575000Y-49825000D02*
X96500000Y-43900000D01*
X75600000Y-57450000D02*
X84150000Y-48900000D01*
D37*
X118900000Y-49900000D02*
X121150000Y-49900000D01*
D38*
X73975000Y-62825000D02*
X75600000Y-61200000D01*
D37*
X153800000Y-52400000D02*
X153800000Y-60800000D01*
D38*
X65650000Y-62250000D02*
X66225000Y-62825000D01*
X96500000Y-43900000D02*
X102650000Y-43900000D01*
D37*
X140600000Y-51200000D02*
X152600000Y-51200000D01*
D38*
X84150000Y-48900000D02*
X84150000Y-49350000D01*
D37*
X139650000Y-50250000D02*
X140600000Y-51200000D01*
D38*
X47150000Y-68400000D02*
X47150000Y-68750000D01*
D37*
X139650000Y-49900000D02*
X139650000Y-50250000D01*
D38*
X60700000Y-61900000D02*
X65650000Y-61900000D01*
D37*
X121150000Y-49900000D02*
X121150000Y-50350000D01*
D38*
X168275000Y-62120000D02*
X166900000Y-62120000D01*
D37*
X121600000Y-50800000D02*
X138400000Y-50800000D01*
D38*
X53275000Y-69325000D02*
X60700000Y-61900000D01*
D37*
X153800000Y-60800000D02*
X165580000Y-60800000D01*
X165580000Y-60800000D02*
X166900000Y-62120000D01*
X121150000Y-50350000D02*
X121600000Y-50800000D01*
D38*
X140850000Y-49900000D02*
X139650000Y-49900000D01*
%TO.N,P16*%
X84150000Y-83900000D02*
X84150000Y-84350000D01*
X102650000Y-79450000D02*
X108100000Y-84900000D01*
X122350000Y-84900000D02*
X121150000Y-84900000D01*
X121150000Y-84900000D02*
X121150000Y-85350000D01*
X84625000Y-84825000D02*
X96725000Y-84825000D01*
X96725000Y-84825000D02*
X102650000Y-78900000D01*
X168275000Y-67200000D02*
X166900000Y-67200000D01*
X139300000Y-84900000D02*
X139650000Y-84900000D01*
X139650000Y-85250000D02*
X140225000Y-85825000D01*
X139650000Y-84900000D02*
X139650000Y-85250000D01*
X152550000Y-83650000D02*
X152550000Y-77613604D01*
X138375000Y-85825000D02*
X139300000Y-84900000D01*
X65650000Y-96900000D02*
X65650000Y-97250000D01*
X85350000Y-83900000D02*
X84150000Y-83900000D01*
X154200000Y-75963604D02*
X154200000Y-69300000D01*
X108100000Y-84900000D02*
X121150000Y-84900000D01*
X66400000Y-98000000D02*
X71373833Y-98000000D01*
X83400000Y-84650000D02*
X84150000Y-83900000D01*
X121150000Y-85350000D02*
X121625000Y-85825000D01*
X154200000Y-69300000D02*
X155100000Y-68400000D01*
X103850000Y-78900000D02*
X102650000Y-78900000D01*
X155100000Y-68400000D02*
X165700000Y-68400000D01*
X140850000Y-84900000D02*
X139650000Y-84900000D01*
X140225000Y-85825000D02*
X150375000Y-85825000D01*
X121625000Y-85825000D02*
X138375000Y-85825000D01*
X165700000Y-68400000D02*
X166900000Y-67200000D01*
X102650000Y-78900000D02*
X102650000Y-79450000D01*
X150375000Y-85825000D02*
X152550000Y-83650000D01*
X84150000Y-84350000D02*
X84625000Y-84825000D01*
X66850000Y-96900000D02*
X65650000Y-96900000D01*
X83400000Y-85973833D02*
X83400000Y-84650000D01*
X152550000Y-77613604D02*
X154200000Y-75963604D01*
X65650000Y-97250000D02*
X66400000Y-98000000D01*
X71373833Y-98000000D02*
X83400000Y-85973833D01*
%TO.N,P10*%
X148200000Y-100200000D02*
X148200000Y-111101262D01*
X138701262Y-111101262D02*
X133102894Y-105502894D01*
X168275000Y-69740000D02*
X166900000Y-69740000D01*
X133102894Y-105502894D02*
X133102894Y-104353449D01*
X134284663Y-104561827D02*
X133102894Y-104353449D01*
X153000000Y-77800000D02*
X153000000Y-95400000D01*
X151200000Y-111200000D02*
X162836910Y-122836910D01*
X162836910Y-122836910D02*
X170060614Y-122836910D01*
X166900000Y-69740000D02*
X165840000Y-70800000D01*
X151200000Y-111101262D02*
X151200000Y-111200000D01*
X153000000Y-95400000D02*
X148200000Y-100200000D01*
X151200000Y-111101262D02*
X153456482Y-111101262D01*
X156200000Y-71800000D02*
X156200000Y-74600000D01*
X157200000Y-70800000D02*
X156200000Y-71800000D01*
X148200000Y-111101262D02*
X138701262Y-111101262D01*
X156200000Y-74600000D02*
X153000000Y-77800000D01*
X170952387Y-123639867D02*
X170060614Y-122836910D01*
X165840000Y-70800000D02*
X157200000Y-70800000D01*
X151200000Y-111101262D02*
X148200000Y-111101262D01*
X153456482Y-111101262D02*
X153982527Y-111627307D01*
D39*
%TO.N,RAW*%
X168275000Y-41800000D02*
X166900000Y-41800000D01*
X172600000Y-99300000D02*
X172600000Y-85600000D01*
X172600000Y-99300000D02*
X173235876Y-99935876D01*
X172600000Y-85600000D02*
X174600000Y-83600000D01*
X174600000Y-83600000D02*
X174600000Y-44400000D01*
X174600000Y-44400000D02*
X173250000Y-43050000D01*
X166900000Y-42100000D02*
X166900000Y-41800000D01*
X167850000Y-43050000D02*
X166900000Y-42100000D01*
X173235876Y-99935876D02*
X175386529Y-99935876D01*
X173250000Y-43050000D02*
X167850000Y-43050000D01*
%TO.N,RST*%
X174000000Y-82750000D02*
X171950000Y-84800000D01*
X174000000Y-47400000D02*
X174000000Y-82750000D01*
X168275000Y-46880000D02*
X166900000Y-46880000D01*
X166232233Y-84750000D02*
X166182233Y-84800000D01*
X167800000Y-45600000D02*
X172200000Y-45600000D01*
X172200000Y-45600000D02*
X174000000Y-47400000D01*
X166900000Y-46880000D02*
X166900000Y-46500000D01*
X171950000Y-84800000D02*
X167317767Y-84800000D01*
X167317767Y-84800000D02*
X167267767Y-84750000D01*
X161450000Y-84800000D02*
X160250000Y-86000000D01*
X166182233Y-84800000D02*
X161450000Y-84800000D01*
X167267767Y-84750000D02*
X166232233Y-84750000D01*
X166900000Y-46500000D02*
X167800000Y-45600000D01*
%TO.N,VCC*%
X172200000Y-73200000D02*
X173400000Y-72000000D01*
X166900000Y-49100000D02*
X166900000Y-49420000D01*
X168275000Y-49420000D02*
X166900000Y-49420000D01*
X163500000Y-74700000D02*
X165000000Y-73200000D01*
X173400000Y-49400000D02*
X172170000Y-48170000D01*
X165000000Y-73200000D02*
X172200000Y-73200000D01*
X167830000Y-48170000D02*
X166900000Y-49100000D01*
X172170000Y-48170000D02*
X167830000Y-48170000D01*
X173400000Y-72000000D02*
X173400000Y-49400000D01*
D38*
%TO.N,P21*%
X168275000Y-51960000D02*
X166900000Y-51960000D01*
%TO.N,P20*%
X168275000Y-54500000D02*
X166900000Y-54500000D01*
%TO.N,P19*%
X168275000Y-57040000D02*
X166900000Y-57040000D01*
%TO.N,P18*%
X168275000Y-59580000D02*
X166900000Y-59580000D01*
D37*
%TO.N,P1*%
X161170006Y-80100006D02*
X163500000Y-80100006D01*
D38*
X158725000Y-41800000D02*
X160100000Y-41800000D01*
D37*
X158420000Y-77350000D02*
X161170006Y-80100006D01*
D38*
%TO.N,P0*%
X158725000Y-44340000D02*
X160100000Y-44340000D01*
D37*
%TO.N,P2*%
X166629997Y-79300003D02*
X168580000Y-77350000D01*
D38*
X158725000Y-51960000D02*
X160100000Y-51960000D01*
D37*
X163500000Y-79300003D02*
X166629997Y-79300003D01*
%TO.N,P3*%
X171800000Y-72600000D02*
X172900000Y-71500000D01*
D38*
X158725000Y-54500000D02*
X160100000Y-54500000D01*
D37*
X162350000Y-76501470D02*
X162350000Y-74223654D01*
X172250000Y-53250000D02*
X161350000Y-53250000D01*
X163500000Y-77651470D02*
X162350000Y-76501470D01*
X161350000Y-53250000D02*
X160100000Y-54500000D01*
X165790000Y-77600000D02*
X166040000Y-77350000D01*
X162350000Y-74223654D02*
X163973654Y-72600000D01*
X172900000Y-71500000D02*
X172900000Y-53900000D01*
X172900000Y-53900000D02*
X172250000Y-53250000D01*
X163973654Y-72600000D02*
X171800000Y-72600000D01*
X163551470Y-77600000D02*
X165790000Y-77600000D01*
X163500000Y-77651470D02*
X163551470Y-77600000D01*
D38*
%TO.N,MCU1_24*%
X155880000Y-41800000D02*
X158000000Y-41800000D01*
D39*
%TO.N,MCU1_1*%
X169000000Y-41800000D02*
X171120000Y-41800000D01*
D38*
%TO.N,MCU1_23*%
X155880000Y-44340000D02*
X158000000Y-44340000D01*
D39*
%TO.N,MCU1_2*%
X169000000Y-44340000D02*
X171120000Y-44340000D01*
%TO.N,MCU1_22*%
X155880000Y-46880000D02*
X158000000Y-46880000D01*
%TO.N,MCU1_3*%
X169000000Y-46880000D02*
X171120000Y-46880000D01*
%TO.N,MCU1_21*%
X155880000Y-49420000D02*
X158000000Y-49420000D01*
%TO.N,MCU1_4*%
X169000000Y-49420000D02*
X171120000Y-49420000D01*
D38*
%TO.N,MCU1_20*%
X155880000Y-51960000D02*
X158000000Y-51960000D01*
%TO.N,MCU1_5*%
X169000000Y-51960000D02*
X171120000Y-51960000D01*
%TO.N,MCU1_19*%
X155880000Y-54500000D02*
X158000000Y-54500000D01*
%TO.N,MCU1_6*%
X169000000Y-54500000D02*
X171120000Y-54500000D01*
%TO.N,MCU1_18*%
X155880000Y-57040000D02*
X158000000Y-57040000D01*
%TO.N,MCU1_7*%
X169000000Y-57040000D02*
X171120000Y-57040000D01*
%TO.N,MCU1_17*%
X155880000Y-59580000D02*
X158000000Y-59580000D01*
%TO.N,MCU1_8*%
X169000000Y-59580000D02*
X171120000Y-59580000D01*
%TO.N,MCU1_16*%
X155880000Y-62120000D02*
X158000000Y-62120000D01*
%TO.N,MCU1_9*%
X169000000Y-62120000D02*
X171120000Y-62120000D01*
%TO.N,MCU1_15*%
X155880000Y-64660000D02*
X158000000Y-64660000D01*
%TO.N,MCU1_10*%
X169000000Y-64660000D02*
X171120000Y-64660000D01*
%TO.N,MCU1_14*%
X155880000Y-67200000D02*
X158000000Y-67200000D01*
%TO.N,MCU1_11*%
X169000000Y-67200000D02*
X171120000Y-67200000D01*
%TO.N,MCU1_13*%
X155880000Y-69740000D02*
X158000000Y-69740000D01*
%TO.N,MCU1_12*%
X169000000Y-69740000D02*
X171120000Y-69740000D01*
%TO.N,DISP1_1*%
X158420000Y-74700000D02*
X158420000Y-76450000D01*
D39*
%TO.N,DISP1_2*%
X160960000Y-74700000D02*
X160960000Y-76450000D01*
D38*
%TO.N,DISP1_4*%
X166040000Y-74700000D02*
X166040000Y-76450000D01*
%TO.N,DISP1_5*%
X168580000Y-74700000D02*
X168580000Y-76450000D01*
D39*
%TO.N,BAT_P*%
X165400000Y-93350000D02*
X166250000Y-92500000D01*
X171000000Y-98600000D02*
X171800000Y-99400000D01*
X166350000Y-98600000D02*
X165400000Y-97650000D01*
X166250000Y-92500000D02*
X166684000Y-92500000D01*
X165400000Y-97650000D02*
X165400000Y-93350000D01*
X171800000Y-101550000D02*
X172895882Y-102645882D01*
X171800000Y-99400000D02*
X171800000Y-101550000D01*
X172895882Y-102645882D02*
X176673335Y-102645882D01*
X171000000Y-98600000D02*
X166350000Y-98600000D01*
D38*
%TO.N,JST1_1*%
X167700000Y-92500000D02*
X169500000Y-92500000D01*
%TO.N,JST1_2*%
X167700000Y-94500000D02*
X169500000Y-94500000D01*
%TD*%
M02*
