0
SECTION
2
HEADER
9
$INSUNITS
70
4
0
ENDSEC
0
SECTION
2
TABLES
0
TABLE
2
LTYPE
0
LTYPE
72
65
70
0
2
CONTINUOUS
3
______
73
0
40
0
0
LTYPE
72
65
70
0
2
DASHED
3
_ _ _ 
73
2
40
7.5
49
5
49
-2.5
0
LTYPE
72
65
70
0
2
DOTTED
3
. . . 
73
2
40
1.5
49
0.5
49
-1
0
ENDTAB
0
TABLE
2
LAYER
0
ENDTAB
0
ENDSEC
0
SECTION
2
ENTITIES
0
LINE
8
0
6
CONTINUOUS
10
59.411156
20
-104
11
120.1399095
21
-104
0
LINE
8
0
6
CONTINUOUS
10
57.4132189
20
-102.0908154
11
57.0867811
21
-94.9091846
0
LINE
8
0
6
CONTINUOUS
10
55.088844
20
-93
11
41
21
-93
0
LINE
8
0
6
CONTINUOUS
10
39
20
-91
11
39
21
-56.5
0
LINE
8
0
6
CONTINUOUS
10
41
20
-54.5
11
55.1479377
21
-54.5
0
LINE
8
0
6
CONTINUOUS
10
57.1420467
20
-52.653393
11
57.3579533
21
-49.846607
0
LINE
8
0
6
CONTINUOUS
10
59.3520623
20
-48
11
73.5754444
21
-48
0
LINE
8
0
6
CONTINUOUS
10
75.5739667
20
-46.0768662
11
75.9260333
21
-36.9231338
0
LINE
8
0
6
CONTINUOUS
10
77.9245556
20
-35
11
92.1900249
21
-35
0
LINE
8
0
6
CONTINUOUS
10
94.1800993
20
-33.1990074
11
94.3199007
21
-31.8009926
0
LINE
8
0
6
CONTINUOUS
10
96.3099751
20
-30
11
114.6597342
21
-30
0
LINE
8
0
6
CONTINUOUS
10
116.6528258
20
-31.833909
11
116.8471742
21
-34.166091
0
LINE
8
0
6
CONTINUOUS
10
118.8402658
20
-36
11
173.5
21
-36
0
LINE
8
0
6
CONTINUOUS
10
175.5
20
-38
11
175.5
21
-91.5488187
0
LINE
8
0
6
CONTINUOUS
10
175.6937066
20
-92.4074829
11
189.0811544
21
-120.5694348
0
LINE
8
0
6
CONTINUOUS
10
188.7611507
20
-122.7663602
11
176.9406034
21
-135.8944079
0
LINE
8
0
6
CONTINUOUS
10
174.1160525
20
-136.0424364
11
159.4418396
21
-122.8297157
0
LINE
8
0
6
CONTINUOUS
10
159.0280065
20
-122.5424686
11
142.7072226
21
-114.0355162
0
LINE
8
0
6
CONTINUOUS
10
142.2007554
20
-113.8532133
11
124.891913
21
-110.1543303
0
LINE
8
0
6
CONTINUOUS
10
123.4498724
20
-108.9336055
11
121.9999112
21
-105.2648852
0
ARC
8
0
6
CONTINUOUS
10
59.411156
20
-102
40
2
50
182.6025645
51
270
0
ARC
8
0
6
CONTINUOUS
10
55.088844
20
-95
40
2
50
2.6025645
51
90
0
ARC
8
0
6
CONTINUOUS
10
41
20
-91
40
2
50
180
51
270
0
ARC
8
0
6
CONTINUOUS
10
41
20
-56.5
40
2
50
90
51
180
0
ARC
8
0
6
CONTINUOUS
10
55.1479377
20
-52.5
40
2
50
270
51
355.6012946
0
ARC
8
0
6
CONTINUOUS
10
59.3520623
20
-50
40
2
50
90
51
175.6012946
0
ARC
8
0
6
CONTINUOUS
10
73.5754444
20
-46
40
2
50
270
51
357.7974032
0
ARC
8
0
6
CONTINUOUS
10
77.9245556
20
-37
40
2
50
90
51
177.7974032
0
ARC
8
0
6
CONTINUOUS
10
92.1900249
20
-33
40
2
50
270
51
354.289408
0
ARC
8
0
6
CONTINUOUS
10
96.3099751
20
-32
40
2
50
90
51
174.289408
0
ARC
8
0
6
CONTINUOUS
10
114.6597342
20
-32
40
2
50
4.7636426
51
90
0
ARC
8
0
6
CONTINUOUS
10
118.8402658
20
-34
40
2
50
184.7636426
51
270
0
ARC
8
0
6
CONTINUOUS
10
173.5
20
-38
40
2
50
0
51
90
0
ARC
8
0
6
CONTINUOUS
10
177.5
20
-91.5488187
40
2
50
180
51
205.4251808
0
ARC
8
0
6
CONTINUOUS
10
187.274861
20
-121.428099
40
2
50
317.9999993
51
25.4251808
0
ARC
8
0
6
CONTINUOUS
10
175.4543138
20
-134.5561467
40
2
50
227.9999993
51
317.9999993
0
ARC
8
0
6
CONTINUOUS
10
158.1035783
20
-124.3160053
40
2
50
47.9999993
51
62.4699292
0
ARC
8
0
6
CONTINUOUS
10
141.7827944
20
-115.8090529
40
2
50
62.4699292
51
77.9373863
0
ARC
8
0
6
CONTINUOUS
10
125.309874
20
-108.1984907
40
2
50
201.5650532
51
257.9373863
0
ARC
8
0
6
CONTINUOUS
10
120.1399095
20
-106
40
2
50
21.5650532
51
90
0
ENDSEC
0
EOF