0
SECTION
2
HEADER
9
$INSUNITS
70
4
0
ENDSEC
0
SECTION
2
TABLES
0
TABLE
2
LTYPE
0
LTYPE
72
65
70
0
2
CONTINUOUS
3
______
73
0
40
0
0
LTYPE
72
65
70
0
2
DASHED
3
_ _ _ 
73
2
40
7.5
49
5
49
-2.5
0
LTYPE
72
65
70
0
2
DOTTED
3
. . . 
73
2
40
1.5
49
0.5
49
-1
0
ENDTAB
0
TABLE
2
LAYER
0
ENDTAB
0
ENDSEC
0
SECTION
2
ENTITIES
0
LINE
8
0
6
CONTINUOUS
10
41.05
20
-90.95
11
58.95
21
-90.95
0
LINE
8
0
6
CONTINUOUS
10
58.95
20
-90.95
11
58.95
21
-74.05
0
LINE
8
0
6
CONTINUOUS
10
58.95
20
-74.05
11
41.05
21
-74.05
0
LINE
8
0
6
CONTINUOUS
10
41.05
20
-74.05
11
41.05
21
-90.95
0
LINE
8
0
6
CONTINUOUS
10
41.05
20
-73.45
11
58.95
21
-73.45
0
LINE
8
0
6
CONTINUOUS
10
58.95
20
-73.45
11
58.95
21
-56.55
0
LINE
8
0
6
CONTINUOUS
10
58.95
20
-56.55
11
41.05
21
-56.55
0
LINE
8
0
6
CONTINUOUS
10
41.05
20
-56.55
11
41.05
21
-73.45
0
LINE
8
0
6
CONTINUOUS
10
59.55
20
-101.95
11
77.45
21
-101.95
0
LINE
8
0
6
CONTINUOUS
10
77.45
20
-101.95
11
77.45
21
-85.05
0
LINE
8
0
6
CONTINUOUS
10
77.45
20
-85.05
11
59.55
21
-85.05
0
LINE
8
0
6
CONTINUOUS
10
59.55
20
-85.05
11
59.55
21
-101.95
0
LINE
8
0
6
CONTINUOUS
10
59.55
20
-84.45
11
77.45
21
-84.45
0
LINE
8
0
6
CONTINUOUS
10
77.45
20
-84.45
11
77.45
21
-67.55
0
LINE
8
0
6
CONTINUOUS
10
77.45
20
-67.55
11
59.55
21
-67.55
0
LINE
8
0
6
CONTINUOUS
10
59.55
20
-67.55
11
59.55
21
-84.45
0
LINE
8
0
6
CONTINUOUS
10
59.55
20
-66.95
11
77.45
21
-66.95
0
LINE
8
0
6
CONTINUOUS
10
77.45
20
-66.95
11
77.45
21
-50.05
0
LINE
8
0
6
CONTINUOUS
10
77.45
20
-50.05
11
59.55
21
-50.05
0
LINE
8
0
6
CONTINUOUS
10
59.55
20
-50.05
11
59.55
21
-66.95
0
LINE
8
0
6
CONTINUOUS
10
78.05
20
-88.95
11
95.95
21
-88.95
0
LINE
8
0
6
CONTINUOUS
10
95.95
20
-88.95
11
95.95
21
-72.05
0
LINE
8
0
6
CONTINUOUS
10
95.95
20
-72.05
11
78.05
21
-72.05
0
LINE
8
0
6
CONTINUOUS
10
78.05
20
-72.05
11
78.05
21
-88.95
0
LINE
8
0
6
CONTINUOUS
10
78.05
20
-71.45
11
95.95
21
-71.45
0
LINE
8
0
6
CONTINUOUS
10
95.95
20
-71.45
11
95.95
21
-54.55
0
LINE
8
0
6
CONTINUOUS
10
95.95
20
-54.55
11
78.05
21
-54.55
0
LINE
8
0
6
CONTINUOUS
10
78.05
20
-54.55
11
78.05
21
-71.45
0
LINE
8
0
6
CONTINUOUS
10
78.05
20
-53.95
11
95.95
21
-53.95
0
LINE
8
0
6
CONTINUOUS
10
95.95
20
-53.95
11
95.95
21
-37.05
0
LINE
8
0
6
CONTINUOUS
10
95.95
20
-37.05
11
78.05
21
-37.05
0
LINE
8
0
6
CONTINUOUS
10
78.05
20
-37.05
11
78.05
21
-53.95
0
LINE
8
0
6
CONTINUOUS
10
96.55
20
-83.95
11
114.45
21
-83.95
0
LINE
8
0
6
CONTINUOUS
10
114.45
20
-83.95
11
114.45
21
-67.05
0
LINE
8
0
6
CONTINUOUS
10
114.45
20
-67.05
11
96.55
21
-67.05
0
LINE
8
0
6
CONTINUOUS
10
96.55
20
-67.05
11
96.55
21
-83.95
0
LINE
8
0
6
CONTINUOUS
10
96.55
20
-66.45
11
114.45
21
-66.45
0
LINE
8
0
6
CONTINUOUS
10
114.45
20
-66.45
11
114.45
21
-49.55
0
LINE
8
0
6
CONTINUOUS
10
114.45
20
-49.55
11
96.55
21
-49.55
0
LINE
8
0
6
CONTINUOUS
10
96.55
20
-49.55
11
96.55
21
-66.45
0
LINE
8
0
6
CONTINUOUS
10
96.55
20
-48.95
11
114.45
21
-48.95
0
LINE
8
0
6
CONTINUOUS
10
114.45
20
-48.95
11
114.45
21
-32.05
0
LINE
8
0
6
CONTINUOUS
10
114.45
20
-32.05
11
96.55
21
-32.05
0
LINE
8
0
6
CONTINUOUS
10
96.55
20
-32.05
11
96.55
21
-48.95
0
LINE
8
0
6
CONTINUOUS
10
115.05
20
-89.95
11
132.95
21
-89.95
0
LINE
8
0
6
CONTINUOUS
10
132.95
20
-89.95
11
132.95
21
-73.05
0
LINE
8
0
6
CONTINUOUS
10
132.95
20
-73.05
11
115.05
21
-73.05
0
LINE
8
0
6
CONTINUOUS
10
115.05
20
-73.05
11
115.05
21
-89.95
0
LINE
8
0
6
CONTINUOUS
10
115.05
20
-72.45
11
132.95
21
-72.45
0
LINE
8
0
6
CONTINUOUS
10
132.95
20
-72.45
11
132.95
21
-55.55
0
LINE
8
0
6
CONTINUOUS
10
132.95
20
-55.55
11
115.05
21
-55.55
0
LINE
8
0
6
CONTINUOUS
10
115.05
20
-55.55
11
115.05
21
-72.45
0
LINE
8
0
6
CONTINUOUS
10
115.05
20
-54.95
11
132.95
21
-54.95
0
LINE
8
0
6
CONTINUOUS
10
132.95
20
-54.95
11
132.95
21
-38.05
0
LINE
8
0
6
CONTINUOUS
10
132.95
20
-38.05
11
115.05
21
-38.05
0
LINE
8
0
6
CONTINUOUS
10
115.05
20
-38.05
11
115.05
21
-54.95
0
LINE
8
0
6
CONTINUOUS
10
133.55
20
-89.95
11
151.45
21
-89.95
0
LINE
8
0
6
CONTINUOUS
10
151.45
20
-89.95
11
151.45
21
-73.05
0
LINE
8
0
6
CONTINUOUS
10
151.45
20
-73.05
11
133.55
21
-73.05
0
LINE
8
0
6
CONTINUOUS
10
133.55
20
-73.05
11
133.55
21
-89.95
0
LINE
8
0
6
CONTINUOUS
10
133.55
20
-72.45
11
151.45
21
-72.45
0
LINE
8
0
6
CONTINUOUS
10
151.45
20
-72.45
11
151.45
21
-55.55
0
LINE
8
0
6
CONTINUOUS
10
151.45
20
-55.55
11
133.55
21
-55.55
0
LINE
8
0
6
CONTINUOUS
10
133.55
20
-55.55
11
133.55
21
-72.45
0
LINE
8
0
6
CONTINUOUS
10
133.55
20
-54.95
11
151.45
21
-54.95
0
LINE
8
0
6
CONTINUOUS
10
151.45
20
-54.95
11
151.45
21
-38.05
0
LINE
8
0
6
CONTINUOUS
10
151.45
20
-38.05
11
133.55
21
-38.05
0
LINE
8
0
6
CONTINUOUS
10
133.55
20
-38.05
11
133.55
21
-54.95
0
LINE
8
0
6
CONTINUOUS
10
126.2186435
20
-108.2674743
11
143.8467023
21
-111.3757767
0
LINE
8
0
6
CONTINUOUS
10
143.8467023
20
-111.3757767
11
146.7813565
21
-94.7325257
0
LINE
8
0
6
CONTINUOUS
10
146.7813565
20
-94.7325257
11
129.1532977
21
-91.6242233
0
LINE
8
0
6
CONTINUOUS
10
129.1532977
20
-91.6242233
11
126.2186435
21
-108.2674743
0
LINE
8
0
6
CONTINUOUS
10
145.2075565
20
-112.9661074
11
161.2959699
21
-120.812951
0
LINE
8
0
6
CONTINUOUS
10
161.2959699
20
-120.812951
11
168.7044423
21
-105.6233316
0
LINE
8
0
6
CONTINUOUS
10
168.7044423
20
-105.6233316
11
152.6160289
21
-97.776488
0
LINE
8
0
6
CONTINUOUS
10
152.6160289
20
-97.776488
11
145.2075565
21
-112.9661074
0
LINE
8
0
6
CONTINUOUS
10
162.1483207
20
-122.5080951
11
175.4506131
21
-134.485533
0
LINE
8
0
6
CONTINUOUS
10
175.4506131
20
-134.485533
11
186.7589203
21
-121.9263855
0
LINE
8
0
6
CONTINUOUS
10
186.7589203
20
-121.9263855
11
173.4566279
21
-109.9489476
0
LINE
8
0
6
CONTINUOUS
10
173.4566279
20
-109.9489476
11
162.1483207
21
-122.5080951
0
ENDSEC
0
EOF